<svg width="18" height="34" viewBox="0 0 18 34" fill="none" xmlns="http://www.w3.org/2000/svg">
<rect width="18" height="18" rx="9" transform="matrix(-1 -5.56363e-08 -5.56363e-08 1 18 0)" fill="#94BDE5" fill-opacity="0.3"/>
<circle cx="3.75" cy="3.75" r="3.75" transform="matrix(-1 -5.56363e-08 -5.56363e-08 1 12.75 5.25)" fill="#15269D"/>
<path d="M9.75 9C9.75 8.58579 9.41421 8.25 9 8.25C8.58579 8.25 8.25 8.58579 8.25 9L9 9L9.75 9ZM8.46967 33.5303C8.76256 33.8232 9.23744 33.8232 9.53033 33.5303L14.3033 28.7574C14.5962 28.4645 14.5962 27.9896 14.3033 27.6967C14.0104 27.4038 13.5355 27.4038 13.2426 27.6967L9 31.9393L4.75736 27.6967C4.46447 27.4038 3.98959 27.4038 3.6967 27.6967C3.4038 27.9896 3.4038 28.4645 3.6967 28.7574L8.46967 33.5303ZM9 9L8.25 9L8.25 33L9 33L9.75 33L9.75 9L9 9Z" fill="#15269D"/>
</svg>
