<svg width="89" height="24" viewBox="0 0 89 24" fill="none" xmlns="http://www.w3.org/2000/svg">
<rect width="24" height="24" rx="12" transform="matrix(-1.19249e-08 1 1 1.19249e-08 0 0)" fill="#94BDE5" fill-opacity="0.3"/>
<circle cx="5" cy="5" r="5" transform="matrix(-1.19249e-08 1 1 1.19249e-08 7 7)" fill="#15269D"/>
<path d="M12 13C11.4477 13 11 12.5523 11 12C11 11.4477 11.4477 11 12 11L12 12L12 13ZM88.7071 11.2929C89.0976 11.6834 89.0976 12.3166 88.7071 12.7071L82.3431 19.0711C81.9526 19.4616 81.3195 19.4616 80.9289 19.0711C80.5384 18.6805 80.5384 18.0474 80.9289 17.6569L86.5858 12L80.9289 6.34315C80.5384 5.95262 80.5384 5.31946 80.9289 4.92893C81.3195 4.53841 81.9526 4.53841 82.3431 4.92893L88.7071 11.2929ZM12 12L12 11L88 11L88 12L88 13L12 13L12 12Z" fill="#15269D"/>
</svg>
