<svg width="970" height="174" viewBox="0 0 970 174" fill="none" xmlns="http://www.w3.org/2000/svg">
<g opacity="0.05">
<path d="M64.5487 3.34961H0V173.653H36.9917V113.673H64.588C85.5408 113.673 100.44 108.575 109.363 98.3802C118.248 88.1851 122.729 75.0505 122.729 58.9392C122.729 42.8279 118.287 29.0979 109.363 18.7912C100.44 8.5216 85.5408 3.38682 64.588 3.38682L64.5487 3.34961ZM78.9366 90.1571C74.4551 97.4872 67.5757 101.134 58.3769 101.134H36.9524V16.1493H58.3769C67.5757 16.1493 74.4158 19.8702 78.9366 27.2747C83.4573 34.6792 85.6981 45.2464 85.6981 58.9392C85.6981 72.6319 83.4573 82.8643 78.9366 90.1943V90.1571Z" fill="#1C3471"/>
<path d="M177.371 3.34961H140.379V173.653H243.688V156.426H177.371V3.34961Z" fill="#1C3471"/>
<path d="M332.57 75.3101L317.003 71.4404C307.804 69.2079 300.767 66.9382 295.892 64.6312C290.979 62.3243 287.48 59.4592 285.318 55.9988C283.156 52.5757 282.094 48.0734 282.094 42.5294C282.094 33.6365 284.964 26.6785 290.743 21.6926C296.521 16.7066 304.58 14.1765 314.958 14.1765C325.336 14.1765 332.845 17.7857 338.742 25.0041C344.009 31.4784 347.193 40.4457 348.53 51.6827H378.957C376.402 34.083 369.955 21.0972 359.576 12.6509C349.198 4.24177 334.417 0 315.273 0C294.517 0 278.871 4.24177 268.296 12.7625C257.721 21.2833 252.454 33.9714 252.454 50.8269C252.454 65.6358 256.031 76.9845 263.186 84.8727C270.301 92.7609 282.409 98.5282 299.43 102.249L313.229 105.598C323.214 107.83 330.722 110.1 335.833 112.407C340.904 114.714 344.52 117.542 346.682 120.891C348.844 124.202 349.906 128.667 349.906 134.211C349.906 143.476 346.879 150.546 340.786 155.457C334.732 160.369 326.005 162.825 314.683 162.825C304.109 162.825 295.696 159.253 289.445 152.146C283.863 145.783 280.325 136.779 278.635 125.318H248.641C250.803 142.918 257.25 155.904 268.021 164.35C278.792 172.796 294.32 177.001 314.683 177.001C335.046 177.001 351.989 172.648 363.272 163.941C374.515 155.234 380.136 142.732 380.136 126.435C380.136 111.998 376.519 100.872 369.286 93.0957C362.053 85.3192 349.827 79.403 332.609 75.3101H332.57Z" fill="#1C3471"/>
<path d="M545.047 150.881C540.33 158.471 532.31 162.266 520.989 162.266C511.2 162.266 503.613 159.699 498.228 154.639C492.842 149.541 489.068 141.727 486.945 131.16C484.783 120.593 483.722 106.454 483.722 88.6679C483.722 70.8823 484.783 56.4081 486.945 45.7293C489.108 35.0877 492.842 27.1994 498.228 22.1019C503.613 17.0043 511.2 14.4741 520.989 14.4741C530.777 14.4741 538.364 17.7113 543.16 24.1855C547.327 29.8412 550.04 37.8039 551.494 47.7758H581.764C579.798 32.0365 574.373 20.1298 565.489 12.0928C556.605 4.01852 541.784 0 521.028 0C502.041 0 487.142 3.31156 476.253 10.0091C465.403 16.6694 457.777 26.4553 453.374 39.3294C448.971 52.2036 446.77 68.6497 446.77 88.6307C446.77 108.612 448.971 125.021 453.374 137.783C457.777 150.583 465.403 160.294 476.253 166.955C487.103 173.615 502.041 176.964 521.028 176.964C536.281 176.964 548.271 174.62 556.998 169.894C565.685 165.169 571.897 158.657 575.631 150.322C579.366 141.988 581.685 131.421 582.668 118.658H552.673C552.162 132.723 549.686 143.513 545.126 150.881H545.047Z" fill="#1C3471"/>
<path d="M716.131 56.1487C706.54 43.3862 689.714 36.9863 665.656 36.9863C641.598 36.9863 624.419 43.4234 614.748 56.2976C605.078 69.1717 600.203 86.0644 600.203 106.976C600.203 153.635 622.021 176.965 665.656 176.965C689.714 176.965 706.54 170.528 716.131 157.654C725.723 144.779 730.519 127.887 730.519 106.976C730.519 86.0644 725.723 68.9113 716.131 56.1487ZM687.552 145.114C683.346 154.789 675.995 159.626 665.499 159.626C646.433 159.626 636.92 142.063 636.92 106.938C636.92 91.1992 639.042 78.4738 643.288 68.7996C647.534 59.1254 654.924 54.2511 665.538 54.2511C676.152 54.2511 683.385 59.051 687.592 68.688C691.759 78.2878 693.881 91.0503 693.881 106.938C693.881 122.826 691.798 135.403 687.592 145.077L687.552 145.114Z" fill="#1C3471"/>
<path d="M787.755 59.2351V40.3332H751.078V173.651H787.755V96.4436C787.755 85.6904 790.94 77.6533 797.308 72.2581C803.676 66.9 814.369 64.1838 829.425 64.1838V39.1797C819.047 39.1797 809.966 41.5982 802.143 46.3981C796.522 49.8585 791.765 54.1375 787.755 59.1979V59.2351Z" fill="#1C3471"/>
<path d="M957.066 56.2976C948.457 43.4234 933.401 36.9863 911.859 36.9863C901.874 36.9863 891.692 39.777 881.314 45.2466V40.2979H844.637V239.512H881.314V172.835C890.709 175.625 900.694 177.002 911.269 177.002C933.165 177.002 948.457 170.565 957.066 157.691C965.675 144.817 970 127.924 970 107.013C970 86.1016 965.675 69.1717 957.066 56.3348V56.2976ZM925.814 145.152C920.821 154.826 912.055 159.663 899.554 159.663C892.321 159.663 886.267 157.877 881.353 154.305V59.3115C886.149 55.9999 892.164 54.2883 899.554 54.2883C912.055 54.2883 920.821 59.0882 925.814 68.7252C930.806 78.325 933.283 91.0875 933.283 106.976C933.283 122.752 930.806 135.477 925.814 145.152Z" fill="#1C3471"/>
</g>
</svg>
