<svg width="398" height="178" viewBox="0 0 398 178" fill="none" xmlns="http://www.w3.org/2000/svg">
<g opacity="0.05">
<path d="M67.5038 3.49219H0V181.072H38.6852V118.529H67.5449C89.4569 118.529 105.038 113.214 114.37 102.583C123.661 91.9524 128.348 78.2566 128.348 61.4569C128.348 44.6572 123.702 30.3406 114.37 19.5935C105.038 8.88516 89.4569 3.53099 67.5449 3.53099L67.5038 3.49219ZM82.5503 94.0087C77.8637 101.652 70.6693 105.454 61.0494 105.454H38.6441V16.8388H61.0494C70.6693 16.8388 77.8226 20.7187 82.5503 28.4395C87.278 36.1604 89.6213 47.1791 89.6213 61.4569C89.6213 75.7347 87.278 86.4043 82.5503 94.0475V94.0087Z" fill="#1C3471"/>
<path d="M185.491 3.49219H146.806V181.072H254.845V163.109H185.491V3.49219Z" fill="#1C3471"/>
<path d="M347.795 78.5279L331.515 74.4928C321.895 72.1649 314.536 69.7982 309.438 67.3927C304.3 64.9872 300.641 61.9998 298.38 58.3915C296.119 54.8221 295.009 50.1275 295.009 44.3465C295.009 35.0737 298.01 27.8184 304.053 22.6194C310.096 17.4205 318.524 14.7822 329.377 14.7822C340.23 14.7822 348.083 18.5456 354.249 26.0725C359.758 32.8234 363.088 42.1738 364.486 53.8909H396.305C393.633 35.5393 386.891 21.9987 376.038 13.1914C365.185 4.42301 349.727 0 329.706 0C308 0 291.638 4.42301 280.579 13.3078C269.52 22.1927 264.011 35.4229 264.011 52.9986C264.011 68.4403 267.752 80.2738 275.234 88.499C282.675 96.7243 295.338 102.738 313.138 106.618L327.568 110.11C338.01 112.438 345.863 114.804 351.207 117.21C356.51 119.615 360.292 122.564 362.554 126.056C364.815 129.509 365.925 134.165 365.925 139.946C365.925 149.606 362.759 156.978 356.387 162.1C350.056 167.221 340.929 169.782 329.089 169.782C318.031 169.782 309.233 166.057 302.696 158.646C296.859 152.012 293.159 142.623 291.391 130.673H260.023C262.285 149.024 269.027 162.565 280.291 171.372C291.555 180.18 307.794 184.564 329.089 184.564C350.385 184.564 368.104 180.024 379.902 170.946C391.66 161.867 397.539 148.83 397.539 131.837C397.539 116.783 393.757 105.182 386.192 97.0735C378.628 88.9646 365.842 82.7957 347.836 78.5279H347.795Z" fill="#1C3471"/>
</g>
</svg>
