<svg width="64" height="64" viewBox="0 0 64 64" fill="none" xmlns="http://www.w3.org/2000/svg">
<g clip-path="url(#clip0_459_3305)">
<path d="M48.3325 42.3117L50.5645 37.2457L46.5821 35.4953C47.0822 33.43 47.1378 31.3369 46.7673 29.3272L50.8423 27.7435L48.8326 22.5849L44.7761 24.1686C43.7018 22.4367 42.2755 20.9178 40.5251 19.7231L42.3033 15.6759L37.2373 13.4439L35.4592 17.4911C33.4216 17.0188 31.3471 16.9817 29.3652 17.3522L27.7351 13.166L22.5765 15.1757L24.2066 19.3619C22.5117 20.4177 21.0206 21.8254 19.8444 23.5295L15.6583 21.6958L13.4263 26.7618L17.5939 28.5955C17.1216 30.6052 17.0753 32.6427 17.4179 34.6062L13.1484 36.264L15.1582 41.4226L19.3906 39.774C20.4372 41.4781 21.8171 42.9877 23.5119 44.1825L21.6875 48.3408L26.7534 50.5728L28.5594 46.47C30.5877 46.9701 32.653 47.035 34.6349 46.6923L36.2556 50.8507L41.4142 48.8409L39.8213 44.7474C41.5624 43.6916 43.0998 42.2839 44.3131 40.552L48.3325 42.3209V42.3117Z" stroke="#222222" stroke-width="2" stroke-linecap="round" stroke-linejoin="round"/>
<path d="M39.5432 32.1894C39.6471 28.0272 36.3572 24.5688 32.1949 24.4649C28.0327 24.361 24.5743 27.6509 24.4704 31.8132C24.3665 35.9754 27.6564 39.4338 31.8187 39.5377C35.9809 39.6416 39.4393 36.3517 39.5432 32.1894Z" stroke="#15269D" stroke-width="2" stroke-linecap="round" stroke-linejoin="round"/>
</g>
<defs>
<clipPath id="clip0_459_3305">
<rect width="40" height="40" fill="white" transform="translate(12 12)"/>
</clipPath>
</defs>
</svg>
