<svg width="68" height="68" viewBox="0 0 68 68" fill="none" xmlns="http://www.w3.org/2000/svg">
<circle opacity="0.4" cx="48" cy="20" r="12" fill="#94BDE5"/>
<g clip-path="url(#clip0_368_5717)">
<path d="M36.3842 39.208C36.3842 41.4388 34.5681 43.2455 32.3256 43.2455C30.0832 43.2455 28.2671 41.4388 28.2671 39.208C28.2671 36.9771 30.0832 35.1704 32.3256 35.1704C34.5681 35.1704 36.3842 36.9771 36.3842 39.208Z" stroke="#15269D" stroke-width="2" stroke-linecap="round" stroke-linejoin="round"/>
<path d="M21.9745 51.2783C21.9745 53.5091 20.1584 55.3159 17.916 55.3159C15.6735 55.3159 13.8574 53.5091 13.8574 51.2783C13.8574 49.0474 15.6735 47.2407 17.916 47.2407C20.1584 47.2407 21.9745 49.0474 21.9745 51.2783Z" stroke="#15269D" stroke-width="2" stroke-linecap="round" stroke-linejoin="round"/>
<path d="M26.1611 23.8891C26.1611 25.9927 24.4473 27.6977 22.3327 27.6977C20.2182 27.6977 18.5044 25.9927 18.5044 23.8891C18.5044 21.7855 20.2182 20.0806 22.3327 20.0806C24.4473 20.0806 26.1611 21.7855 26.1611 23.8891Z" stroke="#15269D" stroke-width="2" stroke-linecap="round" stroke-linejoin="round"/>
<path d="M41.8581 48.7929C41.0822 46.7233 42.148 44.4246 44.2199 43.6527C46.3003 42.8808 48.611 43.9411 49.3869 46.0023" stroke="#15269D" stroke-width="2" stroke-linecap="round" stroke-linejoin="round"/>
<path d="M42.5063 25.7639C41.2785 27.596 38.7802 28.0965 36.9385 26.8666C35.0968 25.6451 34.5938 23.1598 35.8301 21.3276" stroke="#15269D" stroke-width="2" stroke-linecap="round" stroke-linejoin="round"/>
<path d="M16.2964 39.4708C16.2964 39.4708 17.4474 37.5708 20.1247 37.5708" stroke="#15269D" stroke-width="2" stroke-linecap="round" stroke-linejoin="round"/>
<path d="M27.2012 31.608C27.2012 31.608 28.3522 29.708 31.0295 29.708" stroke="#15269D" stroke-width="2" stroke-linecap="round" stroke-linejoin="round"/>
<path d="M41.2104 36.8755C41.2104 36.8755 43.3932 36.426 45.2093 38.3854" stroke="#15269D" stroke-width="2" stroke-linecap="round" stroke-linejoin="round"/>
<path d="M27.2866 44.6963C27.2866 44.6963 27.6703 48.1231 29.1965 48.8781" stroke="#15269D" stroke-width="2" stroke-linecap="round" stroke-linejoin="round"/>
<path d="M14.0962 60.8804L56.8475 44.0516C59.5844 42.9743 60.9316 39.8105 59.6782 37.164C52.175 21.3361 38.2514 10.4109 22.273 6.97555C19.0585 6.28001 15.9208 8.44299 15.4433 11.6832L8.89509 56.792C8.47729 59.6929 11.3592 61.9577 14.0962 60.8804Z" stroke="#15269D" stroke-width="2" stroke-linecap="round" stroke-linejoin="round"/>
<path d="M21.7788 13.9819C21.7788 13.9819 29.5208 15.407 39.0106 22.2097C44.1776 25.9165 51.8343 35.7899 54.7248 43.8056" stroke="#15269D" stroke-width="2" stroke-linecap="round" stroke-linejoin="round"/>
</g>
<defs>
<clipPath id="clip0_368_5717">
<rect width="53" height="56" fill="white" transform="translate(8 6)"/>
</clipPath>
</defs>
</svg>
