<svg width="234" height="125" viewBox="0 0 234 125" fill="none" xmlns="http://www.w3.org/2000/svg">
<g filter="url(#filter0_d_429_4164)">
<rect x="20" y="16" width="194" height="70" rx="35" fill="white"/>
<g clip-path="url(#clip0_429_4164)">
<path d="M62.7626 61.6673C62.6194 61.5514 62.4484 61.4634 62.259 61.4078C62.0696 61.3522 61.8663 61.3244 61.6584 61.3244H60.3556C60.2724 61.3244 60.217 61.3429 60.1846 61.3753C60.1523 61.4078 60.1338 61.4634 60.1338 61.5468V65.912H60.91V64.0955H61.7138C61.9125 64.0955 62.1019 64.0677 62.2867 64.012C62.4715 63.9564 62.6332 63.8684 62.7718 63.7525C62.9104 63.6367 63.0259 63.493 63.1045 63.317C63.1876 63.1455 63.2292 62.9416 63.2292 62.7099C63.2292 62.4782 63.1876 62.279 63.1045 62.1029C63.0213 61.9268 62.9058 61.7785 62.7626 61.6626V61.6673ZM62.4392 62.7145C62.4392 62.9694 62.3699 63.1501 62.2313 63.2521C62.0881 63.354 61.8756 63.4096 61.5983 63.4096H60.9053V62.0102H61.5983C61.8756 62.0102 62.0881 62.0658 62.2313 62.1724C62.3699 62.2743 62.4392 62.4597 62.4392 62.7145Z" fill="#808080"/>
<path d="M70.8616 61.9175C70.6583 61.7229 70.4134 61.5746 70.1224 61.4773C69.8359 61.38 69.5079 61.329 69.1429 61.329H68.1173C68.0341 61.329 67.9833 61.3475 67.9463 61.38C67.9094 61.4124 67.8955 61.468 67.8955 61.5514V65.6942C67.8955 65.7776 67.914 65.8285 67.9463 65.8656C67.9787 65.9027 68.0341 65.9166 68.1173 65.9166H69.1429C69.5079 65.9166 69.8359 65.8656 70.1224 65.7683C70.4134 65.671 70.6629 65.5227 70.8616 65.3281C71.0649 65.1335 71.2173 64.8925 71.3236 64.6098C71.4299 64.3272 71.4807 63.9935 71.4807 63.6228C71.4807 63.2521 71.4252 62.9277 71.3236 62.6404C71.222 62.3531 71.0649 62.1121 70.8616 61.9175ZM70.6814 63.6228C70.6814 64.1325 70.5705 64.531 70.3488 64.8091C70.1316 65.0825 69.7851 65.2215 69.3046 65.2215H68.6809V62.0056H69.0136C69.2769 61.9963 69.5171 62.0241 69.7251 62.0797C69.933 62.1353 70.1039 62.228 70.2425 62.3577C70.3811 62.4829 70.492 62.6543 70.5659 62.8582C70.6398 63.0667 70.6814 63.3216 70.6814 63.6228Z" fill="#808080"/>
<path d="M77.1775 61.3058H76.4014V65.912H77.1775V61.3058Z" fill="#808080"/>
<path d="M85.6924 64.1742C85.7433 63.9147 85.7664 63.6182 85.7571 63.2984V63.2382H85.041V63.3031C85.041 63.544 85.0225 63.7572 84.9902 63.9286C84.9671 64.0445 84.944 64.1372 84.9255 64.2067L84.0754 63.2752C84.1447 63.2196 84.214 63.1594 84.2833 63.0945C84.3711 63.0157 84.4589 62.9231 84.5328 62.8211C84.6113 62.7238 84.6714 62.608 84.7222 62.4875C84.773 62.3624 84.7961 62.228 84.7961 62.0843C84.7961 61.9592 84.7684 61.8387 84.7222 61.7275C84.6714 61.6163 84.5975 61.519 84.4958 61.4356C84.3988 61.3522 84.2787 61.2873 84.1355 61.241C83.9969 61.1946 83.8352 61.1714 83.655 61.1714C83.4887 61.1714 83.3362 61.1993 83.2022 61.2549C83.0682 61.3105 82.9574 61.38 82.865 61.4727C82.7726 61.5607 82.7033 61.6673 82.6524 61.7924C82.6062 61.9129 82.5831 62.0426 82.5831 62.1816C82.5831 62.2975 82.597 62.4041 82.6293 62.5014C82.6571 62.5987 82.694 62.6867 82.7402 62.7655C82.7864 62.8489 82.8372 62.9277 82.8973 63.0018C82.9435 63.0575 82.9897 63.1131 83.0313 63.1687C82.9065 63.2613 82.791 63.3587 82.6848 63.456C82.5647 63.5718 82.4538 63.6877 82.366 63.8081C82.2736 63.9286 82.2043 64.0584 82.1489 64.1928C82.098 64.3271 82.0703 64.4708 82.0703 64.6237C82.0703 64.86 82.1165 65.0639 82.2043 65.2354C82.2921 65.4069 82.4168 65.5505 82.5693 65.6571C82.7402 65.7868 82.9204 65.8749 83.1052 65.912C83.2854 65.949 83.4979 65.9676 83.7289 65.9676C84.0338 65.9676 84.3064 65.9073 84.5374 65.7915C84.7453 65.6895 84.9163 65.569 85.0456 65.43L85.4383 65.8749H86.4363L85.4707 64.8091C85.5631 64.6237 85.637 64.4059 85.6832 64.165L85.6924 64.1742ZM82.925 64.3364C82.9574 64.253 82.9989 64.1742 83.0544 64.1047C83.1144 64.0306 83.1837 63.9564 83.2669 63.8869C83.3408 63.8267 83.4194 63.7618 83.5025 63.6969L84.5605 64.8879C84.4635 65.0037 84.3434 65.0964 84.2094 65.1659C84.0569 65.2447 83.8768 65.2817 83.6735 65.2817C83.5718 65.2817 83.4748 65.2678 83.3778 65.24C83.2854 65.2122 83.1976 65.1705 83.1237 65.1195C83.0498 65.0639 82.9897 64.9991 82.9481 64.911C82.9019 64.8276 82.8834 64.7257 82.8834 64.6145C82.8834 64.5125 82.8973 64.4198 82.9296 64.3364H82.925ZM83.6689 62.7238C83.6689 62.7238 83.6319 62.7516 83.6134 62.7655C83.6134 62.7655 83.6088 62.7609 83.6042 62.7562C83.5903 62.7377 83.5718 62.7192 83.5626 62.7099C83.5487 62.6914 83.5395 62.6775 83.521 62.6589C83.5164 62.6543 83.5072 62.6404 83.4933 62.6172C83.4332 62.5385 83.387 62.4643 83.3639 62.3948C83.3408 62.3207 83.327 62.2372 83.327 62.1492C83.327 62.038 83.3547 61.9499 83.4148 61.8943C83.4748 61.8341 83.5534 61.8063 83.6596 61.8063C83.8028 61.8063 83.9091 61.8341 83.9553 61.8851C84.0061 61.936 84.0338 62.0148 84.0338 62.1075C84.0338 62.2326 84.0107 62.3346 83.9599 62.4133C83.9091 62.4967 83.8398 62.5755 83.7566 62.6497C83.7289 62.6728 83.7012 62.696 83.6689 62.7192V62.7238Z" fill="#808080"/>
<path d="M91.4629 61.3244H90.6729V65.6895C90.6729 65.7729 90.6913 65.8239 90.7237 65.861C90.756 65.8981 90.8115 65.912 90.8946 65.912H93.5003V65.2261H91.4629V61.3244Z" fill="#808080"/>
<path d="M101.234 61.9082C101.063 61.6951 100.846 61.5329 100.592 61.4124C100.338 61.2966 100.047 61.2363 99.7324 61.2363C99.4182 61.2363 99.1225 61.2966 98.8684 61.4124C98.6189 61.5329 98.4064 61.6997 98.2355 61.9082C98.0645 62.1168 97.9352 62.3716 97.852 62.6589C97.7642 62.9462 97.7227 63.266 97.7227 63.6135C97.7227 63.9611 97.7642 64.2854 97.852 64.5728C97.9398 64.8647 98.0692 65.1196 98.2355 65.3234C98.4064 65.532 98.6189 65.6988 98.8684 65.8146C99.1179 65.9305 99.409 65.9907 99.7324 65.9907C100.056 65.9907 100.338 65.9305 100.592 65.8146C100.846 65.6988 101.058 65.532 101.234 65.3234C101.405 65.1149 101.539 64.8601 101.631 64.5728C101.719 64.2854 101.765 63.9611 101.765 63.6089C101.765 63.2567 101.719 62.9416 101.631 62.6543C101.539 62.3624 101.405 62.1075 101.234 61.9036V61.9082ZM99.737 65.3095C99.5199 65.3095 99.3351 65.2632 99.1872 65.1752C99.0348 65.0825 98.91 64.962 98.8176 64.8091C98.7206 64.6515 98.6467 64.4708 98.6051 64.2715C98.5589 64.0677 98.5358 63.8499 98.5358 63.6228C98.5358 63.3957 98.5589 63.1826 98.6051 62.9787C98.6513 62.7748 98.7252 62.5941 98.8176 62.4365C98.9146 62.2836 99.0394 62.1585 99.1872 62.0658C99.3351 61.9778 99.5199 61.9314 99.737 61.9314C99.9541 61.9314 100.13 61.9778 100.282 62.0658C100.435 62.1585 100.559 62.2836 100.656 62.4365C100.758 62.5894 100.827 62.7748 100.874 62.9787C100.92 63.1826 100.943 63.4004 100.943 63.6228C100.943 63.9703 100.892 64.2854 100.786 64.5635C100.684 64.8323 100.513 65.0408 100.278 65.1798C100.13 65.2678 99.9449 65.3142 99.7324 65.3142L99.737 65.3095Z" fill="#808080"/>
<path d="M107.498 62.4134C107.591 62.2651 107.706 62.1446 107.849 62.0565C107.988 61.9685 108.168 61.9268 108.372 61.9268C108.473 61.9268 108.57 61.9407 108.667 61.9639C108.764 61.987 108.847 62.0287 108.926 62.089C109 62.1446 109.069 62.2187 109.12 62.316C109.171 62.4087 109.208 62.5246 109.226 62.6682L109.235 62.7238H110.021V62.659C110.007 62.4226 109.952 62.2141 109.855 62.0334C109.758 61.8573 109.633 61.709 109.48 61.5885C109.328 61.4727 109.157 61.3846 108.968 61.329C108.778 61.2734 108.579 61.2456 108.381 61.2456C108.08 61.2456 107.803 61.3058 107.558 61.4263C107.318 61.5468 107.11 61.7136 106.939 61.9268C106.773 62.1353 106.644 62.3902 106.556 62.6821C106.468 62.9694 106.422 63.2892 106.422 63.6274C106.422 63.9657 106.468 64.3086 106.556 64.6006C106.644 64.8925 106.778 65.1474 106.949 65.3559C107.124 65.5644 107.341 65.7312 107.595 65.8425C107.849 65.9537 108.145 66.0139 108.473 66.0139C108.75 66.0139 109.009 65.9722 109.24 65.8842C109.471 65.7961 109.684 65.6849 109.873 65.5505C109.965 65.4856 110.012 65.393 110.012 65.2771V63.6552C110.012 63.5718 109.993 63.5162 109.961 63.4838C109.928 63.4514 109.873 63.4328 109.79 63.4328H108.284V64.114H109.235V65.1196L109.231 65.1242C109.162 65.1659 109.065 65.2169 108.949 65.2586C108.834 65.3049 108.7 65.3235 108.542 65.3235C108.307 65.3235 108.104 65.2818 107.937 65.1937C107.771 65.1057 107.637 64.9898 107.535 64.8415C107.434 64.6932 107.355 64.5125 107.304 64.304C107.253 64.0955 107.23 63.8684 107.23 63.6321C107.23 63.3957 107.249 63.1733 107.295 62.9648C107.337 62.7609 107.406 62.5802 107.498 62.4273V62.4134Z" fill="#808080"/>
<path d="M115.856 61.3058H115.08V65.912H115.856V61.3058Z" fill="#808080"/>
<path d="M123.503 63.734C123.387 63.6413 123.253 63.5625 123.105 63.4977C122.953 63.4328 122.805 63.3772 122.657 63.3216L122.209 63.164C122.084 63.1177 121.969 63.0667 121.881 63.0065C121.793 62.9509 121.724 62.8814 121.678 62.8026C121.632 62.7238 121.609 62.6219 121.609 62.4967C121.609 62.3206 121.673 62.1863 121.807 62.0843C121.941 61.9777 122.121 61.9268 122.334 61.9268C122.422 61.9268 122.509 61.936 122.588 61.9546C122.667 61.9731 122.736 62.0055 122.801 62.0472C122.861 62.089 122.911 62.1538 122.948 62.228C122.99 62.3067 123.013 62.4087 123.018 62.5292V62.5894H123.826V62.5245C123.822 62.2558 123.766 62.0287 123.655 61.8573C123.549 61.6858 123.406 61.5468 123.235 61.4587C123.096 61.3846 122.953 61.3244 122.805 61.2919C122.533 61.227 122.135 61.2085 121.766 61.3244C121.585 61.38 121.424 61.468 121.281 61.5792C121.137 61.6951 121.022 61.8341 120.934 61.9963C120.846 62.1631 120.8 62.3531 120.8 62.5616C120.8 62.7701 120.837 62.9462 120.911 63.0899C120.985 63.2335 121.077 63.354 121.197 63.456C121.313 63.5533 121.447 63.6367 121.59 63.7016C121.733 63.7664 121.881 63.822 122.024 63.8684C122.214 63.9379 122.38 64.0028 122.519 64.0537C122.657 64.1047 122.768 64.1603 122.856 64.2159C122.939 64.2669 122.999 64.3318 123.036 64.4013C123.073 64.4708 123.092 64.5588 123.092 64.6654C123.092 64.772 123.069 64.8739 123.027 64.9481C122.985 65.0269 122.921 65.0964 122.847 65.152C122.773 65.2076 122.685 65.2447 122.593 65.2725C122.385 65.3281 122.154 65.3188 121.974 65.2817C121.881 65.2632 121.798 65.2215 121.729 65.1659C121.659 65.1103 121.609 65.0315 121.567 64.9342C121.525 64.8369 121.507 64.7025 121.512 64.5357V64.4708H120.685V64.5357C120.685 65.0037 120.832 65.3698 121.11 65.6246C121.387 65.8749 121.766 66.0046 122.242 66.0046C122.477 66.0046 122.685 65.9861 122.865 65.949C123.045 65.9119 123.23 65.8239 123.401 65.6941C123.558 65.5876 123.683 65.4393 123.771 65.2539C123.854 65.0732 123.9 64.86 123.9 64.6283C123.9 64.4198 123.863 64.2391 123.789 64.1001C123.715 63.9611 123.618 63.8406 123.503 63.7433V63.734Z" fill="#808080"/>
<path d="M128.132 62.0102H129.444V65.912H130.22V62.0102H131.523V61.3244H128.132V62.0102Z" fill="#808080"/>
<path d="M136.915 61.3058H136.139V65.912H136.915V61.3058Z" fill="#808080"/>
<path d="M144.598 64.5867C144.538 64.8647 144.436 65.0547 144.298 65.1566C144.154 65.2586 143.974 65.3095 143.762 65.3095C143.549 65.3095 143.36 65.2632 143.221 65.1705C143.078 65.0778 142.962 64.9527 142.87 64.7952C142.778 64.6376 142.713 64.4523 142.676 64.253C142.639 64.0491 142.62 63.836 142.62 63.6228C142.62 63.4096 142.639 63.2011 142.676 62.9926C142.713 62.7933 142.778 62.608 142.87 62.4504C142.958 62.2929 143.078 62.1677 143.221 62.0751C143.364 61.9824 143.549 61.9361 143.762 61.9361C143.974 61.9361 144.159 61.987 144.307 62.0936C144.45 62.1956 144.542 62.367 144.575 62.608L144.584 62.6636H145.397L145.388 62.5941C145.365 62.3577 145.3 62.1492 145.198 61.9778C145.097 61.8063 144.972 61.6626 144.824 61.5514C144.676 61.4402 144.505 61.3614 144.316 61.3105C144.131 61.2595 143.942 61.2363 143.748 61.2363C143.406 61.2363 143.11 61.3058 142.865 61.4402C142.62 61.5746 142.417 61.7553 142.26 61.9824C142.103 62.2048 141.988 62.4597 141.914 62.747C141.84 63.0297 141.803 63.3262 141.803 63.6274C141.803 63.9286 141.84 64.2345 141.914 64.5171C141.988 64.7998 142.103 65.0593 142.26 65.2771C142.417 65.4949 142.62 65.6756 142.865 65.81C143.11 65.9398 143.406 66.0093 143.743 66.0093C143.946 66.0093 144.145 65.9815 144.335 65.9212C144.524 65.861 144.695 65.7729 144.843 65.6571C144.991 65.5412 145.12 65.393 145.217 65.2169C145.319 65.0408 145.379 64.8415 145.406 64.6098V64.5403H144.607L144.598 64.5913V64.5867Z" fill="#808080"/>
<path d="M152.992 64.0908C152.923 63.9518 152.826 63.8313 152.706 63.734C152.59 63.6413 152.456 63.5579 152.309 63.4977C152.161 63.4374 152.008 63.3772 151.86 63.3216L151.412 63.164C151.283 63.1177 151.172 63.0667 151.08 63.0065C150.992 62.9509 150.923 62.8814 150.876 62.8026C150.83 62.7284 150.807 62.6265 150.807 62.4967C150.807 62.3206 150.872 62.1863 151.006 62.0843C151.144 61.9777 151.32 61.9268 151.532 61.9268C151.625 61.9268 151.708 61.936 151.791 61.9546C151.87 61.9731 151.939 62.0055 151.999 62.0472C152.059 62.089 152.11 62.1538 152.147 62.228C152.188 62.3067 152.212 62.4087 152.216 62.5292V62.5894H153.025V62.5245C153.02 62.2558 152.965 62.0287 152.854 61.8573C152.748 61.6812 152.604 61.5468 152.433 61.4587C152.295 61.3846 152.147 61.3244 152.008 61.2919C151.731 61.227 151.334 61.2085 150.969 61.3244C150.793 61.38 150.627 61.468 150.484 61.5792C150.34 61.6951 150.22 61.8341 150.133 61.9963C150.045 62.1631 149.999 62.3531 149.999 62.5616C149.999 62.7701 150.036 62.9462 150.109 63.0899C150.183 63.2335 150.276 63.354 150.396 63.456C150.511 63.5533 150.645 63.6367 150.789 63.7016C150.932 63.7664 151.075 63.822 151.223 63.8684C151.412 63.9379 151.583 64.0028 151.717 64.0537C151.851 64.1047 151.967 64.1603 152.055 64.2159C152.138 64.2669 152.198 64.3318 152.235 64.4013C152.272 64.4708 152.29 64.5588 152.29 64.6654C152.29 64.772 152.267 64.8739 152.225 64.9481C152.179 65.0269 152.119 65.0964 152.045 65.152C151.971 65.2076 151.884 65.2447 151.791 65.2725C151.579 65.3281 151.348 65.3188 151.172 65.2817C151.075 65.2632 150.997 65.2215 150.927 65.1659C150.858 65.1103 150.807 65.0315 150.766 64.9342C150.724 64.8322 150.705 64.6978 150.71 64.5357V64.4708H149.888V64.5357C149.888 65.0037 150.036 65.3698 150.313 65.6246C150.585 65.8749 150.969 66.0046 151.445 66.0046C151.68 66.0046 151.888 65.9861 152.068 65.949C152.249 65.9119 152.433 65.8239 152.604 65.6941C152.761 65.5876 152.886 65.4393 152.974 65.2539C153.062 65.0732 153.103 64.86 153.103 64.6283C153.103 64.4198 153.066 64.2391 152.992 64.1001V64.0908Z" fill="#808080"/>
<path d="M67.5861 36.4171H60V57.6265H64.3475V50.152H67.5908C70.0533 50.152 71.8043 49.5171 72.853 48.2475C73.8971 46.9778 74.4238 45.342 74.4238 43.3355C74.4238 41.329 73.9018 39.6145 72.853 38.3355C71.8043 37.0565 70.0533 36.4171 67.5908 36.4171H67.5861ZM69.2771 47.228C68.7504 48.1409 67.9419 48.595 66.8608 48.595H64.3429V38.0065H66.8608C67.9419 38.0065 68.7458 38.4699 69.2771 39.392C69.8084 40.3142 70.0717 41.6302 70.0717 43.3355C70.0717 45.0408 69.8084 46.3151 69.2771 47.228Z" fill="#171A57"/>
<path d="M80.8455 36.4171H76.498V57.6219H88.6396V55.4764H80.8455V36.4171Z" fill="#171A57"/>
<path d="M99.0855 45.3744L97.256 44.8925C96.1749 44.6145 95.3479 44.3318 94.775 44.0445C94.1975 43.7572 93.7863 43.4004 93.5322 42.9741C93.2781 42.5477 93.1534 41.987 93.1534 41.2966C93.1534 40.1891 93.4906 39.3272 94.1698 38.7016C94.8489 38.076 95.796 37.7655 97.0157 37.7655C98.2354 37.7655 99.1178 38.215 99.8109 39.114C100.43 39.9203 100.804 41.0371 100.961 42.4365H104.537C104.237 40.2447 103.479 38.6274 102.259 37.5755C101.04 36.5283 99.3026 36 97.0527 36C94.6133 36 92.7745 36.5329 91.5317 37.5894C90.2889 38.6506 89.6698 40.2308 89.6698 42.3299C89.6698 44.1742 90.0902 45.5876 90.9311 46.57C91.7673 47.5524 93.1903 48.2706 95.1908 48.734L96.8124 49.1511C97.9859 49.4291 98.8684 49.7118 99.469 49.9991C100.065 50.2864 100.49 50.6386 100.744 51.0556C100.998 51.468 101.123 52.0241 101.123 52.7146C101.123 53.8684 100.767 54.7488 100.051 55.3605C99.3396 55.9722 98.314 56.278 96.9834 56.278C95.7406 56.278 94.7519 55.8332 94.0173 54.9435C93.3613 54.1511 92.9454 53.0297 92.7468 51.607H89.2217C89.4758 53.7989 90.2335 55.4208 91.4994 56.468C92.7653 57.5199 94.5902 58.0436 96.9834 58.0436C99.3766 58.0436 101.368 57.5014 102.694 56.4171C104.015 55.3327 104.676 53.7757 104.676 51.7461C104.676 49.9481 104.251 48.5626 103.401 47.5941C102.551 46.6256 101.114 45.8888 99.0901 45.3791L99.0855 45.3744Z" fill="#171A57"/>
<path d="M124.057 54.7859C123.503 55.7312 122.56 56.2039 121.23 56.2039C120.079 56.2039 119.187 55.8888 118.554 55.2539C117.922 54.6191 117.478 53.646 117.229 52.3299C116.974 51.0139 116.85 49.253 116.85 47.038C116.85 44.823 116.974 43.0204 117.229 41.6905C117.483 40.3652 117.922 39.3874 118.554 38.7525C119.187 38.1177 120.079 37.8026 121.23 37.8026C122.38 37.8026 123.272 38.2057 123.835 39.012C124.325 39.7164 124.644 40.7081 124.815 41.95H128.372C128.141 39.9898 127.504 38.507 126.459 37.506C125.415 36.5005 123.674 36 121.234 36C119.003 36 117.252 36.4171 115.972 37.2465C114.697 38.076 113.8 39.2947 113.283 40.8981C112.766 42.5014 112.507 44.5496 112.507 47.038C112.507 49.5264 112.766 51.57 113.283 53.164C113.8 54.7535 114.697 55.9676 115.972 56.797C117.247 57.6265 119.003 58.0436 121.234 58.0436C123.027 58.0436 124.436 57.747 125.461 57.1631C126.483 56.5746 127.212 55.7637 127.651 54.7257C128.09 53.6877 128.363 52.3716 128.478 50.7822H124.953C124.893 52.5338 124.602 53.8777 124.066 54.7952L124.057 54.7859Z" fill="#262B90"/>
<path d="M144.164 42.9879C143.036 41.3939 141.059 40.6015 138.231 40.6015C135.404 40.6015 133.385 41.4031 132.248 43.0065C131.112 44.6098 130.539 46.7136 130.539 49.3179C130.539 55.1288 133.103 58.0343 138.231 58.0343C141.059 58.0343 143.036 57.2326 144.164 55.6293C145.291 54.0259 145.855 51.9221 145.855 49.3132C145.855 46.7043 145.291 44.5727 144.164 42.9833V42.9879ZM140.805 54.0723C140.31 55.2771 139.447 55.8795 138.213 55.8795C135.972 55.8795 134.854 53.6923 134.854 49.3179C134.854 47.3577 135.104 45.7729 135.603 44.5681C136.102 43.3633 136.97 42.7609 138.218 42.7609C139.465 42.7609 140.315 43.3587 140.809 44.5588C141.299 45.7544 141.549 47.3438 141.549 49.3225C141.549 51.3012 141.304 52.8675 140.809 54.0723H140.805Z" fill="#262B90"/>
<path d="M152.581 43.3726V41.0139H148.271V57.6219H152.581V48.0065C152.581 46.6673 152.955 45.6664 153.704 44.9944C154.452 44.3271 155.709 43.9889 157.478 43.9889V40.8749C156.259 40.8749 155.191 41.1761 154.272 41.7739C153.611 42.2048 153.052 42.7377 152.581 43.3679V43.3726Z" fill="#262B90"/>
<path d="M172.48 43.0065C171.468 41.4031 169.699 40.6015 167.167 40.6015C165.993 40.6015 164.797 40.949 163.577 41.6302V41.0139H159.267V65.8239H163.577V57.5153C164.681 57.8628 165.855 58.0343 167.098 58.0343C169.671 58.0343 171.468 57.2326 172.48 55.6293C173.492 54.0259 174 51.9221 174 49.3132C174 46.7043 173.492 44.6005 172.48 43.0018V43.0065ZM168.807 54.0723C168.22 55.2771 167.19 55.8795 165.721 55.8795C164.871 55.8795 164.159 55.6571 163.582 55.2122V43.3818C164.145 42.9694 164.852 42.7562 165.721 42.7562C167.19 42.7562 168.22 43.354 168.807 44.5542C169.394 45.7498 169.685 47.3392 169.685 49.3132C169.685 51.278 169.394 52.8628 168.807 54.0676V54.0723Z" fill="#262B90"/>
</g>
<path d="M115.304 99.2864L107 86H127L118.696 99.2864C117.913 100.54 116.087 100.54 115.304 99.2864Z" fill="white"/>
</g>
<defs>
<filter id="filter0_d_429_4164" x="0" y="0" width="234" height="126" filterUnits="userSpaceOnUse" color-interpolation-filters="sRGB">
<feFlood flood-opacity="0" result="BackgroundImageFix"/>
<feColorMatrix in="SourceAlpha" type="matrix" values="0 0 0 0 0 0 0 0 0 0 0 0 0 0 0 0 0 0 127 0" result="hardAlpha"/>
<feOffset dy="4"/>
<feGaussianBlur stdDeviation="10"/>
<feComposite in2="hardAlpha" operator="out"/>
<feColorMatrix type="matrix" values="0 0 0 0 0 0 0 0 0 0 0 0 0 0 0 0 0 0 0.08 0"/>
<feBlend mode="normal" in2="BackgroundImageFix" result="effect1_dropShadow_429_4164"/>
<feBlend mode="normal" in="SourceGraphic" in2="effect1_dropShadow_429_4164" result="shape"/>
</filter>
<clipPath id="clip0_429_4164">
<rect width="114" height="30" fill="white" transform="translate(60 36)"/>
</clipPath>
</defs>
</svg>
