<svg width="43" height="40" viewBox="0 0 43 40" fill="none" xmlns="http://www.w3.org/2000/svg">
<g clip-path="url(#clip0_35_161)">
<path d="M0.632812 39.3606C2.78914 39.3606 4.69884 38.1735 5.84972 36.3672C7.00061 38.1735 8.91031 39.3606 11.0666 39.3606C13.223 39.3606 15.1327 38.1735 16.2835 36.3672C17.4344 38.1735 19.3441 39.3606 21.5005 39.3606C23.6568 39.3606 25.5665 38.1735 26.7174 36.3672C27.8683 38.1735 29.778 39.3606 31.9343 39.3606C34.0906 39.3606 36.0003 38.1735 37.1512 36.3672C38.3021 38.1735 40.2118 39.3606 42.3681 39.3606" stroke="white" stroke-width="2" stroke-linecap="round" stroke-linejoin="round"/>
<path d="M14.4349 37.7985C7.73192 33.9243 4.78516 25.4162 4.78516 25.4162L21.2896 17.0039" stroke="white" stroke-width="2" stroke-linecap="round" stroke-linejoin="round"/>
<path d="M28.637 38.212C35.8901 34.5739 39.0582 25.4084 39.0582 25.4084L21.2891 16.9961" stroke="white" stroke-width="2" stroke-linecap="round" stroke-linejoin="round"/>
<path d="M25.8887 37.1288L24.9339 30.5547H18.5977L17.4531 37.6586" stroke="white" stroke-width="2" stroke-linecap="round" stroke-linejoin="round"/>
<path d="M9.48438 22.8434V10.3909C9.48438 9.82283 9.93967 9.36328 10.5025 9.36328H32.4704C33.166 9.36328 33.7351 9.93772 33.7351 10.6398V22.837" stroke="white" stroke-width="2" stroke-linecap="round" stroke-linejoin="round"/>
<path d="M19.6093 9.11286V0.636719H23.612V9.11286" stroke="white" stroke-width="2" stroke-linecap="round" stroke-linejoin="round"/>
<path d="M6.71484 29.3867L21.2906 21.9062" stroke="white" stroke-width="2" stroke-linecap="round" stroke-linejoin="round"/>
<path d="M36.8133 29.3867L21.2891 21.9062" stroke="white" stroke-width="2" stroke-linecap="round" stroke-linejoin="round"/>
<path d="M13.5234 12.5547H32.2221" stroke="white" stroke-width="2" stroke-linecap="round" stroke-linejoin="round"/>
</g>
<defs>
<clipPath id="clip0_35_161">
<rect width="43" height="40" fill="white"/>
</clipPath>
</defs>
</svg>