<svg width="56" height="56" viewBox="0 0 56 56" fill="none" xmlns="http://www.w3.org/2000/svg">
<g clip-path="url(#clip0_377_2564)">
<path d="M10.8713 41.4695V44.3266C10.8713 45.9021 9.59111 47.1838 8.01742 47.1838C6.44373 47.1838 5.16357 45.9021 5.16357 44.3266V39.0205" stroke="#15269D" stroke-width="2" stroke-linecap="round" stroke-linejoin="round"/>
<path d="M16.6768 41.4692H8.42511C6.62311 41.4692 5.16357 40.008 5.16357 38.2039V28.4488C5.16357 27.7223 5.40819 27.0121 5.85665 26.4325L10.0559 21.061H46.7482L50.9474 26.4325C51.3959 27.0039 51.6405 27.7141 51.6405 28.4488V38.2039C51.6405 40.008 50.181 41.4692 48.379 41.4692H39.8174" stroke="#15269D" stroke-width="2" stroke-linecap="round" stroke-linejoin="round"/>
<path d="M51.6408 39.0205V44.3266C51.6408 45.9021 50.3606 47.1838 48.787 47.1838C47.2133 47.1838 45.9331 45.9021 45.9331 44.3266V41.4695" stroke="#15269D" stroke-width="2" stroke-linecap="round" stroke-linejoin="round"/>
<path d="M10.0562 21.0613L13.3258 10.9062C13.8069 9.64906 15.0218 8.81641 16.3672 8.81641H40.4292C41.7828 8.81641 42.9895 9.64906 43.4706 10.9062L46.7403 21.0613" stroke="#15269D" stroke-width="2" stroke-linecap="round" stroke-linejoin="round"/>
<path d="M39.8176 38.2041H16.9868V42.5551H39.8176V38.2041Z" stroke="#15269D" stroke-width="2" stroke-linecap="round" stroke-linejoin="round"/>
<path d="M10.423 21.0614H4.71528C3.66343 21.0614 2.81543 20.2124 2.81543 19.1594C2.81543 18.1063 3.66343 17.2573 4.71528 17.2573H7.53651C8.29481 17.2573 8.98789 17.7145 9.28143 18.4083L10.4148 21.0614H10.423Z" stroke="#15269D" stroke-width="2" stroke-linecap="round" stroke-linejoin="round"/>
<path d="M46.5771 21.0614H52.2848C53.3367 21.0614 54.1847 20.2124 54.1847 19.1594C54.1847 18.1063 53.3367 17.2573 52.2848 17.2573H49.4636C48.7053 17.2573 48.0122 17.7145 47.7187 18.4083L46.5853 21.0614H46.5771Z" stroke="#15269D" stroke-width="2" stroke-linecap="round" stroke-linejoin="round"/>
<path d="M14.5406 31.0614C14.5406 32.49 13.3828 33.6491 11.9559 33.6491C10.5289 33.6491 9.37109 32.49 9.37109 31.0614C9.37109 29.6328 10.5289 28.4736 11.9559 28.4736C13.3828 28.4736 14.5406 29.6328 14.5406 31.0614Z" stroke="#15269D" stroke-width="2" stroke-linecap="round" stroke-linejoin="round"/>
<path d="M47.4249 31.0614C47.4249 32.49 46.2671 33.6491 44.8401 33.6491C43.4132 33.6491 42.2554 32.49 42.2554 31.0614C42.2554 29.6328 43.4132 28.4736 44.8401 28.4736C46.2671 28.4736 47.4249 29.6328 47.4249 31.0614Z" stroke="#15269D" stroke-width="2" stroke-linecap="round" stroke-linejoin="round"/>
<path d="M37.5019 33.5103H19.2943L17.6636 28.6123H39.1327L37.5019 33.5103Z" stroke="#15269D" stroke-width="2" stroke-linecap="round" stroke-linejoin="round"/>
<path d="M37.502 31.0615H19.2944" stroke="#15269D" stroke-width="2" stroke-linecap="round" stroke-linejoin="round"/>
</g>
<defs>
<clipPath id="clip0_377_2564">
<rect width="53" height="40" fill="white" transform="translate(2 8)"/>
</clipPath>
</defs>
</svg>
