<svg width="68" height="68" viewBox="0 0 68 68" fill="none" xmlns="http://www.w3.org/2000/svg">
<circle opacity="0.4" cx="48" cy="20" r="12" fill="#94BDE5"/>
<g clip-path="url(#clip0_368_5769)">
<path d="M18.2301 21.8289C21.0994 21.8289 23.4255 19.5052 23.4255 16.6388C23.4255 13.7724 21.0994 11.4487 18.2301 11.4487C15.3607 11.4487 13.0347 13.7724 13.0347 16.6388C13.0347 19.5052 15.3607 21.8289 18.2301 21.8289Z" stroke="#15269D" stroke-width="2" stroke-linecap="round" stroke-linejoin="round"/>
<path d="M12.063 29.8149V57.7748C12.063 59.4742 13.4423 60.8578 15.1492 60.8578C16.8503 60.8578 18.2354 59.4799 18.2354 57.7748V44.8799" stroke="#15269D" stroke-width="2" stroke-linecap="round" stroke-linejoin="round"/>
<path d="M24.3965 39.4888V57.7746C24.3965 59.474 23.0172 60.8576 21.3103 60.8576C19.6092 60.8576 18.2241 59.4797 18.2241 57.7746V44.8798" stroke="#15269D" stroke-width="2" stroke-linecap="round" stroke-linejoin="round"/>
<path d="M12.0632 41.705H11.6724C9.17815 41.705 7.14941 39.6841 7.14941 37.1867V27.8285C7.14941 24.9004 9.52298 22.5293 12.454 22.5293H22.2816" stroke="#15269D" stroke-width="2" stroke-linecap="round" stroke-linejoin="round"/>
<path d="M49.7701 21.8289C52.6395 21.8289 54.9655 19.5052 54.9655 16.6388C54.9655 13.7724 52.6395 11.4487 49.7701 11.4487C46.9008 11.4487 44.5747 13.7724 44.5747 16.6388C44.5747 19.5052 46.9008 21.8289 49.7701 21.8289Z" stroke="#15269D" stroke-width="2" stroke-linecap="round" stroke-linejoin="round"/>
<path d="M43.6035 39.4888V57.7746C43.6035 59.474 44.9828 60.8576 46.6897 60.8576C48.3909 60.8576 49.7759 59.4797 49.7759 57.7746V44.8798" stroke="#15269D" stroke-width="2" stroke-linecap="round" stroke-linejoin="round"/>
<path d="M55.9371 29.8149V57.7748C55.9371 59.4742 54.5577 60.8578 52.8509 60.8578C51.1497 60.8578 49.7646 59.4799 49.7646 57.7748V44.8799" stroke="#15269D" stroke-width="2" stroke-linecap="round" stroke-linejoin="round"/>
<path d="M45.7183 22.5293H55.5458C58.4769 22.5293 60.8504 24.9004 60.8504 27.8285V37.1867C60.8504 39.6784 58.8275 41.705 56.3275 41.705H55.9367" stroke="#15269D" stroke-width="2" stroke-linecap="round" stroke-linejoin="round"/>
<path d="M34.0001 18.4242C37.117 18.4242 39.6438 15.9001 39.6438 12.7863C39.6438 9.67261 37.117 7.14844 34.0001 7.14844C30.8832 7.14844 28.3564 9.67261 28.3564 12.7863C28.3564 15.9001 30.8832 18.4242 34.0001 18.4242Z" stroke="#15269D" stroke-width="2" stroke-linecap="round" stroke-linejoin="round"/>
<path d="M27.293 27.1108V57.5049C27.293 59.3536 28.793 60.8521 30.6435 60.8521C32.4941 60.8521 33.9941 59.3536 33.9941 57.5049V43.4848" stroke="#15269D" stroke-width="2" stroke-linecap="round" stroke-linejoin="round"/>
<path d="M40.7065 27.1108V57.5049C40.7065 59.3536 39.2065 60.8521 37.3559 60.8521C35.5054 60.8521 34.0054 59.3536 34.0054 57.5049V43.4848" stroke="#15269D" stroke-width="2" stroke-linecap="round" stroke-linejoin="round"/>
<path d="M27.2932 40.034H26.8679C24.1553 40.034 21.9541 37.8351 21.9541 35.1253V24.9518C21.9541 21.7712 24.5346 19.1934 27.7185 19.1934H40.2759C43.4598 19.1934 46.0403 21.7712 46.0403 24.9518V35.1253C46.0403 37.8351 43.8392 40.034 41.1265 40.034H40.7012" stroke="#15269D" stroke-width="2" stroke-linecap="round" stroke-linejoin="round"/>
</g>
<defs>
<clipPath id="clip0_368_5769">
<rect width="56" height="56" fill="white" transform="translate(6 6)"/>
</clipPath>
</defs>
</svg>
