<svg width="14" height="14" viewBox="0 0 14 14" fill="none" xmlns="http://www.w3.org/2000/svg">
<path d="M10.6305 1.07734L12.9227 3.37009C13.0258 3.47321 13.0258 3.64114 12.9227 3.74393L11.592 5.0746L8.92501 2.40867L10.2564 1.07734C10.3595 0.974221 10.5268 0.974221 10.6305 1.07734ZM11.2178 5.44975L4.58201 12.0845C4.54207 12.1244 4.49198 12.1493 4.43895 12.1578C4.30997 12.1932 2.89679 12.5706 2.89777 12.5716L1.33138 12.9909C1.19029 13.0289 1.04658 12.9444 1.00861 12.8043C0.996496 12.7568 0.997478 12.7097 1.00959 12.6662L1.42795 11.1027L1.43253 11.087L1.84827 9.53638C1.86137 9.4899 1.88461 9.44996 1.91603 9.41853V9.41755L8.55085 2.78283L11.2178 5.44975Z" fill="white"/>
</svg>
