<svg width="40" height="40" viewBox="0 0 40 40" fill="none" xmlns="http://www.w3.org/2000/svg">
<g clip-path="url(#clip0_317_1439)">
<path d="M19.9999 33.0667C19.8011 33.0667 19.6123 32.9865 19.4732 32.8462L12.0475 25.3581C9.92444 23.2173 8.75195 20.3683 8.75195 17.339C8.75195 14.3097 9.92113 11.4641 12.0475 9.31988C14.1739 7.17899 16.9958 6 19.9999 6C23.0039 6 25.8258 7.17899 27.9522 9.32322C30.0753 11.4641 31.2477 14.313 31.2477 17.3424C31.2477 20.3717 30.0786 23.2173 27.9522 25.3615L20.5265 32.8496C20.3874 32.9899 20.1986 33.07 19.9999 33.07V33.0667ZM19.9999 7.50296C17.3932 7.50296 14.9456 8.52498 13.1007 10.3853C11.2592 12.2423 10.2424 14.7138 10.2424 17.3424C10.2424 19.9709 11.2559 22.4391 13.1007 24.2994L19.9999 31.2564L26.899 24.2994C28.7405 22.4424 29.7573 19.9709 29.7573 17.3424C29.7573 14.7138 28.7438 12.2456 26.899 10.3853C25.0574 8.52832 22.6065 7.50296 19.9999 7.50296Z" fill="white"/>
<path d="M32.2548 33.0667H7.74522C7.33452 33.0667 7 32.7293 7 32.3152C7 31.901 7.33452 31.5637 7.74522 31.5637H32.2548C32.6655 31.5637 33 31.901 33 32.3152C33 32.7293 32.6655 33.0667 32.2548 33.0667Z" fill="white"/>
<path d="M20 21.8512C18.8044 21.8512 17.6816 21.3803 16.837 20.5286C15.9924 19.6769 15.5254 18.5447 15.5254 17.339C15.5254 16.1333 15.9891 15.0011 16.837 14.1494C17.6816 13.2977 18.8044 12.8268 20 12.8268C21.1957 12.8268 22.3185 13.2944 23.1631 14.1494C24.0077 15.0011 24.4747 16.1333 24.4747 17.339C24.4747 18.5447 24.0077 19.6769 23.1631 20.5286C22.3185 21.3803 21.1957 21.8512 20 21.8512ZM20 14.3331C19.2018 14.3331 18.4533 14.647 17.8902 15.2148C17.3272 15.7826 17.0158 16.5374 17.0158 17.3423C17.0158 18.1473 17.3272 18.9021 17.8902 19.4699C18.4533 20.0377 19.2018 20.3516 20 20.3516C20.7983 20.3516 21.5468 20.0377 22.1098 19.4699C22.6729 18.9021 22.9842 18.1473 22.9842 17.3423C22.9842 16.5374 22.6729 15.7826 22.1098 15.2148C21.5468 14.647 20.7983 14.3331 20 14.3331Z" fill="white"/>
</g>
<defs>
<clipPath id="clip0_317_1439">
<rect width="26" height="28" fill="white" transform="translate(7 6)"/>
</clipPath>
</defs>
</svg>
