<svg width="61" height="56" viewBox="0 0 61 56" fill="none" xmlns="http://www.w3.org/2000/svg">
<g clip-path="url(#clip0_377_2613)">
<path d="M38.3194 14.9895L34.2197 19.103L48.1354 33.0656L52.2351 28.9521L38.3194 14.9895Z" fill="#F6F8FA" stroke="#15269D" stroke-width="2" stroke-linecap="round" stroke-linejoin="round"/>
<path d="M32.0998 9.4319L34.3771 11.7168L34.4707 15.2403L30.959 15.1464L28.6817 12.8615C27.7013 15.2001 28.1559 18.0082 30.0543 19.913C32.5588 22.426 36.6187 22.426 39.1232 19.913C41.6277 17.4001 41.6277 13.3266 39.1232 10.8136C37.2248 8.90874 34.4261 8.44818 32.0954 9.43638L32.0998 9.4319Z" fill="#F6F8FA" stroke="#15269D" stroke-width="2" stroke-linecap="round" stroke-linejoin="round"/>
<path d="M55.2509 39.5157L52.9736 37.2308L52.8801 33.7073L56.3918 33.8012L58.669 36.0861C59.6494 33.7476 59.1949 30.9395 57.2964 29.0346C54.7919 26.5217 50.732 26.5217 48.2275 29.0346C45.723 31.5476 45.723 35.6211 48.2275 38.1341C50.126 40.0389 52.9246 40.4995 55.2554 39.5113L55.2509 39.5157Z" fill="#F6F8FA" stroke="#15269D" stroke-width="2" stroke-linecap="round" stroke-linejoin="round"/>
<path d="M41.3562 39.1317C42.9605 40.7414 42.9605 43.3528 41.3562 44.9625C39.7519 46.5722 37.1493 46.5722 35.545 44.9625L15.0631 24.4116C13.4588 22.8019 13.4588 20.1906 15.0631 18.5808C16.6674 16.9711 19.27 16.9711 20.8743 18.5808L41.3562 39.1317Z" stroke="#15269D" stroke-width="2" stroke-linecap="round" stroke-linejoin="round"/>
<path d="M18.3696 1.82617L15.8562 4.34808L16.0612 7.50494C16.0612 7.50494 14.644 9.11914 12.1841 7.97891L4.9022 15.2853C4.9022 15.2853 -1.80922 23.7274 4.61699 30.1798C4.61699 30.1798 5.46817 23.8258 9.06008 20.2173L13.316 24.4876L20.785 16.9934C20.785 16.9934 18.4231 14.0512 20.4998 11.9675L23.5079 12.0345L26.0214 9.51263V6.78503L23.6327 4.38832L23.4678 4.22288L21.0791 1.82617H18.3607H18.3696Z" fill="#F6F8FA" stroke="#15269D" stroke-width="2" stroke-linecap="round" stroke-linejoin="round"/>
</g>
<defs>
<clipPath id="clip0_377_2613">
<rect width="61" height="48" fill="white"/>
</clipPath>
</defs>
</svg>
