<svg width="40" height="40" viewBox="0 0 40 40" fill="none" xmlns="http://www.w3.org/2000/svg">
<g clip-path="url(#clip0_429_4037)">
<path d="M17.3214 26.6752C12.7014 25.4721 9.28564 21.2202 9.28564 16.1605C9.28564 10.1627 14.0814 5.30273 19.9999 5.30273C25.9185 5.30273 30.7142 10.1627 30.7142 16.1605C30.7142 21.2767 27.2214 25.5677 22.5242 26.7142" stroke="white" stroke-width="2" stroke-linecap="round" stroke-linejoin="round"/>
<path d="M24.8001 26.7144H15.1958C14.6656 26.7144 14.2358 27.1499 14.2358 27.6872V31.583C14.2358 32.1203 14.6656 32.5558 15.1958 32.5558H24.8001C25.3303 32.5558 25.7601 32.1203 25.7601 31.583V27.6872C25.7601 27.1499 25.3303 26.7144 24.8001 26.7144Z" stroke="white" stroke-width="2" stroke-linecap="round" stroke-linejoin="round"/>
<path d="M21.7872 32.8862C21.7872 33.8851 20.9857 34.6973 20 34.6973C19.0143 34.6973 18.2129 33.8851 18.2129 32.8862" stroke="white" stroke-width="2" stroke-linecap="round" stroke-linejoin="round"/>
<path d="M26.5657 15.4877C26.5657 12.4606 24.1528 9.99805 21.1914 9.99805" stroke="white" stroke-width="2" stroke-linecap="round" stroke-linejoin="round"/>
</g>
<defs>
<clipPath id="clip0_429_4037">
<rect width="24" height="32" fill="white" transform="translate(8 4)"/>
</clipPath>
</defs>
</svg>
