<svg width="56" height="56" viewBox="0 0 56 56" fill="none" xmlns="http://www.w3.org/2000/svg">
<g clip-path="url(#clip0_377_2539)">
<path d="M37.7989 17.1549V15.7875C37.7989 10.378 33.3867 5.94727 27.9998 5.94727C22.6129 5.94727 18.2007 10.378 18.2007 15.7875V17.1549" stroke="#15269D" stroke-width="2" stroke-linecap="round" stroke-linejoin="round"/>
<path d="M49.3914 17.1548H6.60868C5.68409 17.1548 4.93457 17.9075 4.93457 18.8359V48.3717C4.93457 49.3002 5.68409 50.0528 6.60868 50.0528H49.3914C50.316 50.0528 51.0655 49.3002 51.0655 48.3717V18.8359C51.0655 17.9075 50.316 17.1548 49.3914 17.1548Z" stroke="#15269D" stroke-width="2" stroke-linecap="round" stroke-linejoin="round"/>
<path d="M30.3735 35.9385V36.9397C30.3735 38.2547 29.3095 39.3232 28 39.3232C26.6905 39.3232 25.6265 38.2547 25.6265 36.9397V35.9833" stroke="#15269D" stroke-width="2" stroke-linecap="round" stroke-linejoin="round"/>
<path d="M31.6981 31.7021H24.3022V35.8938H31.6981V31.7021Z" stroke="#15269D" stroke-width="2" stroke-linecap="round" stroke-linejoin="round"/>
<path d="M25.7979 31.7024V26.0015C25.7979 25.471 26.2294 25.0376 26.7577 25.0376H29.2577C29.7859 25.0376 30.2175 25.471 30.2175 26.0015V31.7024" stroke="#15269D" stroke-width="2" stroke-linecap="round" stroke-linejoin="round"/>
<path d="M30.3882 29.0049H51.0653" stroke="#15269D" stroke-width="2" stroke-linecap="round" stroke-linejoin="round"/>
<path d="M4.93457 29.0049H25.6786" stroke="#15269D" stroke-width="2" stroke-linecap="round" stroke-linejoin="round"/>
<path d="M43.997 29.0049V44.053H12.0029V29.0049" stroke="#15269D" stroke-width="2" stroke-linecap="round" stroke-linejoin="round"/>
</g>
<defs>
<clipPath id="clip0_377_2539">
<rect width="50" height="48" fill="white" transform="translate(3 4)"/>
</clipPath>
</defs>
</svg>
