<svg width="64" height="64" viewBox="0 0 64 64" fill="none" xmlns="http://www.w3.org/2000/svg">
<g clip-path="url(#clip0_364_3190)">
<path d="M56.2364 55.0728L51.839 47.7148H11.6963L8.1709 55.0728H56.2364Z" stroke="#15269D" stroke-width="2" stroke-linecap="round" stroke-linejoin="round"/>
<path d="M33.7305 37.9106C33.7305 37.9106 49.641 34.4819 53.3333 10.5547" stroke="#15269D" stroke-width="2" stroke-linecap="round" stroke-linejoin="round"/>
<path d="M36.8755 36.5293C36.8755 36.5293 33.4337 30.1444 38.3692 24.4082C38.3692 24.4082 42.8223 29.7274 39.6123 35.0466" stroke="#15269D" stroke-width="2" stroke-linecap="round" stroke-linejoin="round"/>
<path d="M38.3223 36.1591C38.3223 36.1591 43.1186 41.1633 50.2436 38.6241C50.2436 38.6241 46.978 32.786 40.5488 34.454" stroke="#15269D" stroke-width="2" stroke-linecap="round" stroke-linejoin="round"/>
<path d="M44.8721 30.8112C44.8721 30.8112 50.4292 34.5736 57.0067 30.7278C57.0067 30.7278 52.6 25.6959 46.5513 28.5501" stroke="#15269D" stroke-width="2" stroke-linecap="round" stroke-linejoin="round"/>
<path d="M48.9639 24.7979C48.9639 24.7979 55.5322 27.2907 60.9687 21.9623C60.9687 21.9623 55.4394 18.0609 50.272 22.3144" stroke="#15269D" stroke-width="2" stroke-linecap="round" stroke-linejoin="round"/>
<path d="M51.71 18.1894C51.71 18.1894 58.5195 18.764 62.0727 12.1474C62.0727 12.1474 56.1723 10.3311 52.4521 15.363" stroke="#15269D" stroke-width="2" stroke-linecap="round" stroke-linejoin="round"/>
<path d="M44.9471 30.0141C44.9471 30.0141 39.7982 25.4085 42.5628 18.2637C42.5628 18.2637 48.2498 21.9797 46.9603 27.6418" stroke="#15269D" stroke-width="2" stroke-linecap="round" stroke-linejoin="round"/>
<path d="M50.049 21.6286C50.049 21.6286 44.0187 17.9589 45.1784 10.4805C45.1784 10.4805 51.5797 12.5285 51.1437 19.145" stroke="#15269D" stroke-width="2" stroke-linecap="round" stroke-linejoin="round"/>
<path d="M52.2391 12.7411C52.2391 12.7411 46.0326 8.51539 48.1756 0.925781C48.1756 0.925781 54.2801 4.04873 53.3338 10.5541" stroke="#15269D" stroke-width="2" stroke-linecap="round" stroke-linejoin="round"/>
<path d="M30.2699 37.9106C30.2699 37.9106 14.3593 34.4819 10.667 10.5547" stroke="#15269D" stroke-width="2" stroke-linecap="round" stroke-linejoin="round"/>
<path d="M27.1244 36.5293C27.1244 36.5293 30.5662 30.1444 25.6307 24.4082C25.6307 24.4082 21.1776 29.7274 24.3876 35.0466" stroke="#15269D" stroke-width="2" stroke-linecap="round" stroke-linejoin="round"/>
<path d="M25.6772 36.1591C25.6772 36.1591 20.8808 41.1633 13.7559 38.6241C13.7559 38.6241 17.0215 32.786 23.4506 34.454" stroke="#15269D" stroke-width="2" stroke-linecap="round" stroke-linejoin="round"/>
<path d="M19.1366 30.8112C19.1366 30.8112 13.5795 34.5736 7.00195 30.7278C7.00195 30.7278 11.4087 25.6959 17.4574 28.5501" stroke="#15269D" stroke-width="2" stroke-linecap="round" stroke-linejoin="round"/>
<path d="M15.036 24.7979C15.036 24.7979 8.46773 27.2907 3.03125 21.9623C3.03125 21.9623 8.5605 18.0609 13.7279 22.3144" stroke="#15269D" stroke-width="2" stroke-linecap="round" stroke-linejoin="round"/>
<path d="M12.2904 18.1894C12.2904 18.1894 5.48093 18.764 1.92773 12.1474C1.92773 12.1474 7.82808 10.3311 11.5483 15.363" stroke="#15269D" stroke-width="2" stroke-linecap="round" stroke-linejoin="round"/>
<path d="M19.0628 30.0141C19.0628 30.0141 24.2117 25.4085 21.4471 18.2637C21.4471 18.2637 15.7601 21.9797 17.0497 27.6418" stroke="#15269D" stroke-width="2" stroke-linecap="round" stroke-linejoin="round"/>
<path d="M13.951 21.6286C13.951 21.6286 19.9812 17.9589 18.8216 10.4805C18.8216 10.4805 12.4202 12.5285 12.8563 19.145" stroke="#15269D" stroke-width="2" stroke-linecap="round" stroke-linejoin="round"/>
<path d="M11.7618 12.7411C11.7618 12.7411 17.9682 8.51539 15.8252 0.925781C15.8252 0.925781 9.72076 4.04873 10.667 10.5541" stroke="#15269D" stroke-width="2" stroke-linecap="round" stroke-linejoin="round"/>
<path d="M27.1709 47.095L29.9541 37.8281" stroke="#15269D" stroke-width="2" stroke-linecap="round" stroke-linejoin="round"/>
<path d="M34.1289 37.8281L36.7544 47.095" stroke="#15269D" stroke-width="2" stroke-linecap="round" stroke-linejoin="round"/>
<path d="M31.8095 37.9858C33.859 37.9858 35.5204 36.3262 35.5204 34.279C35.5204 32.2318 33.859 30.5723 31.8095 30.5723C29.7601 30.5723 28.0986 32.2318 28.0986 34.279C28.0986 36.3262 29.7601 37.9858 31.8095 37.9858Z" stroke="#15269D" stroke-width="2" stroke-linecap="round" stroke-linejoin="round"/>
</g>
<defs>
<clipPath id="clip0_364_3190">
<rect width="62" height="56" fill="white" transform="translate(1)"/>
</clipPath>
</defs>
</svg>
