<svg width="80" height="80" viewBox="0 0 80 80" fill="none" xmlns="http://www.w3.org/2000/svg">
<path d="M44.3716 47.7096L41.0608 50.0552L30.4944 35.2051L33.8051 32.8595C34.7074 32.221 35.0029 31.0187 34.4999 30.035L29.8429 20.9331C29.2246 19.7251 27.6766 19.3454 26.5682 20.1306C20.3157 24.5586 18.8455 33.2061 23.2848 39.4447L34.6714 55.4467C39.1107 61.6853 47.7775 63.1508 54.0285 58.7228C55.1369 57.9376 55.2883 56.3542 54.35 55.3734L47.2716 47.9857C46.5076 47.1875 45.2724 47.0696 44.3701 47.7096H44.3716Z" stroke="white" stroke-width="2.5" stroke-linecap="round" stroke-linejoin="round"/>
<path d="M44.9957 20.8105C54.7434 22.8872 60.9585 32.4551 58.8772 42.1811" stroke="white" stroke-width="2.5" stroke-linecap="round" stroke-linejoin="round"/>
<path d="M44.9957 28.2314C50.4468 29.392 53.9219 34.7433 52.7587 40.1823" stroke="white" stroke-width="2.5" stroke-linecap="round" stroke-linejoin="round"/>
</svg>
