<svg width="100" height="100" viewBox="0 0 100 100" fill="none" xmlns="http://www.w3.org/2000/svg">
<circle opacity="0.4" cx="75" cy="31" r="12" fill="#94BDE5"/>
<path d="M64.8424 59.5186L38.6674 74.4865" stroke="#15269D" stroke-width="2" stroke-linecap="round" stroke-linejoin="round"/>
<path d="M41.4019 37.2588L64.0062 53.1211" stroke="#15269D" stroke-width="2" stroke-linecap="round" stroke-linejoin="round"/>
<path d="M20.0103 37.2033H52.871V26.115H46.2367L44.7928 22.5156C44.2153 21.0788 42.5863 19.9902 41.0092 19.9902H33.8639C32.3534 19.9902 30.6726 20.9626 29.947 22.2543L27.7775 26.115H24.3196C21.9502 26.115 20.0177 28.009 20.0177 30.3311V37.2033H20.0103Z" fill="#F6F8FA" stroke="#15269D" stroke-width="2" stroke-linecap="round" stroke-linejoin="round"/>
<path d="M41.927 37.2687C41.927 39.2934 43.6004 40.9262 45.6589 40.9262C47.7173 40.9262 49.3907 39.2861 49.3907 37.2687C49.3907 35.2514 47.7173 33.6113 45.6589 33.6113C43.6004 33.6113 41.927 35.2514 41.927 37.2687Z" fill="#F6F8FA" stroke="#15269D" stroke-width="2" stroke-linecap="round" stroke-linejoin="round"/>
<path d="M23.8381 37.2687C23.8381 39.2934 25.5115 40.9262 27.5699 40.9262C29.6283 40.9262 31.3017 39.2861 31.3017 37.2687C31.3017 35.2514 29.6283 33.6113 27.5699 33.6113C25.5115 33.6113 23.8381 35.2514 23.8381 37.2687Z" fill="#F6F8FA" stroke="#15269D" stroke-width="2" stroke-linecap="round" stroke-linejoin="round"/>
<path d="M71.6886 52.3448C76.3609 52.6101 79.9316 54.104 79.9316 55.9025C79.9316 57.8976 75.5642 59.5094 70.1836 59.5094C64.803 59.5094 60.4356 57.8976 60.4356 55.9025C60.4356 54.104 64.0161 52.6101 68.6885 52.335" stroke="#15269D" stroke-width="2" stroke-linecap="round" stroke-linejoin="round"/>
<path d="M77.4725 38.8706C77.4725 42.8214 70.3115 54.6936 70.3115 54.6936C70.3115 54.6936 63.1505 42.8214 63.1505 38.8706C63.1505 34.9197 66.3572 31.7158 70.3115 31.7158C74.2658 31.7158 77.4725 34.9197 77.4725 38.8706Z" stroke="#15269D" stroke-width="2" stroke-linecap="round" stroke-linejoin="round"/>
<path d="M70.3115 41.799C72.0228 41.799 73.41 40.413 73.41 38.7032C73.41 36.9935 72.0228 35.6074 70.3115 35.6074C68.6003 35.6074 67.213 36.9935 67.213 38.7032C67.213 40.413 68.6003 41.799 70.3115 41.799Z" stroke="#15269D" stroke-width="2" stroke-linecap="round" stroke-linejoin="round"/>
<path d="M34.6147 73.7892C39.0707 74.1233 42.4249 75.5779 42.4249 77.3272C42.4249 79.3223 38.0575 80.9341 32.677 80.9341C27.2964 80.9341 22.929 79.3223 22.929 77.3272C22.929 75.5386 26.4701 74.0447 31.1031 73.7695" stroke="#15269D" stroke-width="2" stroke-linecap="round" stroke-linejoin="round"/>
<path d="M39.9658 60.2856C39.9658 64.2365 32.8048 76.1086 32.8048 76.1086C32.8048 76.1086 25.6438 64.2365 25.6438 60.2856C25.6438 56.3348 28.8505 53.1309 32.8048 53.1309C36.7591 53.1309 39.9658 56.3348 39.9658 60.2856Z" stroke="#15269D" stroke-width="2" stroke-linecap="round" stroke-linejoin="round"/>
<path d="M32.8048 63.2141C34.5161 63.2141 35.9033 61.828 35.9033 60.1183C35.9033 58.4085 34.5161 57.0225 32.8048 57.0225C31.0935 57.0225 29.7063 58.4085 29.7063 60.1183C29.7063 61.828 31.0935 63.2141 32.8048 63.2141Z" stroke="#15269D" stroke-width="2" stroke-linecap="round" stroke-linejoin="round"/>
</svg>
