<svg width="68" height="68" viewBox="0 0 68 68" fill="none" xmlns="http://www.w3.org/2000/svg">
<circle opacity="0.4" cx="48" cy="20" r="12" fill="#94BDE5"/>
<g clip-path="url(#clip0_368_5834)">
<path d="M29.6609 14.045L12.1539 44.1468C10.2248 47.4601 12.6377 51.6077 16.4898 51.6077H51.5098C55.368 51.6077 57.7748 47.4661 55.8457 44.1468L38.3387 14.045C36.4097 10.7317 31.59 10.7317 29.6609 14.045Z" fill="white" stroke="#15269D" stroke-width="2" stroke-linecap="round" stroke-linejoin="round"/>
<path d="M22.7674 48.6065C25.8701 48.6065 28.3853 46.1099 28.3853 43.0303C28.3853 39.9506 25.8701 37.4541 22.7674 37.4541C19.6647 37.4541 17.1494 39.9506 17.1494 43.0303C17.1494 46.1099 19.6647 48.6065 22.7674 48.6065Z" stroke="#15269D" stroke-width="2" stroke-linecap="round" stroke-linejoin="round"/>
<path d="M33.9969 48.6065C37.0996 48.6065 39.6148 46.1099 39.6148 43.0303C39.6148 39.9506 37.0996 37.4541 33.9969 37.4541C30.8941 37.4541 28.3789 39.9506 28.3789 43.0303C28.3789 46.1099 30.8941 48.6065 33.9969 48.6065Z" fill="white" stroke="#15269D" stroke-width="2" stroke-linecap="round" stroke-linejoin="round"/>
<path d="M33.9969 29.2852C37.0996 29.2852 39.6148 26.7886 39.6148 23.709C39.6148 20.6294 37.0996 18.1328 33.9969 18.1328C30.8941 18.1328 28.3789 20.6294 28.3789 23.709C28.3789 26.7886 30.8941 29.2852 33.9969 29.2852Z" fill="white" stroke="#15269D" stroke-width="2" stroke-linecap="round" stroke-linejoin="round"/>
<path d="M28.385 38.961C31.4877 38.961 34.003 36.4644 34.003 33.3848C34.003 30.3051 31.4877 27.8086 28.385 27.8086C25.2823 27.8086 22.7671 30.3051 22.7671 33.3848C22.7671 36.4644 25.2823 38.961 28.385 38.961Z" stroke="#15269D" stroke-width="2" stroke-linecap="round" stroke-linejoin="round"/>
<path d="M45.233 33.3906C45.233 34.297 45.0153 35.1493 44.6343 35.8996C43.709 37.7183 41.8102 38.9668 39.615 38.9668C37.4198 38.9668 35.521 37.7183 34.6018 35.8996C34.2148 35.1493 33.9971 34.297 33.9971 33.3906C33.9971 32.4843 34.2148 31.6319 34.6018 30.8817C35.521 29.0629 37.4198 27.8145 39.615 27.8145C41.8102 27.8145 43.709 29.0629 44.6343 30.8817C45.0153 31.6319 45.233 32.4843 45.233 33.3906Z" fill="white" stroke="#15269D" stroke-width="2" stroke-linecap="round" stroke-linejoin="round"/>
<path d="M45.2327 48.6065C48.3354 48.6065 50.8506 46.1099 50.8506 43.0303C50.8506 39.9506 48.3354 37.4541 45.2327 37.4541C42.13 37.4541 39.6147 39.9506 39.6147 43.0303C39.6147 46.1099 42.13 48.6065 45.2327 48.6065Z" stroke="#15269D" stroke-width="2" stroke-linecap="round" stroke-linejoin="round"/>
<path d="M9.32283 56.4371L60.4341 17.6221L58.6886 15.3577L7.57736 54.1727L9.32283 56.4371Z" fill="white" stroke="#15269D" stroke-width="2" stroke-linecap="round" stroke-linejoin="round"/>
<path d="M57.7617 19.6493L60.4272 17.625L58.6818 15.3606L56.0162 17.3849L57.7617 19.6493Z" fill="white" stroke="#15269D" stroke-width="2" stroke-linecap="round" stroke-linejoin="round"/>
<path d="M9.31584 56.4358L25.751 43.9546L24.0055 41.6902L7.57038 54.1714L9.31584 56.4358Z" stroke="#15269D" stroke-width="2" stroke-linecap="round" stroke-linejoin="round"/>
</g>
<defs>
<clipPath id="clip0_368_5834">
<rect width="56" height="48" fill="white" transform="translate(6 10)"/>
</clipPath>
</defs>
</svg>
