<svg width="80" height="80" viewBox="0 0 80 80" fill="none" xmlns="http://www.w3.org/2000/svg">
<circle opacity="0.4" cx="64" cy="16" r="12" fill="#94BDE5"/>
<g clip-path="url(#clip0_429_4834)">
<path d="M40 64.1689C25.0904 64.1689 12.9578 52.0189 12.9578 37.0881C12.9578 22.1572 25.0904 10 40 10C54.9096 10 67.0495 22.15 67.0495 37.0808C67.0495 52.0117 54.9169 64.1616 40 64.1616V64.1689ZM40 12.1839C26.2899 12.1839 15.1386 23.3511 15.1386 37.0808C15.1386 50.8105 26.2899 61.9777 40 61.9777C53.7102 61.9777 64.8687 50.8105 64.8687 37.0808C64.8687 23.3511 53.7102 12.1839 40 12.1839Z" fill="#15269D"/>
<path d="M49.6392 40.9685L38.3498 47.4912C37.4121 48.0372 36.2053 47.7096 35.6601 46.7705C35.1149 45.8314 35.442 44.623 36.3798 44.077L44.0781 39.6217L44.0563 39.5854L34.2862 45.2345C33.3484 45.7805 32.1417 45.4529 31.5965 44.5138C31.0513 43.5674 31.3784 42.3662 32.3162 41.8202L42.0863 36.1711L42.0645 36.1347L33.7773 40.9248C32.8396 41.4708 31.6329 41.1432 31.0877 40.2041C30.5425 39.265 30.8696 38.0566 31.8073 37.5106L40.7269 32.3492L40.7051 32.3128L35.6238 35.2539C34.686 35.7999 33.4793 35.4723 32.9341 34.5332C32.3889 33.5941 32.716 32.3856 33.6538 31.8397L43.9109 25.9139C43.9109 25.9139 47.8582 23.5407 51.8637 24.6763L54.8877 22.9292L60.7687 33.1282L57.7446 34.8753C57.7446 34.8753 57.3303 38.1876 54.5752 42.5191C53.9282 43.5383 51.6092 46.5958 51.6092 46.5958C51.6092 46.5958 50.388 48.5832 48.905 47.3674C47.4221 46.159 49.0577 44.2226 49.0577 44.2226C49.0577 44.2226 50.1699 42.3953 49.632 40.9467L49.6392 40.9685Z" fill="white"/>
<path d="M49.8936 48.8742C49.2975 48.8742 48.7378 48.6631 48.2217 48.2408C47.6256 47.7531 47.2766 47.1125 47.2112 46.3918C47.0949 45.1105 47.9018 43.9603 48.1635 43.6254C48.2507 43.4653 48.3816 43.2032 48.4906 42.8902L38.895 48.4374C38.4298 48.7067 37.8991 48.8451 37.3684 48.8451C36.278 48.8451 35.2603 48.2554 34.7151 47.3163C34.5479 47.0251 34.4316 46.7121 34.3662 46.4063C34.0318 46.5301 33.6683 46.5956 33.3048 46.5956C32.2144 46.5956 31.1967 46.0059 30.6515 45.0668C30.0045 43.953 30.1499 42.5917 30.8986 41.6381C30.5933 41.3978 30.3389 41.1066 30.1426 40.7645C29.7355 40.0584 29.6265 39.2285 29.8373 38.4422C30.0481 37.6487 30.557 36.9936 31.2621 36.5859L32.5779 35.8288C32.3525 35.6177 32.149 35.3774 31.9963 35.1008C31.1531 33.6376 31.6547 31.7594 33.1158 30.9149L43.373 24.9892C43.4747 24.931 46.2226 23.3003 49.5811 23.3003C50.308 23.3003 51.0277 23.3804 51.7037 23.5332L54.3425 22.0045C54.5897 21.8589 54.8877 21.8225 55.1712 21.8953C55.4475 21.9681 55.6874 22.1501 55.8328 22.4049L61.7137 32.6039C61.8591 32.8514 61.8955 33.1498 61.8228 33.4337C61.7501 33.7104 61.5683 33.9506 61.3139 34.0962L58.726 35.5886C58.4861 36.7533 57.7155 39.6288 55.4911 43.1304C54.8587 44.1278 52.7796 46.8868 52.5034 47.2508C52.2925 47.5711 51.3475 48.8815 49.8864 48.8815L49.8936 48.8742ZM49.6392 39.8764C49.7628 39.8764 49.8864 39.8982 50.01 39.9419C50.3153 40.0511 50.5479 40.284 50.6642 40.5898C51.3693 42.4825 50.1481 44.5864 50.0027 44.8193C49.9736 44.8703 49.9373 44.914 49.9009 44.9577C49.7192 45.176 49.3484 45.7803 49.3848 46.1952C49.392 46.2899 49.4284 46.4063 49.6029 46.5519C49.6828 46.6174 49.7991 46.6975 49.9009 46.6975C50.1553 46.6975 50.5552 46.268 50.686 46.0496C50.7078 46.0205 50.7224 45.9914 50.7442 45.9623C50.766 45.9331 53.0413 42.9266 53.6592 41.9584C56.2326 37.9181 56.6615 34.7878 56.6687 34.7587C56.7124 34.4238 56.9086 34.118 57.2067 33.9506L59.293 32.7494L54.5025 24.4359L52.4234 25.6371C52.169 25.7827 51.8637 25.8264 51.5801 25.739C50.955 25.5643 50.2862 25.4697 49.5956 25.4697C46.8332 25.4697 44.5143 26.8455 44.4925 26.8601L34.2208 32.8004C33.7991 33.0406 33.6537 33.5793 33.9009 34.0016C34.1335 34.402 34.686 34.5621 35.1004 34.3219L40.1817 31.3808C40.6978 31.0824 41.3593 31.2571 41.6647 31.774C41.81 32.0215 41.8609 32.3418 41.7882 32.6257C41.7155 32.9096 41.5411 33.1644 41.2866 33.31L32.3671 38.4641C32.1635 38.5806 32.0181 38.7698 31.96 38.9955C31.9018 39.2212 31.9309 39.4614 32.0472 39.6652C32.2798 40.0729 32.8396 40.2258 33.2467 39.9856L41.5338 35.1955C42.0499 34.897 42.7114 35.0644 43.0168 35.5813C43.1694 35.8288 43.2203 36.1491 43.1476 36.433C43.0749 36.7169 42.9005 36.979 42.646 37.1246L32.8759 42.7737C32.4543 43.0139 32.3162 43.5527 32.5561 43.9749C32.7887 44.3753 33.3484 44.5354 33.7555 44.2952L43.5256 38.6461C43.7801 38.5005 44.0781 38.4641 44.3616 38.5369C44.6451 38.617 44.885 38.799 45.0231 39.0537C45.3139 39.5779 45.154 40.2695 44.6378 40.5679L36.9395 45.0232C36.5179 45.2634 36.3725 45.8021 36.6197 46.2243C36.8523 46.6247 37.4048 46.7849 37.8191 46.5446L49.1085 40.022C49.2757 39.9273 49.4647 39.8764 49.6537 39.8764H49.6392Z" fill="#15269D"/>
<path d="M70.9096 30.2959L59.3585 36.9787L50.8678 22.2517L62.4189 15.5688" fill="white"/>
<path d="M59.3584 38.0709C59.2639 38.0709 59.1694 38.0563 59.0749 38.0345C58.7987 37.9617 58.5588 37.7797 58.4134 37.5249L49.9227 22.7979C49.6247 22.2738 49.7991 21.6113 50.3225 21.3055L61.8737 14.6227C62.3971 14.3169 63.0586 14.4989 63.3639 15.0231C63.6619 15.5472 63.4875 16.2097 62.9641 16.5154L52.358 22.6523L59.7583 35.4866L70.3643 29.3497C70.8877 29.0512 71.5565 29.226 71.8546 29.7501C72.1526 30.2742 71.9782 30.9367 71.4548 31.2425L59.9036 37.9253C59.7364 38.0199 59.5474 38.0709 59.3584 38.0709Z" fill="#15269D"/>
<path d="M37.4485 28.6872L48.7379 35.2099C49.6757 35.7559 50.0028 36.957 49.4576 37.9034C48.9124 38.8425 47.7129 39.1701 46.7679 38.6241L39.0696 34.1762L39.0478 34.2126L48.8106 39.8617C49.7484 40.4077 50.0755 41.6088 49.5303 42.5552C48.9851 43.4943 47.7856 43.8219 46.8406 43.2759L37.0778 37.6268L37.056 37.6632L45.3431 42.4533C46.2809 42.9993 46.608 44.2004 46.0628 45.1468C45.5176 46.0859 44.3181 46.4135 43.3731 45.8675L34.4535 40.7134L34.4317 40.7498L39.513 43.6908C40.4508 44.2368 40.7779 45.438 40.2327 46.3844C39.6875 47.3307 38.488 47.651 37.543 47.1051L27.2859 41.1793C27.2859 41.1793 23.2586 38.9444 22.2409 34.9041L19.2168 33.157L25.0978 22.958L28.1218 24.7052C28.1218 24.7052 31.1895 23.4094 36.3217 23.6277C37.5212 23.6787 41.3304 24.1592 41.3304 24.1592C41.3304 24.1592 43.6566 24.2247 43.3513 26.1174C43.046 28.0102 40.5526 27.5516 40.5526 27.5516C40.5526 27.5516 38.4153 27.5006 37.434 28.6945L37.4485 28.6872Z" fill="white"/>
<path d="M38.5316 48.4519C37.9937 48.4519 37.4703 48.3063 37.005 48.0442L26.7479 42.1185C26.588 42.0311 22.6043 39.7744 21.3176 35.6176L18.6715 34.0889C18.4244 33.9433 18.2354 33.7031 18.1627 33.4264C18.09 33.1498 18.1263 32.8513 18.2717 32.5965L24.1527 22.3975C24.2981 22.15 24.538 21.9608 24.8142 21.888C25.0904 21.8152 25.3885 21.8516 25.6429 21.9972L28.2308 23.4895C29.3576 23.111 32.229 22.3539 36.3726 22.5213C37.5502 22.5723 40.9814 23.0018 41.4248 23.0527C41.7665 23.0746 43.1186 23.2056 43.911 24.1665C44.2381 24.5596 44.5943 25.2512 44.4271 26.2704C44.1872 27.7773 42.9732 28.6727 41.185 28.6727C40.8724 28.6727 40.6107 28.6436 40.4725 28.6218C40.2545 28.6218 39.971 28.6509 39.6729 28.7091L49.2686 34.2563C50.7297 35.1008 51.2313 36.979 50.388 38.4422C50.2208 38.7261 50.01 38.9809 49.7701 39.1993C50.2572 39.5997 50.6061 40.1384 50.7733 40.7644C50.9841 41.5579 50.8751 42.3806 50.468 43.0867C49.8501 44.1568 48.5998 44.7611 47.3785 44.5863C47.3276 44.9649 47.1968 45.3362 47.0005 45.6783C46.4553 46.6247 45.4448 47.2071 44.3472 47.2071C43.8165 47.2071 43.2858 47.0615 42.8206 46.7994L41.5121 46.0423C41.4466 46.3408 41.3376 46.632 41.1777 46.9086C40.6325 47.855 39.6148 48.4373 38.5243 48.4373L38.5316 48.4519ZM20.7143 32.7421L22.8006 33.9433C23.055 34.0889 23.244 34.3364 23.3094 34.6203C24.1963 38.1364 27.7874 40.1893 27.8238 40.2112L38.0882 46.1442C38.5025 46.3844 39.055 46.2243 39.2876 45.8239C39.5275 45.4017 39.3821 44.863 38.9678 44.6227L33.8865 41.6817C33.3703 41.3832 33.1886 40.7281 33.4794 40.2112C33.6175 39.9564 33.8719 39.7453 34.1482 39.6652C34.4317 39.5851 34.7442 39.607 34.9987 39.7526L43.9183 44.9139C44.3326 45.1542 44.8851 44.994 45.1177 44.5936C45.3576 44.1714 45.2195 43.6327 44.7979 43.3925L36.5107 38.6024C36.2563 38.4568 36.0745 38.2165 36.0019 37.9326C35.9292 37.6487 35.9728 37.3502 36.1254 37.0954C36.4307 36.5859 37.1141 36.3747 37.6302 36.6732L47.393 42.3223C47.8074 42.5626 48.3599 42.4024 48.5925 42.002C48.7088 41.7982 48.7379 41.5652 48.6797 41.3323C48.6216 41.0993 48.4762 40.9173 48.2726 40.8008L38.5098 35.1517C37.9937 34.8533 37.8119 34.1908 38.1027 33.6739C38.2481 33.4191 38.4953 33.2153 38.7715 33.1352C39.055 33.0552 39.3603 33.077 39.6148 33.2226L47.3131 37.6705C47.7274 37.9108 48.2799 37.7506 48.5125 37.3502C48.7524 36.928 48.607 36.3893 48.1927 36.1491L36.9033 29.6264C36.627 29.4662 36.4307 29.1896 36.3726 28.8766C36.3144 28.5635 36.4017 28.2359 36.6052 27.9884C37.7829 26.5616 39.9055 26.4451 40.5307 26.4451C40.5961 26.4451 40.6979 26.4451 40.7633 26.4597C40.7633 26.4597 40.9451 26.4888 41.1995 26.4888C42.2027 26.4888 42.2608 26.0884 42.2899 25.921C42.3335 25.6662 42.2681 25.5861 42.2463 25.557C42.0864 25.3604 41.5993 25.2367 41.3085 25.2294C41.2795 25.2294 41.2431 25.2294 41.214 25.2221C41.1777 25.2221 37.4412 24.7489 36.2926 24.698C31.5166 24.4868 28.587 25.6807 28.558 25.688C28.2454 25.819 27.8892 25.7972 27.5911 25.6298L25.5121 24.4286L20.7215 32.7421H20.7143Z" fill="#15269D"/>
<path d="M17.5811 15.5693L29.1323 22.2522L20.6416 36.9792L9.09045 30.2963" fill="white"/>
<path d="M20.6415 38.0711C20.4525 38.0711 20.2635 38.0201 20.0963 37.9255L8.5452 31.2426C8.0218 30.9442 7.84734 30.2744 8.14538 29.7503C8.44343 29.2261 9.11221 29.0514 9.63561 29.3499L20.249 35.4867L27.6492 22.6525L17.0432 16.5156C16.5198 16.2172 16.3453 15.5474 16.6433 15.0233C16.9414 14.4991 17.6102 14.3244 18.1336 14.6229L29.6847 21.3057C30.2081 21.6042 30.3825 22.2739 30.0845 22.7981L21.5938 37.5251C21.4484 37.7726 21.2085 37.9619 20.9323 38.0347C20.8378 38.0565 20.7433 38.0711 20.6488 38.0711H20.6415Z" fill="#15269D"/>
<path d="M34.1989 45.1178V32.0652C34.1989 30.9732 35.0785 30.0924 36.1689 30.0924C37.2521 30.0924 38.139 30.9732 38.139 32.0652V40.9684H38.1826V29.6774C38.1826 28.5854 39.0622 27.7046 40.1526 27.7046C41.243 27.7046 42.1226 28.5854 42.1226 29.6774V40.9684H42.1589V31.3809C42.1589 30.2889 43.0385 29.4081 44.129 29.4081C45.2121 29.4081 46.099 30.2889 46.099 31.3809V41.6963H46.1426V35.8216C46.1426 34.7296 47.0222 33.8487 48.1126 33.8487C49.203 33.8487 50.0826 34.7296 50.0826 35.8216V47.6803C50.0826 47.6803 50.1626 52.2884 47.1748 55.1931V58.6946H35.4129V55.1931C35.4129 55.1931 32.7523 53.1766 30.3825 48.6194C29.83 47.5493 28.3398 44.0113 28.3398 44.0113C28.3398 44.0113 27.2348 41.9657 29.0231 41.2814C30.8114 40.5971 31.6619 42.9921 31.6619 42.9921C31.6619 42.9921 32.6869 44.8703 34.2135 45.1251L34.1989 45.1178Z" fill="white"/>
<path d="M47.1676 59.7867H35.4057C34.8023 59.7867 34.3153 59.299 34.3153 58.6948V55.7028C33.4284 54.9093 31.3203 52.8054 29.4084 49.1291C28.8632 48.0808 27.5183 44.8923 27.3439 44.4773C27.1912 44.1716 26.6315 42.934 27.0676 41.762C27.2494 41.2815 27.6637 40.6263 28.6306 40.2623C28.965 40.1313 29.3066 40.0658 29.6483 40.0658C31.2766 40.0658 32.2798 41.5654 32.6506 42.5191C32.7451 42.672 32.905 42.9195 33.1158 43.1597V32.0653C33.1158 30.3764 34.4897 29.0005 36.1762 29.0005C36.5106 29.0005 36.8378 29.0588 37.1358 29.1534C37.383 27.712 38.6406 26.6055 40.1526 26.6055C41.4393 26.6055 42.5442 27.4062 42.9949 28.5346C43.3439 28.3963 43.7292 28.3162 44.129 28.3162C45.8155 28.3162 47.1894 29.6921 47.1894 31.381V32.8952C47.4802 32.8006 47.7855 32.7569 48.1054 32.7569C49.7919 32.7569 51.1658 34.1328 51.1658 35.8217V47.6805C51.1658 47.8624 51.2094 52.4487 48.258 55.6373V58.6948C48.258 59.299 47.771 59.7867 47.1676 59.7867ZM36.4961 57.6028H46.0772V55.1932C46.0772 54.8947 46.1935 54.6181 46.4116 54.407C49.0286 51.8663 48.985 47.7387 48.985 47.695V35.8217C48.985 35.3339 48.5924 34.9408 48.1054 34.9408C47.6183 34.9408 47.2258 35.3339 47.2258 35.8217V41.6965C47.2258 42.3007 46.7387 42.7884 46.1353 42.7884C45.532 42.7884 45.0013 42.3007 45.0013 41.6965V31.381C45.0013 30.8933 44.6088 30.5002 44.1217 30.5002C43.6347 30.5002 43.2421 30.8933 43.2421 31.381V40.9685C43.2421 41.5727 42.7551 42.0605 42.1517 42.0605C41.5483 42.0605 41.0249 41.5727 41.0249 40.9685V29.6775C41.0249 29.1898 40.6324 28.7967 40.1453 28.7967C39.6583 28.7967 39.2657 29.1898 39.2657 29.6775V40.9685C39.2657 41.5727 38.7787 42.0605 38.1753 42.0605C37.572 42.0605 37.0413 41.5727 37.0413 40.9685V32.0653C37.0413 31.5776 36.6487 31.1845 36.1617 31.1845C35.6746 31.1845 35.2821 31.5776 35.2821 32.0653V45.118C35.2821 45.4383 35.144 45.744 34.8968 45.9551C34.6497 46.159 34.3298 46.2463 34.0099 46.1954C32.0181 45.8605 30.8187 43.7494 30.6878 43.5091C30.6587 43.4582 30.6369 43.4072 30.6151 43.3563C30.477 42.9777 30.0336 42.2497 29.6265 42.2497C29.5538 42.2497 29.4738 42.2643 29.3866 42.3007C29.1394 42.3953 29.1104 42.49 29.0958 42.5191C29.0013 42.7666 29.1612 43.2835 29.2776 43.4873C29.2921 43.5164 29.3066 43.5528 29.3212 43.5819C29.3357 43.6183 30.8041 47.0908 31.3275 48.11C33.5374 52.3614 36.0236 54.2978 36.0527 54.3196C36.3216 54.5235 36.4815 54.851 36.4815 55.1859V57.5955L36.4961 57.6028Z" fill="#15269D"/>
<path d="M32.7959 68.9082V55.5425H49.77V68.9082" fill="white"/>
<path d="M49.77 70.0004C49.1667 70.0004 48.6796 69.5126 48.6796 68.9084V56.6419H33.8791V68.9084C33.8791 69.5126 33.392 70.0004 32.7887 70.0004C32.1853 70.0004 31.6982 69.5126 31.6982 68.9084V55.55C31.6982 54.9458 32.1853 54.458 32.7887 54.458H49.77C50.3734 54.458 50.8604 54.9458 50.8604 55.55V68.9084C50.8604 69.5126 50.3734 70.0004 49.77 70.0004Z" fill="#15269D"/>
</g>
<defs>
<clipPath id="clip0_429_4834">
<rect width="64" height="60" fill="white" transform="translate(8 10)"/>
</clipPath>
</defs>
</svg>
