<svg width="100" height="100" viewBox="0 0 100 100" fill="none" xmlns="http://www.w3.org/2000/svg">
<circle opacity="0.4" cx="75" cy="31" r="12" fill="#94BDE5"/>
<g clip-path="url(#clip0_245_685)">
<path d="M50 81C67.1208 81 81 67.1208 81 50C81 32.8792 67.1208 19 50 19C32.8792 19 19 32.8792 19 50C19 67.1208 32.8792 81 50 81Z" stroke="#15269D" stroke-width="2" stroke-linecap="round" stroke-linejoin="round"/>
<path d="M26.37 30.3596C26.4 32.9196 27.53 34.9696 30.23 35.2196C32.21 35.5296 34.19 35.8396 36.17 36.1496C36.79 36.2496 37.47 36.3696 37.84 36.7896C38.16 37.1596 38.14 37.6596 38.12 38.1096C38.02 39.7096 38.04 41.4096 39.02 42.7996C40 44.1896 42.28 45.1096 44.03 44.3596C46.02 43.5096 46.51 41.2496 46.13 39.4496C45.8 37.9096 45.98 36.7096 47.31 35.7896C47.31 35.7896 48.49 34.0696 49.72 35.6096C50.95 37.1496 52.22 37.0596 54.36 35.3096C56.55 33.5196 52.11 32.2396 53.15 30.4096C54.42 29.0196 56.39 30.3596 57.31 29.5496C58.46 28.5296 58.13 27.6096 57.31 26.4196C54.82 22.7796 59.68 23.0696 57.25 20.0996" stroke="#15269D" stroke-width="2" stroke-linecap="round" stroke-linejoin="round"/>
<path d="M68.08 75.0197C65.8 73.0797 65.03 68.9297 66.72 66.5297C68.08 64.5897 70.47 63.6897 72.09 61.9697C73.71 60.2497 73.99 56.7197 71.74 55.9197C71.06 55.6797 68.94 55.8997 68.22 55.8997" stroke="#15269D" stroke-width="2" stroke-linecap="round" stroke-linejoin="round"/>
<path d="M63.69 45.9501C63.69 45.9501 58.69 39.9501 64.69 38.6201C70.69 37.2901 70.69 36.6201 70.36 33.6201C70.03 30.6201 73.03 30.6201 73.03 30.6201" stroke="#15269D" stroke-width="2" stroke-linecap="round" stroke-linejoin="round"/>
<path d="M45.48 66.03C35.66 74.55 26.16 79.01 22.15 75C20.08 72.94 20.05 69.2 21.68 64.71" stroke="#15269D" stroke-width="2" stroke-linecap="round" stroke-linejoin="round"/>
<path d="M71.3001 46.0799C71.3001 46.0799 67.8401 60.5899 60.1401 66.5399C53.1001 71.9699 48.5801 70.1599 45.4101 66.0599C42.2401 61.9599 41.6401 57.1299 48.6801 51.6899C57.3101 45.0299 70.8601 46.0799 71.3001 46.0799Z" stroke="#15269D" stroke-width="2" stroke-linecap="round" stroke-linejoin="round"/>
<path d="M45.41 66.0594L64.1 51.6494" stroke="#15269D" stroke-width="2" stroke-linecap="round" stroke-linejoin="round"/>
<path d="M51.2701 61.0297L51.2801 50.7197" stroke="#15269D" stroke-width="2" stroke-linecap="round" stroke-linejoin="round"/>
<path d="M55.8101 58.0098L63.8101 60.3098" stroke="#15269D" stroke-width="2" stroke-linecap="round" stroke-linejoin="round"/>
<path d="M35.09 69.3295C35.09 69.3295 44.39 61.2695 31.74 49.9795C31.74 49.9795 22.22 62.2695 35.09 69.3295Z" stroke="#15269D" stroke-width="2" stroke-linecap="round" stroke-linejoin="round"/>
<path d="M35.1 72.8691C35.1 72.8691 33.03 59.7091 32.42 55.3291" stroke="#15269D" stroke-width="2" stroke-linecap="round" stroke-linejoin="round"/>
</g>
<defs>
<clipPath id="clip0_245_685">
<rect width="64" height="64" fill="white" transform="translate(18 18)"/>
</clipPath>
</defs>
</svg>
