<svg width="60" height="60" viewBox="0 0 60 60" fill="none" xmlns="http://www.w3.org/2000/svg">
<circle opacity="0.4" cx="40" cy="20" r="12" fill="#94BDE5"/>
<path d="M40.9919 39.8823C50.7119 41.4245 57.9385 48.0239 57.9385 55.9304" stroke="#15269D" stroke-width="2" stroke-linecap="round" stroke-linejoin="round"/>
<path d="M35.8655 33.9731L36.1065 35.7279C36.184 36.287 36.3574 36.8138 36.6111 37.2912" stroke="#15269D" stroke-width="2" stroke-linecap="round" stroke-linejoin="round"/>
<path d="M23.3887 37.2912C23.6424 36.8138 23.8158 36.2885 23.8933 35.7279L24.1343 33.9731" stroke="#15269D" stroke-width="2" stroke-linecap="round" stroke-linejoin="round"/>
<path d="M2.06274 55.9304C2.06274 48.0225 9.2907 41.423 19.0107 39.8823" stroke="#15269D" stroke-width="2" stroke-linecap="round" stroke-linejoin="round"/>
<path d="M41.2329 19.3941C41.3724 19.3814 41.5148 19.3884 41.6571 19.4166C42.9158 19.6701 43.6826 21.4897 43.3683 23.4839C43.0568 25.4696 41.791 26.8766 40.538 26.6357C39.6176 29.7327 37.9346 32.324 35.795 34.0098C34.1008 35.3435 32.1176 36.1111 30.0019 36.1111C27.8862 36.1111 25.9031 35.3449 24.2102 34.0098C22.0706 32.324 20.3877 29.7327 19.4672 26.6357C18.2142 26.8766 16.947 25.4696 16.637 23.4839C16.3226 21.4897 17.088 19.6701 18.3481 19.4166C18.4905 19.387 18.6328 19.3814 18.7724 19.3941" stroke="#15269D" stroke-width="2" stroke-linecap="round" stroke-linejoin="round"/>
<path d="M17.5503 17.6307C18.3072 9.99189 21.8408 4.06982 30.1964 4.06982C38.552 4.06982 42.0884 9.99048 42.8453 17.6307" stroke="#15269D" stroke-width="2" stroke-linecap="round" stroke-linejoin="round"/>
<path d="M36.0389 11.6807C35.1594 12.182 33.9754 12.7482 32.439 13.2355C28.4741 14.4945 24.5909 14.4664 22.7205 14.3762" stroke="#15269D" stroke-width="2" stroke-linecap="round" stroke-linejoin="round"/>
<path d="M36.1377 11.6807C36.4492 12.6045 36.8551 13.6298 37.3851 14.6565C38.7453 17.2915 40.2633 18.6604 41.2669 19.3688" stroke="#15269D" stroke-width="2" stroke-linecap="round" stroke-linejoin="round"/>
<path d="M22.6231 14.5396C22.5301 15.0409 22.3581 15.6437 22.0311 16.2789C21.0614 18.1604 19.3883 19.0462 18.6765 19.3702" stroke="#15269D" stroke-width="2" stroke-linecap="round" stroke-linejoin="round"/>
<path d="M30.003 41.2069L21.2881 36.0469L18.8637 40.1348L27.5786 45.2948L30.003 41.2069Z" stroke="#15269D" stroke-width="2" stroke-linecap="round" stroke-linejoin="round"/>
<path d="M32.4272 45.2894L41.1421 40.1294L38.7177 36.0415L30.0028 41.2015L32.4272 45.2894Z" stroke="#15269D" stroke-width="2" stroke-linecap="round" stroke-linejoin="round"/>
<path d="M39.2175 52.6025H46.0691" stroke="#15269D" stroke-width="2" stroke-linecap="round" stroke-linejoin="round"/>
</svg>
