<svg width="40" height="40" viewBox="0 0 40 40" fill="none" xmlns="http://www.w3.org/2000/svg">
<g clip-path="url(#clip0_694_3065)">
<path d="M32.6056 9.53806H28.5177V8.37856C28.5177 7.61563 27.8929 7 27.1271 7H13.8729C13.1033 7 12.4785 7.61941 12.4785 8.37856V9.53806H8.39438C7.62481 9.53806 7 10.1575 7 10.9204V14.6557C7 19.1993 10.3602 22.9762 14.7453 23.6787C15.8959 24.8571 17.4084 25.6804 19.1075 25.975V30.2391H13.1871C12.4175 30.2391 11.7927 30.8585 11.7927 31.6214C11.7927 32.3844 12.4175 33.0038 13.1871 33.0038H27.8091C28.5787 33.0038 29.1997 32.3844 29.1997 31.6214C29.1997 30.8585 28.5749 30.2391 27.8091 30.2391H21.8887V25.975C23.584 25.6804 25.0965 24.8533 26.2509 23.6787C30.636 22.9762 33.9962 19.1993 33.9962 14.6557V10.9204C33.9962 10.1575 33.3714 9.53806 32.6056 9.53806ZM9.78496 14.6557V12.3027H12.4785V18.1493C12.4785 18.7838 12.5547 19.3995 12.6994 19.9924C10.9469 18.8518 9.78496 16.8879 9.78496 14.6595V14.6557ZM31.2112 14.6557C31.2112 16.8841 30.0492 18.8481 28.2967 19.9887C28.4377 19.3957 28.5177 18.7801 28.5177 18.1456V12.299H31.2112V14.6519V14.6557Z" fill="white"/>
</g>
<defs>
<clipPath id="clip0_694_3065">
<rect width="27" height="26" fill="white" transform="translate(7 7)"/>
</clipPath>
</defs>
</svg>
