<svg width="100" height="100" viewBox="0 0 100 100" fill="none" xmlns="http://www.w3.org/2000/svg">
<circle opacity="0.4" cx="75" cy="31" r="12" fill="#94BDE5"/>
<g clip-path="url(#clip0_245_592)">
<path d="M74.9687 66.2628C69.6371 74.5027 60.3676 79.9537 49.8311 79.9537C33.2979 79.9537 19.9004 66.548 19.9004 50.0048C19.9004 47.6491 20.1749 45.3672 20.6817 43.1699" stroke="#15269D" stroke-width="2" stroke-linecap="round" stroke-linejoin="round"/>
<path d="M23.0571 44.6385L21.7796 39.5361L18 43.2018L23.0571 44.6385Z" fill="#15269D"/>
<path d="M24.873 33.4623C30.2362 25.3809 39.4108 20.0566 49.8311 20.0566C66.3642 20.0566 79.7618 33.4623 79.7618 50.0055C79.7618 51.7908 79.6034 53.5339 79.3078 55.2241" stroke="#15269D" stroke-width="2" stroke-linecap="round" stroke-linejoin="round"/>
<path d="M76.869 53.8721L78.4104 58.9111L82 55.0552L76.869 53.8721Z" fill="#15269D"/>
<path d="M59.9316 46.3379V55.6364H58.2589V46.3379H59.9316Z" fill="#15269D"/>
<path d="M51.6037 55.6364H48.4382V46.3379H51.6551C54.4346 46.3379 56.1202 48.0846 56.1202 50.9743C56.1202 53.8769 54.4346 55.6364 51.6037 55.6364ZM50.111 54.1851H51.5136C53.4566 54.1851 54.4474 53.1191 54.4474 50.9743C54.4474 48.8423 53.4566 47.7892 51.5651 47.7892H50.111V54.1851Z" fill="#15269D"/>
<path d="M39.6471 55.6364V46.3379H43.1471C45.2831 46.3379 46.4283 47.6351 46.4283 49.4203C46.4283 51.2055 45.2703 52.4898 43.1214 52.4898H41.3199V55.6364H39.6471ZM41.3199 51.1156H42.8897C44.1508 51.1156 44.7169 50.4092 44.7169 49.4203C44.7169 48.4185 44.1508 47.7378 42.8897 47.7378H41.3199V51.1156Z" fill="#15269D"/>
<path d="M69.6265 27.5459C69.0353 28.0635 68.423 28.5706 67.7895 29.046C62.7852 32.8068 56.5668 35.0358 49.8311 35.0358C43.0954 35.0358 36.877 32.8068 31.8727 29.046C31.2392 28.5706 30.6269 28.0741 30.0356 27.5459" stroke="#15269D" stroke-width="2" stroke-miterlimit="10"/>
<path d="M69.6265 72.4645C69.0353 71.9468 68.423 71.4398 67.7895 70.9644C62.7852 67.2036 56.5668 64.9746 49.8311 64.9746C43.0954 64.9746 36.877 67.2036 31.8727 70.9644C31.2392 71.4398 30.6269 71.9363 30.0356 72.4645" stroke="#15269D" stroke-width="2" stroke-miterlimit="10"/>
<path d="M36.0218 38.4274C38.2811 27.631 43.6127 20.0566 49.8311 20.0566C56.0495 20.0566 61.5183 27.8423 63.7249 38.8711" stroke="#15269D" stroke-width="2" stroke-linecap="round" stroke-linejoin="round"/>
<path d="M63.6193 61.6572C61.3494 72.4008 56.0284 79.9435 49.8311 79.9435C43.6338 79.9435 38.4289 72.5593 36.1168 61.9847" stroke="#15269D" stroke-width="2" stroke-linecap="round" stroke-linejoin="round"/>
<path d="M72.4348 50.0049H79.7512" stroke="#15269D" stroke-width="2" stroke-linecap="round" stroke-linejoin="round"/>
<path d="M19.9004 50.0049H26.8367" stroke="#15269D" stroke-width="2" stroke-linecap="round" stroke-linejoin="round"/>
<path d="M66.0686 41.8604H33.5935C31.7277 41.8604 30.2151 43.3738 30.2151 45.2408V55.6147C30.2151 57.4816 31.7277 58.9951 33.5935 58.9951H66.0686C67.9345 58.9951 69.447 57.4816 69.447 55.6147V45.2408C69.447 43.3738 67.9345 41.8604 66.0686 41.8604Z" stroke="#15269D" stroke-width="2" stroke-miterlimit="10"/>
</g>
<defs>
<clipPath id="clip0_245_592">
<rect width="64" height="62" fill="white" transform="translate(18 19)"/>
</clipPath>
</defs>
</svg>
