<svg width="100" height="100" viewBox="0 0 100 100" fill="none" xmlns="http://www.w3.org/2000/svg">
<circle opacity="0.4" cx="75" cy="31" r="12" fill="#94BDE5"/>
<path d="M28.8687 66.1678V70.3333C28.8687 72.6438 26.9922 74.507 24.6839 74.507C22.3674 74.507 20.4992 72.6355 20.4992 70.3333V62.582" stroke="#15269D" stroke-width="2" stroke-linecap="round" stroke-linejoin="round"/>
<path d="M37.3959 66.168H25.2818C22.6414 66.168 20.4992 64.0315 20.4992 61.398V51.3115C20.4992 50.2432 20.8562 49.208 21.5122 48.3716L27.6731 41.3574H72.3352L78.4961 48.3716C79.152 49.208 79.5091 50.2432 79.5091 51.3115V61.398C79.5091 64.0315 77.3669 66.168 74.7265 66.168H62.164" stroke="#15269D" stroke-width="2" stroke-linecap="round" stroke-linejoin="round"/>
<path d="M79.5091 62.5908V70.3421C79.5091 72.6525 77.6326 74.5158 75.3243 74.5158C73.0078 74.5158 71.1396 72.6443 71.1396 70.3421V66.1766" stroke="#15269D" stroke-width="2" stroke-linecap="round" stroke-linejoin="round"/>
<path d="M27.6731 41.3492L33.6181 29.2669C34.4567 27.5692 36.192 26.4844 38.0934 26.4844H61.9149C63.8163 26.4844 65.5517 27.5609 66.3903 29.2669L72.3353 41.3492" stroke="#15269D" stroke-width="2" stroke-linecap="round" stroke-linejoin="round"/>
<path d="M62.164 61.3984H37.8443V69.423H62.164V61.3984Z" stroke="#15269D" stroke-width="2" stroke-linecap="round" stroke-linejoin="round"/>
<path d="M28.2211 41.3496L21.5205 38.0371" stroke="#15269D" stroke-width="2" stroke-linecap="round" stroke-linejoin="round"/>
<path d="M72.0778 41.3496L78.7784 38.0371" stroke="#15269D" stroke-width="2" stroke-linecap="round" stroke-linejoin="round"/>
<path d="M35.9927 52.1972C35.9927 54.0439 34.4899 55.5428 32.6383 55.5428C30.7867 55.5428 29.2839 54.0439 29.2839 52.1972C29.2839 50.3505 30.7867 48.8516 32.6383 48.8516C34.4899 48.8516 35.9927 50.3505 35.9927 52.1972Z" fill="#15269D"/>
<path d="M70.7078 52.1972C70.7078 54.0439 69.205 55.5428 67.3534 55.5428C65.5018 55.5428 63.999 54.0439 63.999 52.1972C63.999 50.3505 65.5018 48.8516 67.3534 48.8516C69.205 48.8516 70.7078 50.3505 70.7078 52.1972Z" fill="#15269D"/>
<path d="M56.5345 55.3776H43.4572C42.2034 55.3776 41.0908 54.5826 40.7005 53.3984L39.6045 50.119C39.4219 49.5807 39.8287 49.0176 40.4016 49.0176H59.5983C60.1712 49.0176 60.5698 49.5724 60.3954 50.119L59.2994 53.3984C58.9009 54.5826 57.7965 55.3776 56.5428 55.3776H56.5345Z" fill="#15269D"/>
</svg>
