<svg width="50" height="50" viewBox="0 0 50 50" fill="none" xmlns="http://www.w3.org/2000/svg">
<circle opacity="0.4" cx="34" cy="16" r="12" fill="#94BDE5"/>
<g clip-path="url(#clip0_398_2697)">
<path d="M36.6705 8.6394C36.6705 5.24003 33.8967 2.84375 30.4629 2.84375C27.9419 2.84375 25.7721 4.33446 24.803 6.47996C23.8339 4.33446 21.6641 2.84375 19.1431 2.84375C15.7163 2.84375 12.9355 5.24003 12.9355 8.6394C12.9355 9.16881 13.1673 11.0635 14.4874 12.9861C17.7036 17.6603 24.0165 23.1285 24.803 23.1285C25.7018 23.1285 31.8673 17.6324 34.936 12.9861C35.9753 11.4118 36.6705 9.09915 36.6705 8.6394Z" stroke="#15269D" stroke-width="2" stroke-linecap="round" stroke-linejoin="round"/>
<path d="M40.835 39.9918V37.1706C40.835 36.07 44.7112 31.0546 46.3895 28.108C46.8881 27.2372 47.1549 26.2132 47.1549 25.1753V10.3658C47.1549 8.20631 45.4485 6.4718 43.4964 6.82009C41.9445 7.09177 40.835 8.69393 40.835 10.4772V18.3278" stroke="#15269D" stroke-width="2" stroke-linecap="round" stroke-linejoin="round"/>
<path d="M38.6717 29.132L42.1477 23.8518C42.9974 22.375 42.8288 20.3619 41.6491 19.2194C40.2236 17.8263 38.0819 18.2233 37.0917 19.9509L31.1931 29.4663C30.512 30.4346 30.0977 31.6606 30.0977 32.9911V39.9988" stroke="#15269D" stroke-width="2" stroke-linecap="round" stroke-linejoin="round"/>
<path d="M41.3266 39.9922H30.2316C29.4559 39.9922 28.8271 40.6159 28.8271 41.3854V44.7638C28.8271 45.5333 29.4559 46.157 30.2316 46.157H41.3266C42.1022 46.157 42.731 45.5333 42.731 44.7638V41.3854C42.731 40.6159 42.1022 39.9922 41.3266 39.9922Z" stroke="#15269D" stroke-width="2" stroke-linecap="round" stroke-linejoin="round"/>
<path d="M9.16467 39.9918V37.1706C9.16467 36.07 5.28844 31.0546 3.61014 28.108C3.11157 27.2372 2.84473 26.2132 2.84473 25.1753V10.3658C2.84473 8.20631 4.55111 6.4718 6.50327 6.82009C8.05517 7.09177 9.16467 8.69393 9.16467 10.4772V18.3278" stroke="#15269D" stroke-width="2" stroke-linecap="round" stroke-linejoin="round"/>
<path d="M11.3276 29.132L7.85163 23.8518C7.00195 22.375 7.17048 20.3619 8.3502 19.2194C9.7757 17.8263 11.9175 18.2233 12.9076 19.9509L18.8062 29.4663C19.4874 30.4346 19.9017 31.6606 19.9017 32.9911V39.9988" stroke="#15269D" stroke-width="2" stroke-linecap="round" stroke-linejoin="round"/>
<path d="M8.6734 46.1641H19.7684C20.5441 46.1641 21.1729 45.5403 21.1729 44.7709V41.3924C21.1729 40.623 20.5441 39.9992 19.7684 39.9992H8.6734C7.89775 39.9992 7.26897 40.623 7.26897 41.3924V44.7709C7.26897 45.5403 7.89775 46.1641 8.6734 46.1641Z" stroke="#15269D" stroke-width="2" stroke-linecap="round" stroke-linejoin="round"/>
</g>
<defs>
<clipPath id="clip0_398_2697">
<rect width="48" height="47" fill="white" transform="translate(1 1)"/>
</clipPath>
</defs>
</svg>
