<svg width="68" height="68" viewBox="0 0 68 68" fill="none" xmlns="http://www.w3.org/2000/svg">
<circle opacity="0.4" cx="48" cy="20" r="12" fill="#94BDE5"/>
<g clip-path="url(#clip0_368_5756)">
<path d="M24.9409 56.7227H43.5103L45.2788 61.1203H23.1724L24.9409 56.7227Z" stroke="#15269D" stroke-width="2" stroke-linecap="round" stroke-linejoin="round"/>
<path d="M37.9838 44.55C37.9838 44.55 36.0649 30.0377 42.405 27.5486C48.7452 25.0595 52.8658 19.6328 52.8658 19.6328C52.8658 19.6328 54.2629 22.7815 52.7155 26.0798C51.168 29.3781 47.7017 31.2075 47.7017 31.2075" stroke="#15269D" stroke-width="2" stroke-linecap="round" stroke-linejoin="round"/>
<path d="M52.2735 27.8389C52.2735 27.8389 54.1924 29.7475 52.4239 33.2656C50.6554 36.7837 46.5259 38.103 46.5259 38.103" stroke="#15269D" stroke-width="2" stroke-linecap="round" stroke-linejoin="round"/>
<path d="M50.9472 35.9746C50.9472 35.9746 52.3443 39.2729 49.4704 41.9115C46.5966 44.5501 37.9751 44.5501 37.9751 44.5501" stroke="#15269D" stroke-width="2" stroke-linecap="round" stroke-linejoin="round"/>
<path d="M52.8657 19.6327C52.8657 19.6327 58.0209 13.6254 59.0555 6.87939C59.0555 6.87939 62 12.3061 59.5683 17.5042C56.1551 24.8131 52.7153 26.0796 52.7153 26.0796" stroke="#15269D" stroke-width="2" stroke-linecap="round" stroke-linejoin="round"/>
<path d="M60.0902 17.5835C60.0902 17.5835 62.0797 21.0313 60.5323 24.7693C58.2332 30.3192 53.0161 32.9754 53.0161 32.9754" stroke="#15269D" stroke-width="2" stroke-linecap="round" stroke-linejoin="round"/>
<path d="M59.206 27.2583C59.206 27.2583 59.8427 31.6736 57.7293 34.4441C54.4841 38.6923 51.3892 38.8418 51.3892 38.8418" stroke="#15269D" stroke-width="2" stroke-linecap="round" stroke-linejoin="round"/>
<path d="M30.0252 44.55C30.0252 44.55 31.944 30.0377 25.6039 27.5486C19.2638 25.0595 15.1431 19.6328 15.1431 19.6328C15.1431 19.6328 13.746 22.7815 15.2935 26.0798C16.8409 29.3781 20.3072 31.2075 20.3072 31.2075" stroke="#15269D" stroke-width="2" stroke-linecap="round" stroke-linejoin="round"/>
<path d="M15.7268 27.8389C15.7268 27.8389 13.808 29.7475 15.5765 33.2656C17.345 36.7837 21.4745 38.103 21.4745 38.103" stroke="#15269D" stroke-width="2" stroke-linecap="round" stroke-linejoin="round"/>
<path d="M17.0529 35.9746C17.0529 35.9746 15.6558 39.2729 18.5296 41.9115C21.4035 44.5501 30.025 44.5501 30.025 44.5501" stroke="#15269D" stroke-width="2" stroke-linecap="round" stroke-linejoin="round"/>
<path d="M15.134 19.6327C15.134 19.6327 9.97882 13.6254 8.94424 6.87939C8.94424 6.87939 5.99966 12.3061 8.43137 17.5042C11.8446 24.8131 15.2844 26.0796 15.2844 26.0796" stroke="#15269D" stroke-width="2" stroke-linecap="round" stroke-linejoin="round"/>
<path d="M7.9186 17.5835C7.9186 17.5835 5.92903 21.0313 7.47648 24.7693C9.77554 30.3192 14.9927 32.9754 14.9927 32.9754" stroke="#15269D" stroke-width="2" stroke-linecap="round" stroke-linejoin="round"/>
<path d="M8.80289 27.2583C8.80289 27.2583 8.16622 31.6736 10.2796 34.4441C13.5248 38.6923 16.6197 38.8418 16.6197 38.8418" stroke="#15269D" stroke-width="2" stroke-linecap="round" stroke-linejoin="round"/>
<path d="M29.4326 56.5735L32.0854 47.3384" stroke="#15269D" stroke-width="2" stroke-linecap="round" stroke-linejoin="round"/>
<path d="M36.0645 47.189L38.5669 56.1338" stroke="#15269D" stroke-width="2" stroke-linecap="round" stroke-linejoin="round"/>
<path d="M33.8539 47.048C35.8074 47.048 37.391 45.4729 37.391 43.5299C37.391 41.5868 35.8074 40.0117 33.8539 40.0117C31.9005 40.0117 30.3169 41.5868 30.3169 43.5299C30.3169 45.4729 31.9005 47.048 33.8539 47.048Z" stroke="#15269D" stroke-width="2" stroke-linecap="round" stroke-linejoin="round"/>
</g>
<defs>
<clipPath id="clip0_368_5756">
<rect width="56" height="56" fill="white" transform="translate(6 6)"/>
</clipPath>
</defs>
</svg>
