<svg width="80" height="80" viewBox="0 0 80 80" fill="none" xmlns="http://www.w3.org/2000/svg">
<circle opacity="0.4" cx="64" cy="16" r="12" fill="#94BDE5"/>
<g clip-path="url(#clip0_429_4733)">
<path d="M28.8955 29.6192V15.5092C28.8955 13.5828 30.4554 12.0272 32.3709 12.0272C34.2936 12.0272 35.8463 13.5901 35.8463 15.5092V19.7037H35.9188V12.5724C35.9188 10.646 37.4787 9.09033 39.3942 9.09033C41.3169 9.09033 42.8696 10.6533 42.8696 12.5724V19.7037H42.9421V14.3025C42.9421 12.3761 44.502 10.8205 46.4175 10.8205C48.3402 10.8205 49.8929 12.3834 49.8929 14.3025V20.9976H49.9654V18.0971C49.9654 16.1708 51.5253 14.6151 53.4408 14.6151C55.3635 14.6151 56.9162 16.178 56.9162 18.0971V34.148C56.9162 34.148 57.054 42.2971 51.7793 47.4293V53.6155H30.9996V47.4293C30.9996 47.4293 24.6511 44.0199 23.3668 36.9395L23.0476 26.7914C23.0476 26.7914 22.888 21.9572 28.0321 21.3175" fill="white"/>
<path d="M51.801 54.6987H31.0214C30.4192 54.6987 29.933 54.2117 29.933 53.6083V48.0399C28.257 46.9713 23.4612 43.4311 22.3148 37.1213C22.3075 37.0704 22.3003 37.0122 22.3003 36.9613L21.981 26.8132C21.9157 24.8141 23.0548 20.8814 27.8144 20.2344V15.502C27.8144 12.9795 29.8605 10.9295 32.3781 10.9295C33.3213 10.9295 34.192 11.213 34.9248 11.7074C35.3311 9.59195 37.1885 7.99268 39.4087 7.99268C41.2733 7.99268 42.8768 9.11944 43.5878 10.726C44.3714 10.1008 45.3582 9.7228 46.4392 9.7228C48.9351 9.7228 50.9739 11.7437 51.0029 14.2371C51.714 13.7791 52.5556 13.5102 53.4625 13.5102C55.9802 13.5102 58.0262 15.5601 58.0262 18.0826V34.1335C58.0262 34.4606 58.106 42.4643 52.8894 47.8655V53.601C52.8894 54.2044 52.4032 54.6915 51.801 54.6915V54.6987ZM32.1097 52.5179H50.7127V47.422C50.7127 47.124 50.8288 46.8477 51.0465 46.6369C55.9222 41.89 55.8496 34.2353 55.8496 34.1553V18.0899C55.8496 16.7669 54.7758 15.6983 53.4625 15.6983C52.1493 15.6983 51.0755 16.7741 51.0755 18.0899V20.9904C51.0755 21.5938 50.5894 22.0808 49.9872 22.0808C49.385 22.0808 48.8263 21.5938 48.8263 20.9904V14.2953C48.8263 12.9722 47.7525 11.9036 46.4392 11.9036C45.126 11.9036 44.0522 12.9795 44.0522 14.2953V19.6964C44.0522 20.2998 43.5661 20.7869 42.9639 20.7869C42.3617 20.7869 41.803 20.2998 41.803 19.6964V12.5724C41.803 11.2494 40.7292 10.1808 39.4159 10.1808C38.1027 10.1808 37.0289 11.2566 37.0289 12.5724V19.7037C37.0289 20.3071 36.5428 20.7941 35.9406 20.7941H35.868C35.2658 20.7941 34.7797 20.3071 34.7797 19.7037V15.5093C34.7797 14.1862 33.7059 13.1176 32.3926 13.1176C31.0794 13.1176 30.0056 14.1935 30.0056 15.5093V29.6192C30.0056 30.2226 29.5195 30.7096 28.9173 30.7096C28.3151 30.7096 27.8289 30.2226 27.8289 29.6192V22.4516C24.2012 23.1131 24.1649 26.377 24.1722 26.7551L24.4914 36.8087C25.6958 43.213 31.5002 46.4261 31.5583 46.4552C31.9065 46.6442 32.1314 47.0149 32.1314 47.4148V52.5106L32.1097 52.5179Z" fill="#15269D"/>
<path d="M28.2062 70.9095V51.2603H55.2039V70.9095" fill="white"/>
<path d="M55.2039 72.0001C54.6017 72.0001 54.1155 71.513 54.1155 70.9096V52.3581H29.2946V70.9096C29.2946 71.513 28.8084 72.0001 28.2062 72.0001C27.604 72.0001 27.1179 71.513 27.1179 70.9096V51.2677C27.1179 50.6643 27.604 50.1772 28.2062 50.1772H55.2039C55.8061 50.1772 56.2922 50.6643 56.2922 51.2677V70.9096C56.2922 71.513 55.8061 72.0001 55.2039 72.0001Z" fill="#15269D"/>
<path d="M18.6217 29.9684H15.0883C14.4861 29.9684 14 29.4814 14 28.878C14 28.2746 14.4861 27.7876 15.0883 27.7876H18.6217C19.2239 27.7876 19.7101 28.2746 19.7101 28.878C19.7101 29.4814 19.2239 29.9684 18.6217 29.9684Z" fill="#15269D"/>
<path d="M64.9117 29.9684H61.3783C60.7761 29.9684 60.2899 29.4814 60.2899 28.878C60.2899 28.2746 60.7761 27.7876 61.3783 27.7876H64.9117C65.5139 27.7876 66 28.2746 66 28.878C66 29.4814 65.5139 29.9684 64.9117 29.9684Z" fill="#15269D"/>
<path d="M16.6555 38.6913C16.2129 38.6913 15.7994 38.4224 15.6325 37.9789C15.4221 37.4119 15.705 36.7868 16.271 36.5759L19.5867 35.3401C20.1454 35.1293 20.7766 35.4128 20.987 35.9798C21.1974 36.5469 20.9145 37.172 20.3485 37.3828L17.0328 38.6186C16.9094 38.6623 16.7788 38.6841 16.6555 38.6841V38.6913Z" fill="#15269D"/>
<path d="M60.0287 22.4877C59.5862 22.4877 59.1726 22.2188 59.0057 21.7753C58.7953 21.2083 59.0855 20.5831 59.6442 20.3723L62.96 19.1365C63.5186 18.9257 64.1499 19.2092 64.3603 19.7762C64.5707 20.3432 64.2805 20.9684 63.7218 21.1792L60.406 22.415C60.2827 22.4586 60.1521 22.4805 60.0287 22.4805V22.4877Z" fill="#15269D"/>
<path d="M63.3445 38.6914C63.2212 38.6914 63.0906 38.6696 62.9672 38.626L59.6515 37.3902C59.0855 37.1794 58.8026 36.5542 59.013 35.9872C59.2234 35.4202 59.8546 35.1366 60.4133 35.3475L63.729 36.5833C64.295 36.7941 64.5779 37.4192 64.3675 37.9863C64.2079 38.4224 63.7871 38.6987 63.3445 38.6987V38.6914Z" fill="#15269D"/>
<path d="M19.9713 22.4878C19.8479 22.4878 19.7173 22.466 19.594 22.4224L16.2782 21.1866C15.7123 20.9757 15.4293 20.3506 15.6397 19.7836C15.8502 19.2165 16.4741 18.933 17.0401 19.1438L20.3558 20.3796C20.9217 20.5905 21.2047 21.2156 20.9943 21.7826C20.8347 22.2188 20.4138 22.495 19.9713 22.495V22.4878Z" fill="#15269D"/>
</g>
<defs>
<clipPath id="clip0_429_4733">
<rect width="52" height="64" fill="white" transform="translate(14 8)"/>
</clipPath>
</defs>
</svg>
