<svg width="64" height="64" viewBox="0 0 64 64" fill="none" xmlns="http://www.w3.org/2000/svg">
<g clip-path="url(#clip0_459_3297)">
<path d="M16.0016 48.3493C16.0016 46.7518 15.9936 45.1465 16.0016 43.549C16.0175 39.7166 21.5501 38.0798 24.4356 36.4194C25.4531 35.837 26.4626 35.4042 26.4626 34.0507V28.6602C26.4626 28.3926 25.9141 27.708 25.8108 27.4168C25.2385 25.8744 25.0477 24.1117 25.0477 22.4748C25.0477 19.1304 25.5008 15.1878 29.0143 13.6297C30.0079 13.189 31.3354 12.9844 32.4165 12.9844" stroke="#222222" stroke-width="2" stroke-linecap="round" stroke-linejoin="round"/>
<path d="M48.9984 48.3493C48.9984 46.7518 49.0064 45.1465 48.9984 43.549C48.9825 39.7166 43.45 38.0798 40.5644 36.4194C39.5469 35.837 38.5374 35.4042 38.5374 34.0507V28.6602C38.5374 28.3926 39.0859 27.708 39.1892 27.4168C39.7616 25.8744 39.9523 24.1117 39.9523 22.4748C39.9523 19.1304 39.4992 15.1878 35.9857 13.6297C34.9921 13.189 33.6646 12.9844 32.5835 12.9844" stroke="#222222" stroke-width="2" stroke-linecap="round" stroke-linejoin="round"/>
<path d="M29.7217 34.4902L31.709 36.1664L33.6247 36.2608L35.9458 34.4902" stroke="#15269D" stroke-width="2" stroke-linecap="round" stroke-linejoin="round"/>
<path d="M33.1957 36.2695L35.0479 47.5227L32.4485 51.0167L29.9604 47.5227L31.8205 36.2695" stroke="#15269D" stroke-width="2" stroke-linecap="round" stroke-linejoin="round"/>
</g>
<defs>
<clipPath id="clip0_459_3297">
<rect width="35" height="40" fill="white" transform="translate(15 12)"/>
</clipPath>
</defs>
</svg>
