<svg width="60" height="60" viewBox="0 0 60 60" fill="none" xmlns="http://www.w3.org/2000/svg">
<circle opacity="0.4" cx="40" cy="20" r="12" fill="#94BDE5"/>
<path d="M40.6956 39.7036C50.1531 41.2069 57.185 47.642 57.185 55.3532" stroke="#15269D" stroke-width="2" stroke-linecap="round" stroke-linejoin="round"/>
<path d="M35.7078 33.9399L35.9422 35.6512C36.0163 36.1964 36.1869 36.7104 36.4332 37.1753" stroke="#15269D" stroke-width="2" stroke-linecap="round" stroke-linejoin="round"/>
<path d="M23.5667 37.1768C23.8129 36.7118 23.982 36.1979 24.0577 35.6527L24.2921 33.9414" stroke="#15269D" stroke-width="2" stroke-linecap="round" stroke-linejoin="round"/>
<path d="M2.81494 55.3517C2.81494 47.6406 9.84838 41.2055 19.3059 39.7021" stroke="#15269D" stroke-width="2" stroke-linecap="round" stroke-linejoin="round"/>
<path d="M40.93 19.7236C41.065 19.7117 41.2044 19.7176 41.3424 19.7458C42.5678 19.9924 43.314 21.7676 43.0069 23.7121C42.7043 25.6477 41.4714 27.0203 40.252 26.7856C39.3559 29.8055 37.7196 32.3324 35.6367 33.9768C33.9885 35.2781 32.0584 36.0253 29.9993 36.0253C27.9401 36.0253 26.01 35.2781 24.3633 33.9768C22.2804 32.3324 20.6426 29.807 19.748 26.7856C18.5286 27.0203 17.2958 25.6477 16.9931 23.7121C16.6875 21.7676 17.4322 19.9924 18.6576 19.7458C18.7971 19.7176 18.9351 19.7117 19.0701 19.7236" stroke="#15269D" stroke-width="2" stroke-linecap="round" stroke-linejoin="round"/>
<path d="M17.8862 18.0036C18.6221 10.5539 22.0609 4.77979 30.1922 4.77979C38.3234 4.77979 41.7637 10.5539 42.501 18.0036" stroke="#15269D" stroke-width="2" stroke-linecap="round" stroke-linejoin="round"/>
<path d="M35.8769 12.2026C35.0209 12.6914 33.8682 13.244 32.3743 13.7193C28.5156 14.9478 24.737 14.9196 22.9182 14.8319" stroke="#15269D" stroke-width="2" stroke-linecap="round" stroke-linejoin="round"/>
<path d="M35.9734 12.2026C36.276 13.1043 36.6721 14.1041 37.1869 15.1053C38.5102 17.6737 39.9878 19.0091 40.964 19.6999" stroke="#15269D" stroke-width="2" stroke-linecap="round" stroke-linejoin="round"/>
<path d="M22.8218 14.9897C22.7313 15.4785 22.5637 16.0667 22.2462 16.6847C21.3027 18.5193 19.6737 19.3823 18.9824 19.6987" stroke="#15269D" stroke-width="2" stroke-linecap="round" stroke-linejoin="round"/>
<path d="M30.0056 40.9936L21.5247 35.9614L19.1658 39.9474L27.6467 44.9796L30.0056 40.9936Z" stroke="#15269D" stroke-width="2" stroke-linecap="round" stroke-linejoin="round"/>
<path d="M32.3604 44.977L40.8413 39.9448L38.4824 35.9589L30.0015 40.9911L32.3604 44.977Z" stroke="#15269D" stroke-width="2" stroke-linecap="round" stroke-linejoin="round"/>
<path d="M27.0366 44.5786L30.0007 48.6325L32.9633 44.5786" stroke="#15269D" stroke-width="2" stroke-linecap="round" stroke-linejoin="round"/>
<path d="M32.9648 56.2204L30.0007 48.6147L27.0366 56.2204" stroke="#15269D" stroke-width="2" stroke-linecap="round" stroke-linejoin="round"/>
</svg>
