<svg width="48" height="48" viewBox="0 0 48 48" fill="none" xmlns="http://www.w3.org/2000/svg">
<circle opacity="0.4" cx="34" cy="14" r="10" fill="#94BDE5"/>
<g clip-path="url(#clip0_391_7330)">
<path d="M33.8167 33.4453C38.9334 34.3009 42.3334 35.8009 42.3334 37.5175C42.3334 40.1786 34.1279 42.3342 24.0001 42.3342C13.8723 42.3342 5.66675 40.1786 5.66675 37.5175C5.66675 35.8731 8.80564 34.4175 13.589 33.5509" stroke="#15269D" stroke-width="2" stroke-linecap="round" stroke-linejoin="round"/>
<path d="M24.3111 36.1929C24.3834 36.2373 24.3778 36.2207 24.3111 36.1484C24.2445 36.2207 24.2389 36.2429 24.3111 36.1929Z" stroke="#15269D" stroke-width="2" stroke-linecap="round" stroke-linejoin="round"/>
<path d="M24.311 5.66602C17.9832 5.66602 12.8555 10.8993 12.8555 17.3493C12.8555 19.516 13.1999 20.6938 13.7721 22.5382C15.4721 28.0216 24.311 36.1493 24.311 36.1493C24.311 36.1493 33.1444 28.0271 34.8444 22.566C35.4221 20.7105 35.7721 19.5271 35.7721 17.3493C35.7721 10.8993 30.6444 5.66602 24.3166 5.66602H24.311ZM24.311 22.4716C21.1444 22.4716 18.5832 19.9049 18.5832 16.7438C18.5832 13.5827 21.1499 11.016 24.311 11.016C27.4721 11.016 30.0388 13.5827 30.0388 16.7438C30.0388 19.9049 27.4721 22.4716 24.311 22.4716Z" stroke="#15269D" stroke-width="2" stroke-linecap="round" stroke-linejoin="round"/>
</g>
<defs>
<clipPath id="clip0_391_7330">
<rect width="40" height="40" fill="white" transform="translate(4 4)"/>
</clipPath>
</defs>
</svg>
