<svg width="68" height="68" viewBox="0 0 68 68" fill="none" xmlns="http://www.w3.org/2000/svg">
<circle opacity="0.4" cx="48" cy="20" r="12" fill="#94BDE5"/>
<g clip-path="url(#clip0_368_5821)">
<path d="M24.0049 11.8921C20.0425 11.6817 15.4013 12.1024 11.9395 13.0279V49.6031C15.4013 48.686 20.0425 48.2653 24.0049 48.4672C27.5601 48.6523 30.9285 49.3255 34.0001 50.3856V13.8104C30.9285 12.7503 27.5601 12.0772 24.0049 11.8921Z" stroke="#15269D" stroke-width="2" stroke-linecap="round" stroke-linejoin="round"/>
<path d="M17.0303 20.4992C18.6594 20.2468 20.3309 20.1206 22.0194 20.1206C22.6048 20.1206 23.1903 20.1374 23.7757 20.1627C25.8206 20.2721 27.823 20.5581 29.7491 21.0209" stroke="#15269D" stroke-width="2" stroke-linecap="round" stroke-linejoin="round"/>
<path d="M17.0303 26.6667C18.6594 26.4143 20.3309 26.2881 22.0194 26.2881C22.6048 26.2881 23.1903 26.3049 23.7757 26.3302C25.8206 26.4395 27.823 26.7256 29.7491 27.1884" stroke="#15269D" stroke-width="2" stroke-linecap="round" stroke-linejoin="round"/>
<path d="M17.0303 32.8342C18.6594 32.5818 20.3309 32.4556 22.0194 32.4556C22.6048 32.4556 23.1903 32.4724 23.7757 32.4976C25.8206 32.607 27.823 32.8931 29.7491 33.3559" stroke="#15269D" stroke-width="2" stroke-linecap="round" stroke-linejoin="round"/>
<path d="M17.0303 39.01C18.6594 38.7576 20.3309 38.6313 22.0194 38.6313C22.6048 38.6313 23.1903 38.6482 23.7757 38.6734C25.8206 38.7828 27.823 39.0689 29.7491 39.5316" stroke="#15269D" stroke-width="2" stroke-linecap="round" stroke-linejoin="round"/>
<path d="M50.7832 20.4992C49.1541 20.2468 47.4826 20.1206 45.7942 20.1206C45.2087 20.1206 44.6232 20.1374 44.0378 20.1627C41.9929 20.2721 39.9905 20.5581 38.0645 21.0209" stroke="#15269D" stroke-width="2" stroke-linecap="round" stroke-linejoin="round"/>
<path d="M50.7832 26.6667C49.1541 26.4143 47.4826 26.2881 45.7942 26.2881C45.2087 26.2881 44.6232 26.3049 44.0378 26.3302C41.9929 26.4395 39.9905 26.7256 38.0645 27.1884" stroke="#15269D" stroke-width="2" stroke-linecap="round" stroke-linejoin="round"/>
<path d="M50.7832 32.8342C49.1541 32.5818 47.4826 32.4556 45.7942 32.4556C45.2087 32.4556 44.6232 32.4724 44.0378 32.4976C41.9929 32.607 39.9905 32.8931 38.0645 33.3559" stroke="#15269D" stroke-width="2" stroke-linecap="round" stroke-linejoin="round"/>
<path d="M50.7832 39.01C49.1541 38.7576 47.4826 38.6313 45.7942 38.6313C45.2087 38.6313 44.6232 38.6482 44.0378 38.6734C41.9929 38.7828 39.9905 39.0689 38.0645 39.5316" stroke="#15269D" stroke-width="2" stroke-linecap="round" stroke-linejoin="round"/>
<path d="M43.9952 11.8921C47.9576 11.6817 52.5988 12.1024 56.0606 13.0279V49.6031C52.5988 48.686 47.9576 48.2653 43.9952 48.4672C40.44 48.6523 37.0715 49.3255 34 50.3856V13.8104C37.0715 12.7503 40.44 12.0772 43.9952 11.8921Z" stroke="#15269D" stroke-width="2" stroke-linecap="round" stroke-linejoin="round"/>
<path d="M11.9395 18.1772H6.84863V55.1984H30.5129C31.2341 56.3679 32.5238 57.1588 34.0001 57.1588C35.4765 57.1588 36.7662 56.3679 37.4874 55.1984H61.1517V18.1772H56.0608" stroke="#15269D" stroke-width="2" stroke-linecap="round" stroke-linejoin="round"/>
</g>
<defs>
<clipPath id="clip0_368_5821">
<rect width="56" height="47" fill="white" transform="translate(6 11)"/>
</clipPath>
</defs>
</svg>
