<svg width="80" height="80" viewBox="0 0 80 80" fill="none" xmlns="http://www.w3.org/2000/svg">
<circle opacity="0.4" cx="64" cy="16" r="12" fill="#94BDE5"/>
<g clip-path="url(#clip0_429_4808)">
<path d="M46.2666 42.4092C46.2666 42.4092 46.2243 42.4092 46.2032 42.4092L37.3988 42.1828C36.6022 42.1616 35.8691 41.7441 35.4462 41.0578L30.251 32.6737C29.5601 31.5559 29.8985 30.0913 31.0123 29.3979C32.126 28.7045 33.5852 29.0442 34.276 30.162L38.7945 37.4566L46.323 37.6476C47.6341 37.683 48.6633 38.7726 48.6351 40.0885C48.5999 41.3833 47.5495 42.4092 46.2666 42.4092Z" fill="white"/>
<path d="M46.2666 43.4705C46.2666 43.4705 46.2102 43.4705 46.2032 43.4705L37.3706 43.2441C36.2146 43.2158 35.1572 42.6074 34.551 41.6239L29.3557 33.2398C28.3618 31.6266 28.8553 29.5041 30.4554 28.4994C30.9982 28.1598 31.6256 27.9829 32.267 27.9829C33.4583 27.9829 34.551 28.5914 35.1783 29.6102L39.3937 36.4165L46.3512 36.5934C48.2404 36.643 49.7348 38.2278 49.6925 40.124C49.6432 41.9706 48.1065 43.4776 46.2666 43.4776V43.4705ZM32.267 30.0984C32.0203 30.0984 31.7806 30.1691 31.5762 30.2965C30.9629 30.6786 30.7726 31.4922 31.1533 32.1148L36.3485 40.4989C36.5811 40.8739 36.99 41.1074 37.427 41.1216L46.2314 41.348L46.2666 42.4092V41.348C46.9715 41.348 47.5566 40.7749 47.5778 40.0603C47.5989 39.3315 47.0209 38.7301 46.2948 38.7089L38.7663 38.5179C38.4139 38.5108 38.0826 38.3198 37.8923 38.0155L33.3738 30.721C33.1341 30.3319 32.7111 30.0984 32.26 30.0984H32.267Z" fill="#15269D"/>
<path d="M13.0792 64.3777C12.0924 64.3777 11.1196 63.8895 10.5345 62.998C9.61107 61.5901 9.99878 59.6868 11.4016 58.76L19.5927 53.3404L23.8785 44.3619C24.6046 42.8408 26.4303 42.1969 27.9459 42.9257C29.4614 43.6544 30.1029 45.4798 29.3769 47.0081L24.7244 56.7506C24.4848 57.253 24.1111 57.6775 23.653 57.9817L14.7569 63.8683C14.2424 64.2079 13.6573 64.3706 13.0792 64.3706V64.3777Z" fill="white"/>
<path d="M13.0793 65.4391C11.6906 65.4391 10.4077 64.7457 9.64637 63.5854C9.04015 62.6656 8.82867 61.569 9.05425 60.4865C9.27277 59.411 9.90014 58.4771 10.8165 57.8757L18.7609 52.6188L22.9199 43.9093C23.5966 42.4872 25.0558 41.5674 26.6277 41.5674C27.241 41.5674 27.8402 41.7018 28.3971 41.9707C29.384 42.4447 30.1312 43.2796 30.4977 44.3196C30.8643 45.3597 30.8008 46.4776 30.3285 47.4681L25.6761 57.2107C25.3519 57.8828 24.8514 58.463 24.231 58.8733L15.335 64.7599C14.6583 65.2056 13.8759 65.4391 13.0793 65.4391ZM26.6277 43.697C25.8664 43.697 25.1615 44.1428 24.8302 44.8361L20.5443 53.8146C20.4598 53.9914 20.3329 54.1329 20.1707 54.2391L11.9796 59.6587C11.5355 59.9558 11.2324 60.4016 11.1267 60.9251C11.021 61.4487 11.1267 61.9793 11.4157 62.4251C12.0008 63.3095 13.2767 63.5854 14.1719 62.9911L23.0679 57.1045C23.371 56.9064 23.6107 56.6234 23.7658 56.298L28.4182 46.5554C28.6508 46.0743 28.679 45.5295 28.5028 45.0272C28.3266 44.5248 27.9671 44.1215 27.4877 43.8881C27.2128 43.7536 26.9309 43.6899 26.6277 43.6899V43.697Z" fill="#15269D"/>
<path d="M39.0413 21.2193C39.0413 18.7147 37.0182 16.6841 34.5228 16.6841C32.0274 16.6841 30.0114 18.7147 30.0114 21.2193C30.0114 23.7239 32.0345 25.7545 34.5228 25.7545C37.0111 25.7545 39.0413 23.7239 39.0413 21.2193Z" fill="white"/>
<path d="M34.5228 26.8155C31.4494 26.8155 28.954 24.3038 28.954 21.219C28.954 18.1343 31.4564 15.6226 34.5228 15.6226C37.5892 15.6226 40.0987 18.1343 40.0987 21.219C40.0987 24.3038 37.5962 26.8155 34.5228 26.8155ZM34.5228 17.7451C32.6195 17.7451 31.0687 19.3017 31.0687 21.219C31.0687 23.1364 32.6195 24.693 34.5228 24.693C36.4261 24.693 37.9839 23.1364 37.9839 21.219C37.9839 19.3017 36.4331 17.7451 34.5228 17.7451Z" fill="#15269D"/>
<path d="M39.9364 62.7506L36.5528 50.9704C36.3766 50.3549 36.0171 49.8171 35.5166 49.4209L30.843 45.6994L34.3112 32.6386C34.8822 30.4948 33.6133 28.2873 31.4704 27.7142C30.688 27.502 29.8985 27.5444 29.1794 27.785L18.4577 28.9595C17.7739 29.0373 17.1466 29.4052 16.7589 29.9783L11.7399 37.3294C10.9997 38.4119 11.2746 39.8906 12.3531 40.6406C12.762 40.9236 13.2272 41.058 13.6925 41.058C14.4467 41.058 15.1869 40.6972 15.6521 40.0251L20.0579 33.5725L25.9368 32.9286L22.9832 44.0367C22.8352 44.6027 22.8141 45.1687 22.8987 45.7065C22.8987 46.605 23.2793 47.4965 24.0406 48.0979L30.9558 53.6095L34.0715 64.4557C34.4592 65.7929 35.6787 66.6703 36.9969 66.6703C37.2789 66.6703 37.5609 66.6349 37.8428 66.55C39.4571 66.083 40.3946 64.385 39.9294 62.7648L39.9364 62.7506Z" fill="white"/>
<path d="M37.004 67.7174C35.1853 67.7174 33.564 66.4934 33.0636 64.7388L30.0395 54.2179L23.3921 48.9186C22.4405 48.1545 21.8836 47.0225 21.8554 45.7843C21.7567 45.098 21.799 44.4188 21.9753 43.7537L24.5271 34.1456L20.6641 34.5701L16.5333 40.6194C15.8919 41.5533 14.8345 42.1123 13.7066 42.1123C13.0158 42.1123 12.3461 41.9071 11.7681 41.5109C11.0139 40.9944 10.5063 40.2091 10.3371 39.3034C10.168 38.3978 10.3653 37.4851 10.8799 36.7281L15.8989 29.3769C16.4628 28.5491 17.3581 28.0114 18.352 27.9053L28.968 26.7449C29.8703 26.469 30.836 26.4478 31.7524 26.6954C33.0565 27.0421 34.1491 27.8841 34.8329 29.0585C35.5096 30.233 35.6929 31.6056 35.3404 32.9145L32.0485 45.3032L36.1793 48.5932C36.8489 49.1309 37.3353 49.8525 37.575 50.6803L40.9586 62.4606C41.586 64.6468 40.3242 66.9321 38.153 67.5618C37.7794 67.6679 37.3988 67.7245 37.0111 67.7245L37.004 67.7174ZM25.9439 31.8603C26.247 31.8603 26.5431 31.9947 26.7475 32.2282C26.9731 32.4971 27.0577 32.8579 26.9661 33.1905L24.0125 44.2985C23.9067 44.7018 23.8856 45.1122 23.9561 45.5296C23.9631 45.5862 23.9702 45.6428 23.9702 45.6994C23.9702 46.315 24.238 46.888 24.7103 47.263L31.6255 52.7746C31.7947 52.909 31.9216 53.1001 31.985 53.3123L35.1008 64.1586C35.3968 65.1916 36.5317 65.8284 37.568 65.5241C38.0755 65.3755 38.4984 65.0359 38.7593 64.569C39.013 64.102 39.0765 63.5643 38.9284 63.0478L35.5449 51.2676C35.4321 50.8643 35.1924 50.5176 34.8681 50.2558L30.1946 46.5343C29.8632 46.2725 29.7223 45.8409 29.828 45.4306L33.2962 32.3697C33.5006 31.6056 33.3949 30.8061 33.0001 30.1269C32.6054 29.4406 31.9709 28.9524 31.2096 28.7472C30.6528 28.5986 30.0677 28.6128 29.5249 28.7968C29.4544 28.818 29.3839 28.8321 29.3064 28.8463L18.5846 30.0208C18.204 30.0632 17.8586 30.2684 17.6471 30.5868L12.6211 37.9379C12.4237 38.228 12.3461 38.5818 12.4096 38.9214C12.473 39.2681 12.6704 39.5652 12.9594 39.7704C13.5374 40.1666 14.3904 40.0039 14.7851 39.4308L19.1909 32.9782C19.3671 32.7235 19.642 32.5608 19.9451 32.5254L25.8241 31.8815C25.8593 31.8815 25.9016 31.8815 25.9369 31.8815L25.9439 31.8603Z" fill="#15269D"/>
<path d="M44.0109 71.0004H29.109C28.5239 71.0004 28.0516 70.5264 28.0516 69.9391C28.0516 69.3519 28.5239 68.8778 29.109 68.8778H42.9535V60.1966C42.9535 59.6093 43.4258 59.1353 44.0109 59.1353H54.6974V50.6804C54.6974 50.0932 55.1697 49.6191 55.7547 49.6191H69.9799C70.565 49.6191 71.0373 50.0932 71.0373 50.6804C71.0373 51.2677 70.565 51.7417 69.9799 51.7417H56.8121V60.1966C56.8121 60.7838 56.3398 61.2578 55.7547 61.2578H45.0683V69.9391C45.0683 70.5264 44.596 71.0004 44.0109 71.0004Z" fill="#15269D"/>
<path d="M64.8481 51.0976C64.2631 51.0976 63.7908 50.6236 63.7908 50.0363V14.8938C63.7908 14.3066 64.2631 13.8325 64.8481 13.8325C65.4332 13.8325 65.9055 14.3066 65.9055 14.8938V50.0363C65.9055 50.6236 65.4332 51.0976 64.8481 51.0976Z" fill="#15269D"/>
<path d="M45.3503 10.0615L49.3402 15.7217L45.3503 21.3818H64.8483V10.0615H45.3503Z" fill="white"/>
<path d="M64.8482 22.4429H45.3433C44.9485 22.4429 44.5819 22.2236 44.4057 21.8698C44.2224 21.516 44.2506 21.0915 44.4833 20.7661L48.0431 15.7214L44.4833 10.6768C44.2577 10.3514 44.2224 9.92685 44.4057 9.57309C44.589 9.21933 44.9485 9 45.3433 9H64.8482C65.4333 9 65.9056 9.47404 65.9056 10.0613V21.3816C65.9056 21.9688 65.4333 22.4429 64.8482 22.4429ZM47.3946 20.3203H63.7979V11.1226H47.3946L50.2072 15.1059C50.468 15.4738 50.468 15.962 50.2072 16.3299L47.3946 20.3132V20.3203Z" fill="#15269D"/>
</g>
<defs>
<clipPath id="clip0_429_4808">
<rect width="64" height="62" fill="white" transform="translate(8 9)"/>
</clipPath>
</defs>
</svg>
