<svg width="68" height="68" viewBox="0 0 68 68" fill="none" xmlns="http://www.w3.org/2000/svg">
<circle opacity="0.4" cx="48" cy="20" r="12" fill="#94BDE5"/>
<g clip-path="url(#clip0_368_5730)">
<path d="M25.7164 51.7009L21.5425 47.4634" stroke="#15269D" stroke-width="2" stroke-linecap="round" stroke-linejoin="round"/>
<path d="M30.1558 47.2698L25.9819 43.0322" stroke="#15269D" stroke-width="2" stroke-linecap="round" stroke-linejoin="round"/>
<path d="M34.5953 42.8391L30.4214 38.6016" stroke="#15269D" stroke-width="2" stroke-linecap="round" stroke-linejoin="round"/>
<path d="M39.0344 38.4079L34.8696 34.1704" stroke="#15269D" stroke-width="2" stroke-linecap="round" stroke-linejoin="round"/>
<path d="M51.5104 27.0773L21.0116 57.5139L10.5859 46.9293L41.0848 16.4927" stroke="#15269D" stroke-width="2" stroke-linecap="round" stroke-linejoin="round"/>
<path d="M18.11 55.0356L14.6043 58.5362L9.50586 53.359L13.0116 49.8677" stroke="#15269D" stroke-width="2" stroke-linecap="round" stroke-linejoin="round"/>
<path d="M58.2747 16.2988L49.8628 24.691" stroke="#15269D" stroke-width="2" stroke-linecap="round" stroke-linejoin="round"/>
<path d="M43.373 18.1046L51.7849 9.7124" stroke="#15269D" stroke-width="2" stroke-linecap="round" stroke-linejoin="round"/>
<path d="M38.6499 14.0239L53.9451 29.5462" stroke="#15269D" stroke-width="2" stroke-linecap="round" stroke-linejoin="round"/>
<path d="M49.0391 6.92139L61.0848 19.155" stroke="#15269D" stroke-width="2" stroke-linecap="round" stroke-linejoin="round"/>
<path d="M6.91553 61.0787L11.1261 56.8872" stroke="#15269D" stroke-width="2" stroke-linecap="round" stroke-linejoin="round"/>
</g>
<defs>
<clipPath id="clip0_368_5730">
<rect width="56" height="56" fill="white" transform="translate(6 6)"/>
</clipPath>
</defs>
</svg>
