<svg width="80" height="80" viewBox="0 0 80 80" fill="none" xmlns="http://www.w3.org/2000/svg">
<circle opacity="0.4" cx="64" cy="16" r="12" fill="#94BDE5"/>
<g clip-path="url(#clip0_429_4756)">
<path d="M40.1734 13.9316H36.2395C25.9258 13.9316 17.5645 22.306 17.5645 32.6431V38.1534L10.0887 48.2506H17.5573V57.8171C17.5573 61.7136 20.7073 64.8758 24.5976 64.8758H31.1734V70.9166H54.2395V55.7017C57.1065 52.416 58.8557 48.1125 58.8557 43.4092V32.6504C58.8557 22.3206 50.4944 13.9389 40.1734 13.9389V13.9316Z" fill="white"/>
<path d="M54.2395 71.9998H31.1734C30.571 71.9998 30.0847 71.5127 30.0847 70.9094V65.9589H24.5976C20.1121 65.9589 16.4685 62.3024 16.4685 57.8098V49.3337H10.0887C9.675 49.3337 9.30484 49.1011 9.11613 48.7303C8.93468 48.3596 8.97097 47.9234 9.21048 47.589L16.4685 37.7826V32.6286C16.4685 21.7099 25.3379 12.8267 36.2323 12.8267H40.1661C51.0677 12.8267 59.9371 21.7099 59.9371 32.6286V43.3873C59.9371 48.0325 58.304 52.525 55.321 56.087V70.8948C55.321 71.4982 54.8347 71.9852 54.2323 71.9852L54.2395 71.9998ZM32.2621 69.8189H53.1508V55.6945C53.1508 55.4328 53.2452 55.1783 53.4193 54.9748C56.221 51.7617 57.7597 47.6545 57.7597 43.3946V32.6358C57.7597 22.9239 49.8702 15.0148 40.1661 15.0148H36.2323C26.5355 15.0148 18.646 22.9166 18.646 32.6358V38.1461C18.646 38.3787 18.5734 38.604 18.4355 38.793L12.2516 47.1529H17.5573C18.1597 47.1529 18.646 47.6399 18.646 48.2433V57.8098C18.646 61.0956 21.3169 63.778 24.5976 63.778H31.1734C31.7758 63.778 32.2621 64.2651 32.2621 64.8685V69.8189Z" fill="#15269D"/>
<path d="M54.8927 35.9799H59.5161C62.3177 35.9799 64.5968 38.2625 64.5968 41.0685V45.0667C64.5968 47.8727 62.3177 50.1553 59.5161 50.1553H54.8927C52.0911 50.1553 49.8121 47.8727 49.8121 45.0667V41.0613C49.8121 38.2553 52.0911 35.9727 54.8927 35.9727V35.9799Z" fill="white"/>
<path d="M59.5161 51.2458H54.8927C51.4887 51.2458 48.7234 48.4761 48.7234 45.0668V41.0613C48.7234 37.652 51.4887 34.8823 54.8927 34.8823H59.5161C62.9202 34.8823 65.6855 37.652 65.6855 41.0613V45.0668C65.6855 48.4761 62.9202 51.2458 59.5161 51.2458ZM54.8927 37.0704C52.6935 37.0704 50.9008 38.866 50.9008 41.0686V45.0741C50.9008 47.2767 52.6935 49.0722 54.8927 49.0722H59.5161C61.7153 49.0722 63.5081 47.2767 63.5081 45.0741V41.0686C63.5081 38.866 61.7153 37.0704 59.5161 37.0704H54.8927Z" fill="#15269D"/>
<path d="M70.9113 22.815C70.9113 15.233 64.7782 9.09033 57.2081 9.09033C49.6379 9.09033 43.5049 15.233 43.5049 22.815C43.5049 27.6492 46.0016 31.8945 49.7758 34.3443V39.7964H64.6403V34.3443C68.4145 31.9018 70.9113 27.6492 70.9113 22.815Z" fill="white"/>
<path d="M64.6331 40.8869H49.7686C49.1661 40.8869 48.6798 40.3998 48.6798 39.7965V34.9187C44.7387 32.1418 42.4089 27.6565 42.4089 22.8151C42.4089 14.6443 49.0427 8 57.2008 8C65.3589 8 71.9927 14.6443 71.9927 22.8151C71.9927 27.6565 69.6629 32.1418 65.7218 34.9187V39.7965C65.7218 40.3998 65.2355 40.8869 64.6331 40.8869ZM50.8645 38.706H63.5516V34.3444C63.5516 33.9736 63.7403 33.632 64.0524 33.4284C67.6669 31.0877 69.8298 27.1186 69.8298 22.8151C69.8298 15.851 64.1686 10.1808 57.2153 10.1808C50.2621 10.1808 44.6008 15.851 44.6008 22.8151C44.6008 27.1186 46.7565 31.0877 50.3782 33.4284C50.6903 33.632 50.879 33.9736 50.879 34.3444V38.706H50.8645Z" fill="#15269D"/>
<path d="M67.5145 39.3748C67.5145 40.5307 66.5782 41.4684 65.4242 41.4684H48.9774C47.8234 41.4684 46.8871 40.5307 46.8871 39.3748C46.8871 38.219 47.8234 37.2812 48.9774 37.2812H65.4242C66.5782 37.2812 67.5145 38.219 67.5145 39.3748Z" fill="white"/>
<path d="M65.4242 42.5589H48.9774C47.2282 42.5589 45.7984 41.1341 45.7984 39.3749C45.7984 37.6157 47.221 36.1909 48.9774 36.1909H65.4242C67.1807 36.1909 68.6032 37.6157 68.6032 39.3749C68.6032 41.1341 67.1807 42.5589 65.4242 42.5589ZM48.9847 38.3717C48.4331 38.3717 47.9831 38.8224 47.9831 39.3749C47.9831 39.9274 48.4331 40.3781 48.9847 40.3781H65.4315C65.9831 40.3781 66.4331 39.9274 66.4331 39.3749C66.4331 38.8224 65.9831 38.3717 65.4315 38.3717H48.9847Z" fill="#15269D"/>
<path d="M67.5145 43.5619C67.5145 44.7177 66.5782 45.6554 65.4242 45.6554H48.9774C47.8234 45.6554 46.8871 44.7177 46.8871 43.5619C46.8871 42.406 47.8234 41.4683 48.9774 41.4683H65.4242C66.5782 41.4683 67.5145 42.406 67.5145 43.5619Z" fill="white"/>
<path d="M65.4242 46.7459H48.9774C47.2282 46.7459 45.7984 45.3211 45.7984 43.5619C45.7984 41.8027 47.221 40.3779 48.9774 40.3779H65.4242C67.1807 40.3779 68.6032 41.8027 68.6032 43.5619C68.6032 45.3211 67.1807 46.7459 65.4242 46.7459ZM48.9847 42.5588C48.4331 42.5588 47.9831 43.0095 47.9831 43.5619C47.9831 44.1144 48.4331 44.5651 48.9847 44.5651H65.4315C65.9831 44.5651 66.4331 44.1144 66.4331 43.5619C66.4331 43.0095 65.9831 42.5588 65.4315 42.5588H48.9847Z" fill="#15269D"/>
</g>
<defs>
<clipPath id="clip0_429_4756">
<rect width="63" height="64" fill="white" transform="translate(9 8)"/>
</clipPath>
</defs>
</svg>
