<svg width="48" height="35" viewBox="0 0 48 35" fill="none" xmlns="http://www.w3.org/2000/svg">
<g clip-path="url(#clip0_35_188)">
<path d="M46.5763 34.2734H0.71875" stroke="white" stroke-width="2" stroke-linecap="round" stroke-linejoin="round"/>
<path d="M15.9733 28.5951C15.9733 30.9987 14.0458 32.952 11.6742 32.952C9.30245 32.952 7.375 30.9987 7.375 28.5951C7.375 26.1916 9.30245 24.2383 11.6742 24.2383C14.0458 24.2383 15.9733 26.1916 15.9733 28.5951Z" stroke="white" stroke-width="2" stroke-linecap="round" stroke-linejoin="round"/>
<path d="M13.4654 28.5966C13.4654 29.5987 12.6629 30.412 11.6741 30.412C10.6853 30.412 9.88281 29.5987 9.88281 28.5966C9.88281 27.5945 10.6853 26.7812 11.6741 26.7812C12.6629 26.7812 13.4654 27.5945 13.4654 28.5966Z" stroke="white" stroke-width="2" stroke-linecap="round" stroke-linejoin="round"/>
<path d="M36.471 32.952C38.8454 32.952 40.7702 31.0013 40.7702 28.5951C40.7702 26.1889 38.8454 24.2383 36.471 24.2383C34.0967 24.2383 32.1719 26.1889 32.1719 28.5951C32.1719 31.0013 34.0967 32.952 36.471 32.952Z" stroke="white" stroke-width="2" stroke-linecap="round" stroke-linejoin="round"/>
<path d="M36.471 30.412C37.4603 30.412 38.2623 29.5992 38.2623 28.5966C38.2623 27.594 37.4603 26.7812 36.471 26.7812C35.4817 26.7812 34.6797 27.594 34.6797 28.5966C34.6797 29.5992 35.4817 30.412 36.471 30.412Z" stroke="white" stroke-width="2" stroke-linecap="round" stroke-linejoin="round"/>
<path d="M30.5391 3.625H38.9224L43.5368 12.9559L47.2914 16.3906V26.1717C47.2914 27.014 46.6107 27.6966 45.7867 27.6966H41.4231" stroke="white" stroke-width="2" stroke-linecap="round" stroke-linejoin="round"/>
<path d="M31.5874 27.6953H16.4688" stroke="white" stroke-width="2" stroke-linecap="round" stroke-linejoin="round"/>
<path d="M40.2192 7.02344H34.4727V13.6241H44.2461" stroke="white" stroke-width="2" stroke-linecap="round" stroke-linejoin="round"/>
<path d="M30.368 27.6954V0.726562H1.75V27.6954H6.92331" stroke="white" stroke-width="2" stroke-linecap="round" stroke-linejoin="round"/>
<path d="M43.5117 17.043V19.7805" stroke="white" stroke-width="2" stroke-linecap="round" stroke-linejoin="round"/>
</g>
<defs>
<clipPath id="clip0_35_188">
<rect width="48" height="35" fill="white"/>
</clipPath>
</defs>
</svg>
