<svg width="50" height="50" viewBox="0 0 50 50" fill="none" xmlns="http://www.w3.org/2000/svg">
<circle opacity="0.4" cx="34" cy="16" r="12" fill="#94BDE5"/>
<path d="M24.3043 34.1385L32.0932 36.7119C33.5256 37.2377 35.1026 36.4906 35.626 35.0586C36.1494 33.6196 35.4056 32.0354 33.9801 31.5096L21.1089 27.1098C19.1669 26.4595 17.0596 26.5564 15.1864 27.3796L9.36719 29.9808" stroke="#15269D" stroke-width="2" stroke-linecap="round" stroke-linejoin="round"/>
<path d="M35.5369 35.4454L43.7252 32.0971C45.1025 31.4537 46.7415 32.0487 47.3889 33.4323C48.0293 34.8158 47.4371 36.4623 46.0598 37.1126L33.5742 42.9583L33.0509 43.1797C30.7094 44.1897 28.0305 44.0513 25.7992 42.813L20.8477 40.0666C18.6027 38.8213 15.9031 38.6899 13.5479 39.7207" stroke="#15269D" stroke-width="2" stroke-linecap="round" stroke-linejoin="round"/>
<path d="M2.85938 30.6733L7.19108 28.674C7.87975 28.3489 8.69926 28.6395 9.02293 29.3312L13.5819 40.1163C13.9056 40.8081 13.6163 41.6314 12.9277 41.9565L2.86626 46.972" stroke="#15269D" stroke-width="2" stroke-linecap="round" stroke-linejoin="round"/>
<path d="M6.0412 35.4461C6.42154 35.4461 6.72987 35.1364 6.72987 34.7543C6.72987 34.3722 6.42154 34.0625 6.0412 34.0625C5.66087 34.0625 5.35254 34.3722 5.35254 34.7543C5.35254 35.1364 5.66087 35.4461 6.0412 35.4461Z" stroke="#15269D" stroke-width="2" stroke-linecap="round" stroke-linejoin="round"/>
<path d="M27.6787 24.6825V8.07251C27.6787 6.12856 28.3605 4.20537 29.7585 2.86328" stroke="#15269D" stroke-width="2" stroke-linecap="round" stroke-linejoin="round"/>
<path d="M27.9749 18.8366C27.9749 18.8366 26.8386 7.42196 43.7454 10.4935C43.7454 10.4935 38.6493 28.3004 27.9749 18.8366Z" stroke="#15269D" stroke-width="2" stroke-linecap="round" stroke-linejoin="round"/>
<path d="M27.9746 18.8365L38.2426 13.7656" stroke="#15269D" stroke-width="2" stroke-linecap="round" stroke-linejoin="round"/>
<path d="M27.1349 13.1502C27.1349 13.1502 28.1197 3.25055 13.458 5.91397C13.458 5.91397 17.8724 21.3549 27.1349 13.1502Z" stroke="#15269D" stroke-width="2" stroke-linecap="round" stroke-linejoin="round"/>
<path d="M27.1349 13.1498L18.2305 8.75" stroke="#15269D" stroke-width="2" stroke-linecap="round" stroke-linejoin="round"/>
<path d="M19.2568 26.5434C21.3091 25.5749 23.685 25.0215 26.2192 25.0215C32.6376 25.0215 38.0643 28.5773 39.7928 33.4545" stroke="#15269D" stroke-width="2" stroke-linecap="round" stroke-linejoin="round"/>
</svg>
