<svg width="100" height="100" viewBox="0 0 100 100" fill="none" xmlns="http://www.w3.org/2000/svg">
<circle opacity="0.4" cx="75" cy="31" r="12" fill="#94BDE5"/>
<path d="M18 17H22.5714M82 17H78.0816M78.0816 17H22.5714M78.0816 17V47.5728M22.5714 17V47.5728M22.5714 47.5728V78.1456H78.0816V47.5728M22.5714 47.5728H78.0816M18 84H39.551M60.449 84H82" stroke="#15269D" stroke-width="2" stroke-linecap="round" stroke-linejoin="round"/>
<path d="M65.4907 38.7836H35.8154V28.6381H41.8067L43.1105 25.3448C43.6321 24.0301 45.1032 23.0342 46.5274 23.0342H52.98C54.3441 23.0342 55.862 23.9239 56.5172 25.1058L58.4764 28.6381H61.5991C63.7388 28.6381 65.484 30.3711 65.484 32.4958V38.7836H65.4907Z" fill="#F6F8FA" stroke="#15269D" stroke-width="2" stroke-linecap="round" stroke-linejoin="round"/>
<path d="M45.6986 38.8435C45.6986 40.696 44.1874 42.1899 42.3285 42.1899C40.4696 42.1899 38.9584 40.6893 38.9584 38.8435C38.9584 36.9976 40.4696 35.4971 42.3285 35.4971C44.1874 35.4971 45.6986 36.9976 45.6986 38.8435Z" fill="#F6F8FA" stroke="#15269D" stroke-width="2" stroke-linecap="round" stroke-linejoin="round"/>
<path d="M62.034 38.8435C62.034 40.696 60.5228 42.1899 58.6639 42.1899C56.8051 42.1899 55.2939 40.6893 55.2939 38.8435C55.2939 36.9976 56.8051 35.4971 58.6639 35.4971C60.5228 35.4971 62.034 36.9976 62.034 38.8435Z" fill="#F6F8FA" stroke="#15269D" stroke-width="2" stroke-linecap="round" stroke-linejoin="round"/>
<path d="M65.4907 70.0063H35.8154V59.8608H41.8067L43.1105 56.5675C43.6321 55.2528 45.1032 54.2568 46.5274 54.2568H52.98C54.3441 54.2568 55.862 55.1466 56.5172 56.3284L58.4764 59.8608H61.5991C63.7388 59.8608 65.484 61.5937 65.484 63.7184V70.0063H65.4907Z" fill="#F6F8FA" stroke="#15269D" stroke-width="2" stroke-linecap="round" stroke-linejoin="round"/>
<path d="M45.6986 70.0661C45.6986 71.9186 44.1874 73.4126 42.3285 73.4126C40.4696 73.4126 38.9584 71.912 38.9584 70.0661C38.9584 68.2203 40.4696 66.7197 42.3285 66.7197C44.1874 66.7197 45.6986 68.2203 45.6986 70.0661Z" fill="#F6F8FA" stroke="#15269D" stroke-width="2" stroke-linecap="round" stroke-linejoin="round"/>
<path d="M62.034 70.0661C62.034 71.9186 60.5228 73.4126 58.6639 73.4126C56.8051 73.4126 55.2939 71.912 55.2939 70.0661C55.2939 68.2203 56.8051 66.7197 58.6639 66.7197C60.5228 66.7197 62.034 68.2203 62.034 70.0661Z" fill="#F6F8FA" stroke="#15269D" stroke-width="2" stroke-linecap="round" stroke-linejoin="round"/>
</svg>
