<svg width="620" height="620" viewBox="0 0 620 620" fill="none" xmlns="http://www.w3.org/2000/svg">
<rect x="30" y="30" width="560" height="560" rx="280" fill="#F8F8F8"/>
<g filter="url(#filter0_d_429_4778)">
<rect x="110" y="110" width="400" height="400" rx="200" fill="white"/>
<g clip-path="url(#clip0_429_4778)">
<path d="M219.605 327.779C219.366 327.586 219.081 327.439 218.765 327.347C218.45 327.254 218.111 327.208 217.764 327.208H215.593C215.454 327.208 215.362 327.238 215.308 327.292C215.254 327.347 215.223 327.439 215.223 327.578V334.853H216.517V331.826H217.857C218.188 331.826 218.504 331.78 218.812 331.687C219.12 331.594 219.389 331.448 219.62 331.254C219.851 331.061 220.044 330.822 220.174 330.528C220.313 330.243 220.382 329.903 220.382 329.517C220.382 329.131 220.313 328.798 220.174 328.505C220.036 328.212 219.843 327.964 219.605 327.771V327.779ZM219.066 329.524C219.066 329.949 218.95 330.25 218.719 330.42C218.48 330.59 218.126 330.683 217.664 330.683H216.509V328.351H217.664C218.126 328.351 218.48 328.443 218.719 328.621C218.95 328.791 219.066 329.1 219.066 329.524Z" fill="#808080"/>
<path d="M233.103 328.196C232.764 327.872 232.356 327.625 231.871 327.462C231.394 327.3 230.847 327.215 230.239 327.215H228.529C228.39 327.215 228.306 327.246 228.244 327.3C228.183 327.354 228.159 327.447 228.159 327.586V334.491C228.159 334.63 228.19 334.715 228.244 334.776C228.298 334.838 228.39 334.861 228.529 334.861H230.239C230.847 334.861 231.394 334.776 231.871 334.614C232.356 334.452 232.772 334.205 233.103 333.88C233.442 333.556 233.696 333.154 233.873 332.683C234.05 332.212 234.135 331.656 234.135 331.038C234.135 330.42 234.042 329.88 233.873 329.401C233.704 328.922 233.442 328.521 233.103 328.196ZM232.803 331.038C232.803 331.888 232.618 332.552 232.248 333.015C231.886 333.471 231.309 333.703 230.508 333.703H229.469V328.343H230.023C230.462 328.327 230.862 328.374 231.209 328.466C231.555 328.559 231.84 328.714 232.071 328.93C232.302 329.138 232.487 329.424 232.61 329.764C232.733 330.112 232.803 330.536 232.803 331.038Z" fill="#808080"/>
<path d="M243.629 327.177H242.335V334.854H243.629V327.177Z" fill="#808080"/>
<path d="M257.82 331.957C257.905 331.525 257.943 331.03 257.928 330.498V330.397H256.735V330.505C256.735 330.907 256.704 331.262 256.65 331.548C256.611 331.741 256.573 331.895 256.542 332.011L255.125 330.459C255.241 330.366 255.356 330.266 255.472 330.158C255.618 330.026 255.764 329.872 255.888 329.702C256.018 329.54 256.119 329.347 256.203 329.146C256.288 328.937 256.326 328.714 256.326 328.474C256.326 328.266 256.28 328.065 256.203 327.879C256.119 327.694 255.995 327.532 255.826 327.393C255.664 327.254 255.464 327.146 255.225 327.068C254.994 326.991 254.725 326.953 254.425 326.953C254.147 326.953 253.893 326.999 253.67 327.092C253.447 327.184 253.262 327.3 253.108 327.455C252.954 327.601 252.838 327.779 252.754 327.988C252.677 328.188 252.638 328.405 252.638 328.636C252.638 328.829 252.661 329.007 252.715 329.169C252.761 329.331 252.823 329.478 252.9 329.609C252.977 329.748 253.062 329.88 253.162 330.003C253.239 330.096 253.316 330.189 253.385 330.281C253.177 330.436 252.985 330.598 252.807 330.76C252.607 330.953 252.422 331.146 252.276 331.347C252.122 331.548 252.007 331.764 251.914 331.988C251.83 332.212 251.783 332.452 251.783 332.706C251.783 333.1 251.86 333.44 252.007 333.726C252.153 334.012 252.361 334.251 252.615 334.429C252.9 334.645 253.2 334.792 253.508 334.853C253.809 334.915 254.163 334.946 254.548 334.946C255.056 334.946 255.51 334.846 255.895 334.653C256.242 334.483 256.527 334.282 256.742 334.05L257.397 334.792H259.06L257.451 333.015C257.605 332.706 257.728 332.343 257.805 331.942L257.82 331.957ZM253.208 332.228C253.262 332.089 253.331 331.957 253.424 331.841C253.524 331.718 253.639 331.594 253.778 331.478C253.901 331.378 254.032 331.27 254.17 331.162L255.934 333.147C255.772 333.34 255.572 333.494 255.349 333.61C255.094 333.741 254.794 333.803 254.455 333.803C254.286 333.803 254.124 333.78 253.963 333.734C253.809 333.687 253.662 333.618 253.539 333.533C253.416 333.44 253.316 333.332 253.246 333.185C253.169 333.046 253.139 332.876 253.139 332.691C253.139 332.521 253.162 332.367 253.216 332.228H253.208ZM254.448 329.54C254.448 329.54 254.386 329.586 254.355 329.609C254.355 329.609 254.348 329.602 254.34 329.594C254.317 329.563 254.286 329.532 254.271 329.517C254.247 329.486 254.232 329.463 254.201 329.432C254.194 329.424 254.178 329.401 254.155 329.362C254.055 329.231 253.978 329.107 253.939 328.992C253.901 328.868 253.878 328.729 253.878 328.582C253.878 328.397 253.924 328.25 254.024 328.157C254.124 328.057 254.255 328.011 254.432 328.011C254.671 328.011 254.848 328.057 254.925 328.142C255.01 328.227 255.056 328.358 255.056 328.513C255.056 328.721 255.017 328.891 254.933 329.022C254.848 329.161 254.733 329.293 254.594 329.416C254.548 329.455 254.502 329.494 254.448 329.532V329.54Z" fill="#808080"/>
<path d="M267.438 327.208H266.121V334.483C266.121 334.622 266.152 334.707 266.206 334.769C266.26 334.83 266.352 334.853 266.491 334.853H270.833V333.71H267.438V327.208Z" fill="#808080"/>
<path d="M283.723 328.18C283.439 327.825 283.077 327.555 282.653 327.354C282.23 327.161 281.744 327.061 281.221 327.061C280.697 327.061 280.204 327.161 279.781 327.354C279.365 327.555 279.011 327.833 278.726 328.18C278.441 328.528 278.226 328.953 278.087 329.432C277.941 329.91 277.871 330.443 277.871 331.023C277.871 331.602 277.941 332.142 278.087 332.621C278.233 333.108 278.449 333.533 278.726 333.872C279.011 334.22 279.365 334.498 279.781 334.691C280.197 334.884 280.682 334.985 281.221 334.985C281.76 334.985 282.23 334.884 282.653 334.691C283.077 334.498 283.431 334.22 283.723 333.872C284.008 333.525 284.232 333.1 284.386 332.621C284.532 332.142 284.609 331.602 284.609 331.015C284.609 330.428 284.532 329.903 284.386 329.424C284.232 328.937 284.008 328.513 283.723 328.173V328.18ZM281.229 333.849C280.867 333.849 280.559 333.772 280.312 333.625C280.058 333.471 279.85 333.27 279.696 333.015C279.535 332.753 279.411 332.451 279.342 332.119C279.265 331.779 279.227 331.416 279.227 331.038C279.227 330.66 279.265 330.304 279.342 329.964C279.419 329.625 279.542 329.323 279.696 329.061C279.858 328.806 280.066 328.597 280.312 328.443C280.559 328.296 280.867 328.219 281.229 328.219C281.59 328.219 281.883 328.296 282.137 328.443C282.391 328.597 282.599 328.806 282.761 329.061C282.93 329.316 283.046 329.625 283.123 329.964C283.2 330.304 283.238 330.667 283.238 331.038C283.238 331.617 283.154 332.142 282.977 332.606C282.807 333.054 282.522 333.401 282.129 333.633C281.883 333.78 281.575 333.857 281.221 333.857L281.229 333.849Z" fill="#808080"/>
<path d="M294.165 329.022C294.319 328.775 294.511 328.574 294.75 328.428C294.981 328.281 295.281 328.211 295.62 328.211C295.79 328.211 295.951 328.235 296.113 328.273C296.275 328.312 296.413 328.381 296.544 328.482C296.667 328.574 296.783 328.698 296.868 328.86C296.952 329.015 297.014 329.208 297.045 329.447L297.06 329.54H298.369V329.432C298.346 329.038 298.254 328.69 298.092 328.389C297.93 328.096 297.722 327.848 297.468 327.648C297.214 327.455 296.929 327.308 296.613 327.215C296.298 327.123 295.967 327.076 295.636 327.076C295.135 327.076 294.673 327.177 294.265 327.377C293.864 327.578 293.518 327.856 293.233 328.211C292.956 328.559 292.74 328.984 292.594 329.47C292.448 329.949 292.371 330.482 292.371 331.046C292.371 331.61 292.448 332.181 292.594 332.668C292.74 333.154 292.964 333.579 293.248 333.927C293.541 334.274 293.903 334.552 294.326 334.738C294.75 334.923 295.243 335.023 295.79 335.023C296.252 335.023 296.683 334.954 297.068 334.807C297.453 334.66 297.807 334.475 298.123 334.251C298.277 334.143 298.354 333.988 298.354 333.795V331.092C298.354 330.953 298.323 330.861 298.269 330.806C298.215 330.752 298.123 330.722 297.984 330.722H295.474V331.857H297.06V333.533L297.052 333.54C296.937 333.61 296.775 333.695 296.583 333.764C296.39 333.842 296.167 333.873 295.905 333.873C295.512 333.873 295.174 333.803 294.896 333.656C294.619 333.51 294.396 333.317 294.226 333.069C294.057 332.822 293.926 332.521 293.841 332.173C293.757 331.826 293.718 331.448 293.718 331.054C293.718 330.66 293.749 330.289 293.826 329.941C293.895 329.602 294.011 329.3 294.165 329.046V329.022Z" fill="#808080"/>
<path d="M308.094 327.177H306.801V334.854H308.094V327.177Z" fill="#808080"/>
<path d="M320.838 331.224C320.645 331.069 320.422 330.938 320.176 330.83C319.922 330.722 319.675 330.629 319.429 330.536L318.682 330.274C318.474 330.196 318.281 330.111 318.135 330.011C317.989 329.918 317.873 329.803 317.796 329.671C317.719 329.54 317.681 329.37 317.681 329.162C317.681 328.868 317.789 328.644 318.012 328.474C318.235 328.297 318.536 328.212 318.89 328.212C319.036 328.212 319.182 328.227 319.313 328.258C319.444 328.289 319.56 328.343 319.668 328.412C319.768 328.482 319.852 328.59 319.914 328.714C319.983 328.845 320.022 329.015 320.029 329.216V329.316H321.377V329.208C321.369 328.76 321.277 328.381 321.092 328.096C320.915 327.81 320.676 327.578 320.391 327.432C320.16 327.308 319.922 327.208 319.675 327.153C319.221 327.045 318.559 327.014 317.943 327.208C317.642 327.3 317.373 327.447 317.134 327.632C316.895 327.825 316.703 328.057 316.557 328.327C316.41 328.605 316.333 328.922 316.333 329.27C316.333 329.617 316.395 329.911 316.518 330.15C316.641 330.389 316.795 330.59 316.996 330.76C317.188 330.922 317.411 331.061 317.65 331.17C317.889 331.278 318.135 331.37 318.374 331.448C318.69 331.563 318.967 331.672 319.198 331.756C319.429 331.841 319.614 331.934 319.76 332.027C319.899 332.112 319.999 332.22 320.06 332.336C320.122 332.452 320.153 332.598 320.153 332.776C320.153 332.954 320.114 333.124 320.045 333.247C319.976 333.378 319.868 333.494 319.745 333.587C319.621 333.68 319.475 333.741 319.321 333.788C318.974 333.88 318.589 333.865 318.289 333.803C318.135 333.772 317.997 333.703 317.881 333.61C317.766 333.517 317.681 333.386 317.612 333.224C317.542 333.062 317.511 332.838 317.519 332.56V332.452H316.141V332.56C316.141 333.34 316.387 333.95 316.849 334.375C317.311 334.792 317.943 335.008 318.736 335.008C319.129 335.008 319.475 334.977 319.775 334.915C320.076 334.853 320.384 334.707 320.669 334.491C320.93 334.313 321.138 334.066 321.285 333.757C321.423 333.456 321.5 333.1 321.5 332.714C321.5 332.367 321.439 332.065 321.315 331.834C321.192 331.602 321.03 331.401 320.838 331.239V331.224Z" fill="#808080"/>
<path d="M328.553 328.351H330.74V334.853H332.034V328.351H334.205V327.208H328.553V328.351Z" fill="#808080"/>
<path d="M343.191 327.177H341.898V334.854H343.191V327.177Z" fill="#808080"/>
<path d="M355.997 332.644C355.896 333.108 355.727 333.424 355.496 333.594C355.257 333.764 354.957 333.849 354.603 333.849C354.249 333.849 353.933 333.772 353.702 333.618C353.463 333.463 353.271 333.255 353.117 332.992C352.963 332.729 352.855 332.42 352.793 332.088C352.732 331.749 352.701 331.393 352.701 331.038C352.701 330.683 352.732 330.335 352.793 329.988C352.855 329.656 352.963 329.347 353.117 329.084C353.263 328.821 353.463 328.613 353.702 328.458C353.941 328.304 354.249 328.227 354.603 328.227C354.957 328.227 355.265 328.312 355.511 328.489C355.75 328.659 355.904 328.945 355.958 329.347L355.973 329.439H357.329L357.313 329.323C357.275 328.93 357.167 328.582 356.998 328.296C356.828 328.011 356.62 327.771 356.374 327.586C356.127 327.4 355.843 327.269 355.527 327.184C355.219 327.099 354.903 327.061 354.58 327.061C354.01 327.061 353.517 327.176 353.109 327.4C352.701 327.624 352.362 327.926 352.1 328.304C351.839 328.675 351.646 329.099 351.523 329.578C351.4 330.049 351.338 330.544 351.338 331.046C351.338 331.548 351.4 332.057 351.523 332.529C351.646 333 351.839 333.432 352.1 333.795C352.362 334.158 352.701 334.459 353.109 334.683C353.517 334.9 354.01 335.015 354.572 335.015C354.911 335.015 355.242 334.969 355.558 334.869C355.873 334.768 356.158 334.622 356.405 334.428C356.651 334.235 356.867 333.988 357.028 333.695C357.198 333.401 357.298 333.069 357.344 332.683V332.567H356.012L355.997 332.652V332.644Z" fill="#808080"/>
<path d="M369.988 331.818C369.872 331.587 369.711 331.386 369.51 331.224C369.318 331.069 369.094 330.93 368.848 330.83C368.602 330.729 368.348 330.629 368.101 330.536L367.354 330.274C367.139 330.196 366.954 330.111 366.8 330.011C366.654 329.918 366.538 329.803 366.461 329.671C366.384 329.548 366.346 329.378 366.346 329.162C366.346 328.868 366.453 328.644 366.677 328.474C366.908 328.297 367.2 328.212 367.554 328.212C367.708 328.212 367.847 328.227 367.986 328.258C368.117 328.289 368.232 328.343 368.332 328.412C368.432 328.482 368.517 328.59 368.579 328.714C368.648 328.845 368.686 329.015 368.694 329.216V329.316H370.042V329.208C370.034 328.76 369.941 328.381 369.757 328.096C369.58 327.802 369.341 327.578 369.056 327.432C368.825 327.308 368.579 327.208 368.348 327.153C367.886 327.045 367.223 327.014 366.615 327.208C366.322 327.3 366.045 327.447 365.807 327.632C365.568 327.825 365.368 328.057 365.221 328.327C365.075 328.605 364.998 328.922 364.998 329.27C364.998 329.617 365.06 329.911 365.183 330.15C365.306 330.389 365.46 330.59 365.66 330.76C365.853 330.922 366.076 331.061 366.315 331.17C366.553 331.278 366.792 331.37 367.039 331.448C367.354 331.563 367.639 331.672 367.862 331.756C368.086 331.841 368.278 331.934 368.425 332.027C368.563 332.112 368.663 332.22 368.725 332.336C368.786 332.452 368.817 332.598 368.817 332.776C368.817 332.954 368.779 333.124 368.709 333.247C368.632 333.378 368.532 333.494 368.409 333.587C368.286 333.68 368.14 333.741 367.986 333.788C367.631 333.88 367.246 333.865 366.954 333.803C366.792 333.772 366.661 333.703 366.546 333.61C366.43 333.517 366.346 333.386 366.276 333.224C366.207 333.054 366.176 332.83 366.184 332.56V332.452H364.813V332.56C364.813 333.34 365.06 333.95 365.522 334.375C365.976 334.792 366.615 335.008 367.408 335.008C367.801 335.008 368.147 334.977 368.448 334.915C368.748 334.853 369.056 334.707 369.341 334.491C369.603 334.313 369.811 334.066 369.957 333.757C370.103 333.456 370.173 333.1 370.173 332.714C370.173 332.367 370.111 332.065 369.988 331.834V331.818Z" fill="#808080"/>
<path d="M227.644 285.695H215V321.044H222.246V308.587H227.651C231.755 308.587 234.674 307.529 236.422 305.413C238.162 303.296 239.04 300.57 239.04 297.226C239.04 293.882 238.17 291.024 236.422 288.893C234.674 286.761 231.755 285.695 227.651 285.695H227.644ZM230.462 303.714C229.584 305.235 228.236 305.992 226.435 305.992H222.238V288.344H226.435C228.236 288.344 229.576 289.117 230.462 290.654C231.347 292.191 231.786 294.384 231.786 297.226C231.786 300.068 231.347 302.192 230.462 303.714Z" fill="#171A57"/>
<path d="M249.743 285.695H242.497V321.037H262.733V317.461H249.743V285.695Z" fill="#171A57"/>
<path d="M280.143 300.624L277.094 299.821C275.292 299.357 273.913 298.886 272.959 298.407C271.996 297.929 271.311 297.334 270.887 296.623C270.464 295.913 270.256 294.978 270.256 293.828C270.256 291.982 270.818 290.545 271.95 289.503C273.082 288.46 274.66 287.943 276.693 287.943C278.726 287.943 280.197 288.692 281.352 290.19C282.384 291.534 283.007 293.395 283.269 295.728H289.229C288.728 292.074 287.466 289.379 285.433 287.626C283.4 285.88 280.505 285 276.755 285C272.689 285 269.625 285.888 267.553 287.649C265.482 289.418 264.45 292.051 264.45 295.55C264.45 298.624 265.151 300.979 266.552 302.617C267.946 304.254 270.318 305.451 273.652 306.223L276.354 306.918C278.31 307.382 279.781 307.853 280.782 308.332C281.775 308.811 282.484 309.398 282.907 310.093C283.331 310.78 283.539 311.707 283.539 312.858C283.539 314.781 282.946 316.248 281.752 317.268C280.566 318.287 278.857 318.797 276.639 318.797C274.568 318.797 272.92 318.055 271.696 316.572C270.602 315.252 269.909 313.383 269.578 311.012H263.703C264.127 314.665 265.389 317.368 267.499 319.113C269.609 320.867 272.651 321.739 276.639 321.739C280.628 321.739 283.947 320.836 286.157 319.028C288.359 317.221 289.46 314.626 289.46 311.243C289.46 308.247 288.752 305.938 287.335 304.323C285.918 302.709 283.523 301.481 280.151 300.632L280.143 300.624Z" fill="#171A57"/>
<path d="M321.762 316.31C320.838 317.885 319.267 318.673 317.049 318.673C315.132 318.673 313.646 318.148 312.591 317.09C311.536 316.032 310.797 314.41 310.381 312.217C309.958 310.023 309.75 307.088 309.75 303.397C309.75 299.705 309.958 296.701 310.381 294.484C310.805 292.275 311.536 290.646 312.591 289.588C313.646 288.53 315.132 288.004 317.049 288.004C318.967 288.004 320.453 288.676 321.392 290.02C322.209 291.194 322.74 292.847 323.025 294.917H328.954C328.569 291.65 327.506 289.178 325.766 287.51C324.026 285.834 321.123 285 317.057 285C313.338 285 310.42 285.695 308.287 287.078C306.162 288.46 304.668 290.491 303.805 293.163C302.943 295.836 302.512 299.249 302.512 303.397C302.512 307.544 302.943 310.95 303.805 313.607C304.668 316.256 306.162 318.279 308.287 319.662C310.412 321.044 313.338 321.739 317.057 321.739C320.045 321.739 322.393 321.245 324.103 320.272C325.804 319.291 327.021 317.939 327.753 316.209C328.484 314.479 328.938 312.286 329.131 309.637H323.256C323.156 312.556 322.671 314.796 321.777 316.325L321.762 316.31Z" fill="#262B90"/>
<path d="M355.273 296.646C353.394 293.99 350.098 292.669 345.386 292.669C340.673 292.669 337.308 294.005 335.414 296.677C333.52 299.35 332.565 302.856 332.565 307.196C332.565 316.881 336.839 321.724 345.386 321.724C350.098 321.724 353.394 320.388 355.273 317.715C357.152 315.043 358.091 311.537 358.091 307.189C358.091 302.84 357.152 299.288 355.273 296.639V296.646ZM349.675 315.12C348.851 317.128 347.411 318.132 345.355 318.132C341.62 318.132 339.757 314.487 339.757 307.196C339.757 303.929 340.173 301.288 341.004 299.28C341.836 297.272 343.284 296.268 345.363 296.268C347.442 296.268 348.859 297.264 349.682 299.265C350.499 301.257 350.914 303.906 350.914 307.204C350.914 310.502 350.506 313.112 349.682 315.12H349.675Z" fill="#262B90"/>
<path d="M369.302 297.288V293.357H362.118V321.037H369.302V305.011C369.302 302.779 369.926 301.111 371.173 299.991C372.421 298.879 374.515 298.315 377.464 298.315V293.125C375.432 293.125 373.653 293.627 372.121 294.623C371.019 295.342 370.088 296.23 369.302 297.28V297.288Z" fill="#262B90"/>
<path d="M402.467 296.677C400.78 294.005 397.831 292.669 393.612 292.669C391.656 292.669 389.661 293.248 387.629 294.383V293.356H380.444V334.706H387.629V320.859C389.469 321.438 391.425 321.724 393.496 321.724C397.785 321.724 400.78 320.388 402.467 317.715C404.153 315.043 405 311.537 405 307.189C405 302.84 404.153 299.334 402.467 296.67V296.677ZM396.345 315.12C395.367 317.128 393.65 318.132 391.201 318.132C389.785 318.132 388.599 317.762 387.636 317.02V297.303C388.576 296.616 389.754 296.26 391.201 296.26C393.65 296.26 395.367 297.257 396.345 299.257C397.323 301.249 397.808 303.898 397.808 307.189C397.808 310.463 397.323 313.105 396.345 315.113V315.12Z" fill="#262B90"/>
</g>
</g>
<path d="M90.7967 529.203C-30.2659 408.141 -30.2659 211.859 90.7967 90.7969C106.418 75.1759 131.744 75.1759 147.365 90.7969C162.986 106.418 162.986 131.744 147.365 147.365C57.5446 237.186 57.5446 382.814 147.365 472.635C162.986 488.256 162.986 513.582 147.365 529.203C131.744 544.824 106.418 544.824 90.7967 529.203Z" fill="url(#paint0_linear_429_4778)"/>
<path d="M90.7968 529.203C75.1758 513.582 75.1758 488.256 90.7968 472.635C106.418 457.014 131.744 457.014 147.365 472.635C237.186 562.455 382.814 562.455 472.634 472.635C488.255 457.014 513.582 457.014 529.203 472.635C544.824 488.256 544.824 513.582 529.203 529.203C408.14 650.266 211.859 650.266 90.7968 529.203Z" fill="url(#paint1_linear_429_4778)"/>
<path d="M472.635 147.365C457.014 131.744 457.014 106.418 472.635 90.7969C488.256 75.1759 513.582 75.1759 529.203 90.7969C650.266 211.859 650.266 408.141 529.203 529.203C513.582 544.824 488.256 544.824 472.635 529.203C457.014 513.582 457.014 488.256 472.635 472.635C562.455 382.814 562.455 237.186 472.635 147.365Z" fill="url(#paint2_linear_429_4778)"/>
<path d="M472.634 147.365C382.814 57.5447 237.186 57.5447 147.365 147.365C131.744 162.986 106.418 162.986 90.7968 147.365C75.1758 131.744 75.1758 106.418 90.7968 90.7968C211.859 -30.2657 408.14 -30.2658 529.203 90.7968C544.824 106.418 544.824 131.744 529.203 147.365C513.582 162.986 488.255 162.986 472.634 147.365Z" fill="url(#paint3_linear_429_4778)"/>
<path d="M127 118C127.552 118 128 118.448 128 119C128 119.552 127.552 120 127 120H111C110.448 120 110 119.552 110 119C110 118.448 110.448 118 111 118H127Z" fill="white"/>
<path d="M120.005 127.005C120.005 127.557 119.557 128.005 119.005 128.005C118.453 128.005 118.005 127.557 118.005 127.005L118.005 111.005C118.005 110.453 118.453 110.005 119.005 110.005C119.557 110.005 120.005 110.453 120.005 111.005L120.005 127.005Z" fill="white"/>
<path d="M508 118C508.552 118 509 118.448 509 119C509 119.552 508.552 120 508 120H492C491.448 120 491 119.552 491 119C491 118.448 491.448 118 492 118H508Z" fill="white"/>
<path d="M501.005 127.005C501.005 127.557 500.557 128.005 500.005 128.005C499.453 128.005 499.005 127.557 499.005 127.005L499.005 111.005C499.005 110.453 499.453 110.005 500.005 110.005C500.557 110.005 501.005 110.453 501.005 111.005L501.005 127.005Z" fill="white"/>
<path d="M127 499C127.552 499 128 499.448 128 500C128 500.552 127.552 501 127 501H111C110.448 501 110 500.552 110 500C110 499.448 110.448 499 111 499H127Z" fill="white"/>
<path d="M120.005 508.005C120.005 508.557 119.557 509.005 119.005 509.005C118.453 509.005 118.005 508.557 118.005 508.005L118.005 492.005C118.005 491.453 118.453 491.005 119.005 491.005C119.557 491.005 120.005 491.453 120.005 492.005L120.005 508.005Z" fill="white"/>
<path d="M508 499C508.552 499 509 499.448 509 500C509 500.552 508.552 501 508 501H492C491.448 501 491 500.552 491 500C491 499.448 491.448 499 492 499H508Z" fill="white"/>
<path d="M501.005 508.005C501.005 508.557 500.557 509.005 500.005 509.005C499.453 509.005 499.005 508.557 499.005 508.005L499.005 492.005C499.005 491.453 499.453 491.005 500.005 491.005C500.557 491.005 501.005 491.453 501.005 492.005L501.005 508.005Z" fill="white"/>
<defs>
<filter id="filter0_d_429_4778" x="90" y="94" width="440" height="440" filterUnits="userSpaceOnUse" color-interpolation-filters="sRGB">
<feFlood flood-opacity="0" result="BackgroundImageFix"/>
<feColorMatrix in="SourceAlpha" type="matrix" values="0 0 0 0 0 0 0 0 0 0 0 0 0 0 0 0 0 0 127 0" result="hardAlpha"/>
<feOffset dy="4"/>
<feGaussianBlur stdDeviation="10"/>
<feComposite in2="hardAlpha" operator="out"/>
<feColorMatrix type="matrix" values="0 0 0 0 0.0823529 0 0 0 0 0.14902 0 0 0 0 0.615686 0 0 0 0.08 0"/>
<feBlend mode="normal" in2="BackgroundImageFix" result="effect1_dropShadow_429_4778"/>
<feBlend mode="normal" in="SourceGraphic" in2="effect1_dropShadow_429_4778" result="shape"/>
</filter>
<linearGradient id="paint0_linear_429_4778" x1="119" y1="501" x2="119" y2="119" gradientUnits="userSpaceOnUse">
<stop stop-color="#0D1A79" stop-opacity="0"/>
<stop offset="1" stop-color="#0D1A79"/>
</linearGradient>
<linearGradient id="paint1_linear_429_4778" x1="119" y1="500.838" x2="501" y2="500.838" gradientUnits="userSpaceOnUse">
<stop stop-color="#435DB7"/>
<stop offset="1" stop-color="#435DB7" stop-opacity="0"/>
</linearGradient>
<linearGradient id="paint2_linear_429_4778" x1="501" y1="119" x2="501" y2="501" gradientUnits="userSpaceOnUse">
<stop stop-color="#5B8BE1" stop-opacity="0"/>
<stop offset="1" stop-color="#5B8BE1"/>
</linearGradient>
<linearGradient id="paint3_linear_429_4778" x1="119" y1="119" x2="501" y2="119" gradientUnits="userSpaceOnUse">
<stop stop-color="#94BDE5" stop-opacity="0"/>
<stop offset="1" stop-color="#94BDE5"/>
</linearGradient>
<clipPath id="clip0_429_4778">
<rect width="190" height="50" fill="white" transform="translate(215 285)"/>
</clipPath>
</defs>
</svg>
