<svg width="96" height="43" viewBox="0 0 96 43" fill="none" xmlns="http://www.w3.org/2000/svg">
<path d="M92.0075 3.19766C92.2848 3.02432 92.5795 2.98966 92.8915 3.09366L93.3075 3.19766C93.5848 3.19766 93.8275 3.76966 94.0355 4.91365C94.2088 6.19632 94.2955 7.61766 94.2955 9.17766C94.2955 10.7723 94.2435 12.6963 94.1395 14.9497C94.0701 17.1683 93.9835 18.4683 93.8795 18.8497L93.6195 20.8257C93.4808 22.5937 93.2035 24.1017 92.7875 25.3497C92.3715 26.5977 91.9035 27.2217 91.3835 27.2217C90.7595 27.2217 90.3955 26.5977 90.2915 25.3497C90.2221 24.7257 90.1875 24.119 90.1875 23.5297C90.1875 22.4897 90.2395 21.1377 90.3435 19.4737V18.9017C90.3435 18.1043 90.2741 17.7057 90.1355 17.7057C89.9621 17.7057 89.1648 18.4337 87.7435 19.8897C84.7621 22.9403 82.6995 24.7603 81.5555 25.3497C80.9661 25.627 80.5848 25.9043 80.4115 26.1817C80.2381 26.459 80.0648 27.083 79.8915 28.0537C79.4408 30.7923 78.7301 32.1617 77.7595 32.1617C77.4821 32.1617 77.2048 32.0923 76.9275 31.9537C76.6848 31.815 76.5461 31.659 76.5115 31.4857C76.4421 31.347 76.4075 30.8097 76.4075 29.8737C76.4075 28.487 76.4768 27.4123 76.6155 26.6497C76.9275 25.2977 77.0835 24.3097 77.0835 23.6857C77.0835 23.3043 77.0315 23.1137 76.9275 23.1137C76.8235 23.1137 76.5288 23.3217 76.0435 23.7377L74.3275 25.0377C73.8768 25.3497 73.2875 25.835 72.5595 26.4937C72.1781 26.875 71.6581 27.291 70.9995 27.7417C70.3408 28.1577 69.9421 28.3657 69.8035 28.3657C69.4568 28.3657 69.1448 28.175 68.8675 27.7937C68.6248 27.4123 68.5381 26.9963 68.6075 26.5457C68.6768 26.0603 69.1101 25.4537 69.9075 24.7257C70.7048 23.9977 72.2301 22.6977 74.4835 20.8257C75.7315 19.751 76.9968 18.607 78.2795 17.3937C79.5968 16.0763 80.8275 15.1057 81.9715 14.4817C82.4915 14.2043 82.9768 14.0657 83.4275 14.0657C83.7395 14.0657 83.9821 14.1523 84.1555 14.3257C84.3981 14.5683 84.4675 14.9323 84.3635 15.4177C84.1555 16.111 83.7568 17.047 83.1675 18.2257C82.7861 18.9883 82.4915 19.6123 82.2835 20.0977C82.0755 20.5483 82.0235 20.7737 82.1275 20.7737C82.2661 20.7737 82.6475 20.3923 83.2715 19.6297L83.5835 19.2657C84.5541 18.087 85.7155 16.943 87.0675 15.8337C88.3501 14.7243 89.3208 13.979 89.9795 13.5977L90.1355 13.4937C90.4128 13.355 90.5861 13.1643 90.6555 12.9217L90.7075 11.1537V10.4257C90.7768 7.61766 90.8808 5.78032 91.0195 4.91365C91.1928 4.01232 91.5221 3.44032 92.0075 3.19766ZM75.9915 4.54966C76.4768 4.27232 77.1355 4.13366 77.9675 4.13366C78.7648 4.13366 79.4061 4.27232 79.8915 4.54966C80.3768 4.82699 80.7408 5.24299 80.9835 5.79766C81.2608 6.31766 81.3995 6.92432 81.3995 7.61766C81.3995 8.38032 81.2435 9.21232 80.9315 10.1137C80.6195 10.9803 80.1515 11.8123 79.5275 12.6097C78.6955 13.719 77.6728 14.6897 76.4595 15.5217C75.2461 16.319 74.2408 16.7177 73.4435 16.7177C72.7848 16.7177 72.2648 16.4403 71.8835 15.8857C71.5021 15.331 71.3115 14.551 71.3115 13.5457C71.3115 12.679 71.4328 11.7777 71.6755 10.8417C72.0568 9.42032 72.4035 8.36299 72.7155 7.66966C73.0275 6.97632 73.4088 6.42166 73.8595 6.00566C74.3448 5.55499 75.0555 5.06966 75.9915 4.54966ZM77.4995 8.55366C77.4995 8.44966 77.4475 8.39766 77.3435 8.39766C77.1701 8.39766 76.9968 8.48432 76.8235 8.65766C76.7195 8.76166 76.4421 9.19499 75.9915 9.95766C75.5755 10.7203 75.2635 11.327 75.0555 11.7777C74.9861 11.951 74.9861 12.0377 75.0555 12.0377C75.3675 11.9683 75.8355 11.535 76.4595 10.7377L76.5635 10.5817C76.7368 10.2697 76.9275 9.88832 77.1355 9.43765C77.3781 8.95232 77.4995 8.65766 77.4995 8.55366ZM93.2555 29.3537C93.5675 29.2497 93.8448 29.1977 94.0875 29.1977C94.5035 29.1977 94.8155 29.319 95.0235 29.5617C95.2661 29.7697 95.3875 30.0643 95.3875 30.4457C95.3875 31.1737 95.0581 31.8843 94.3995 32.5777L92.6835 34.7097C91.2621 36.6163 89.7888 37.951 88.2635 38.7137C87.4315 39.1297 86.7035 39.3377 86.0795 39.3377C85.1435 39.3377 84.1728 38.8177 83.1675 37.7777C82.4395 37.119 81.8675 36.287 81.4515 35.2817C81.0355 34.2417 80.8275 33.271 80.8275 32.3697C80.8275 31.7457 80.9488 31.2257 81.1915 30.8097C81.4341 30.3937 81.7808 30.151 82.2315 30.0817H82.3875C82.7341 30.0817 83.0115 30.203 83.2195 30.4457C83.5315 30.827 83.8608 31.503 84.2075 32.4737C84.9355 34.4497 85.5941 35.4377 86.1835 35.4377C86.5995 35.4377 87.9515 34.2937 90.2395 32.0057C91.9728 30.3417 92.9781 29.4577 93.2555 29.3537Z" fill="#222222"/>
<path d="M60.0816 2.78099C60.3936 2.39965 60.7402 2.20898 61.1216 2.20898C61.2256 2.20898 61.3816 2.24365 61.5896 2.31299C61.9362 2.45165 62.2309 3.12765 62.4736 4.34098C62.7509 5.51965 62.8896 6.83698 62.8896 8.29299C62.8896 8.74365 62.8549 9.41965 62.7856 10.321C62.6816 11.361 62.6296 12.6783 62.6296 14.273C62.6296 15.6597 62.5776 17.0637 62.4736 18.485L62.2656 24.933C62.1616 28.0183 62.0229 30.2543 61.8496 31.641C61.7109 32.993 61.3989 34.6397 60.9136 36.581C60.6016 37.8983 60.3069 38.7997 60.0296 39.285C59.7522 39.7703 59.3882 40.013 58.9376 40.013C57.9322 40.013 57.4296 39.4757 57.4296 38.401C57.4296 38.0543 57.5162 37.5343 57.6896 36.841C57.8282 36.3903 57.8976 35.8703 57.8976 35.281C57.8976 34.761 57.9496 34.3277 58.0536 33.981L58.3656 27.481C58.6429 20.3743 58.8509 16.2837 58.9896 15.209L59.0416 14.585C59.0416 14.273 58.9896 14.117 58.8856 14.117C58.6776 14.1517 57.8282 15.053 56.3376 16.821C55.4362 17.8957 54.8816 18.5717 54.6736 18.849C54.5002 19.0917 54.3962 19.369 54.3616 19.681C54.3269 19.9583 54.2922 20.669 54.2576 21.813C54.2229 23.0957 54.1362 24.0143 53.9976 24.569C53.8589 25.0197 53.5816 25.3663 53.1656 25.609C53.0269 25.713 52.8536 25.765 52.6456 25.765C52.0216 25.765 51.4496 24.985 50.9296 23.425C50.7909 22.9743 50.6696 22.749 50.5656 22.749C50.4962 22.749 50.3749 22.957 50.2016 23.373C49.7856 24.413 48.7802 25.921 47.1856 27.897C45.6256 29.8383 44.2562 31.2597 43.0776 32.161C42.6616 32.473 42.2456 32.629 41.8296 32.629C41.2056 32.629 40.5816 32.317 39.9576 31.693C38.8482 30.6877 37.9989 29.041 37.4096 26.753C37.3402 26.5103 37.2536 26.337 37.1496 26.233C37.0456 26.0943 36.8549 25.9557 36.5776 25.817C35.9882 25.505 35.6936 25.1237 35.6936 24.673C35.6936 24.1877 36.0229 23.3383 36.6816 22.125C38.3109 18.9703 40.2349 16.5957 42.4536 15.001C43.4589 14.2383 44.3256 13.857 45.0536 13.857C45.6082 13.857 46.0069 14.117 46.2496 14.637L46.4056 15.001L46.5096 15.521C46.5096 15.7637 46.4229 16.0063 46.2496 16.249C46.1109 16.4917 45.8162 16.8383 45.3656 17.289C44.6722 18.0517 44.0309 18.8317 43.4416 19.629C43.3376 19.7677 42.8349 20.4263 41.9336 21.605C40.9282 22.853 40.4256 23.997 40.4256 25.037C40.4256 25.661 40.6162 26.3543 40.9976 27.117C41.3442 27.741 41.6216 28.053 41.8296 28.053C41.9336 28.053 42.1242 27.9663 42.4016 27.793C42.7482 27.481 43.4589 26.6663 44.5336 25.349C45.6082 23.997 46.3536 23.009 46.7696 22.385C47.7402 20.6863 48.7109 19.837 49.6816 19.837C49.9589 19.837 50.1149 19.733 50.1496 19.525C50.2536 19.2477 50.3056 17.4623 50.3056 14.169C50.3056 10.9103 50.3576 8.89965 50.4616 8.13699C50.5656 7.33965 50.8776 6.71565 51.3976 6.26498C51.7096 5.95298 52.0909 5.79698 52.5416 5.79698C52.8882 5.79698 53.1829 5.91832 53.4256 6.16099C53.8069 6.57698 53.9976 7.30498 53.9976 8.34499C53.9976 8.79565 53.9802 9.14232 53.9456 9.38498C53.8416 10.321 53.8242 11.309 53.8936 12.349C53.9629 13.285 54.1016 13.753 54.3096 13.753C54.4482 13.753 54.7429 13.493 55.1936 12.973L56.4936 11.465C56.7016 11.153 57.0309 10.7197 57.4816 10.165C58.5216 8.95165 59.0936 7.61699 59.1976 6.16099C59.2669 4.98232 59.3536 4.21965 59.4576 3.87298C59.5616 3.45699 59.7696 3.09299 60.0816 2.78099ZM41.7256 8.70898C42.3496 8.43165 42.8522 8.29299 43.2336 8.29299C43.6842 8.29299 44.0656 8.44899 44.3776 8.76098C44.5856 8.96898 44.6896 9.21165 44.6896 9.48899C44.6896 9.73165 44.6549 9.90498 44.5856 10.009C44.2736 10.529 43.6322 11.2397 42.6616 12.141C42.2456 12.661 41.3442 13.5103 39.9576 14.689C38.0509 16.4917 36.8029 17.6357 36.2136 18.121C35.5896 18.641 35.1042 18.9183 34.7576 18.953C34.2376 19.057 33.7522 18.901 33.3016 18.485C32.8509 18.0343 32.6602 17.5317 32.7296 16.977C32.7989 16.3877 33.3362 15.5557 34.3416 14.481C35.3469 13.3717 36.5429 12.2797 37.9296 11.205C39.3162 10.0957 40.5816 9.26365 41.7256 8.70898Z" fill="#222222"/>
<path d="M19.188 0.337999C19.3613 0.164666 19.4827 0.0606659 19.552 0.0259997C19.656 -0.00866656 19.8467 -0.00866656 20.124 0.0259997C21.0947 0.199333 21.8053 0.667333 22.256 1.43C22.7067 2.158 22.984 3.33667 23.088 4.966L23.244 7.306C23.2787 7.47933 23.296 7.86067 23.296 8.45C23.296 9.42067 23.244 10.6167 23.14 12.038C23.036 13.4247 22.9493 14.3607 22.88 14.846L22.62 16.406C22.4813 17.4807 22.3427 18.174 22.204 18.486C22.1 18.7633 21.8747 19.0233 21.528 19.266C21.1813 19.474 20.8693 19.578 20.592 19.578C20.2107 19.578 19.9507 19.3527 19.812 18.902C19.7427 18.694 19.6213 18.4687 19.448 18.226C19.344 18.018 19.292 17.8273 19.292 17.654L19.344 16.25C19.6213 13.9273 19.76 11.2753 19.76 8.294C19.76 5.03533 19.5867 2.97267 19.24 2.106C18.9973 1.586 18.876 1.222 18.876 1.014C18.876 0.806 18.98 0.580667 19.188 0.337999ZM7.644 10.946C8.19867 10.8767 8.61467 10.842 8.892 10.842C9.724 10.842 10.4347 10.998 11.024 11.31C11.6133 11.5873 12.0467 11.9687 12.324 12.454C12.4627 12.7313 12.532 13.234 12.532 13.962C12.532 15.5567 12.2547 17.03 11.7 18.382L11.388 19.526C11.0413 21.2247 10.764 22.2127 10.556 22.49C10.452 22.6633 10.3653 22.9407 10.296 23.322C10.2613 23.53 10.088 24.05 9.776 24.882C9.49867 25.506 9.308 25.9913 9.204 26.338C9.06533 26.7193 8.84 27.014 8.528 27.222C8.25067 27.43 7.93867 27.534 7.592 27.534C7.14133 27.534 6.74267 27.378 6.396 27.066C6.04933 26.754 5.876 26.3207 5.876 25.766C5.876 25.246 6.032 24.5007 6.344 23.53L7.124 21.086C7.228 20.5313 7.384 20.0807 7.592 19.734C7.76533 19.318 7.852 19.0407 7.852 18.902L8.268 17.03C8.54533 16.0247 8.684 15.3833 8.684 15.106C8.684 14.794 8.38933 14.638 7.8 14.638C6.968 14.7073 5.72 15.1407 4.056 15.938C2.98133 16.458 2.16667 16.718 1.612 16.718C1.092 16.718 0.641333 16.406 0.26 15.782C0.0866667 15.366 0 15.0367 0 14.794C0 14.378 0.190667 14.014 0.572 13.702C0.988 13.3553 1.664 12.9913 2.6 12.61C4.81867 11.674 6.5 11.1193 7.644 10.946ZM20.54 24.362C20.7133 24.2233 20.956 24.154 21.268 24.154C21.6493 24.154 22.0133 24.31 22.36 24.622C22.7067 24.8993 22.9493 25.2633 23.088 25.714C23.2613 26.3033 23.348 27.1873 23.348 28.366C23.348 29.1633 23.3133 29.9087 23.244 30.602C23.1747 31.2953 23.0707 31.746 22.932 31.954C22.828 32.266 22.7587 32.5953 22.724 32.942L22.516 34.294L22.464 34.814L22.932 34.398C24.1453 33.358 25.0813 32.838 25.74 32.838C26.1907 32.838 26.5373 33.046 26.78 33.462C26.9187 33.7047 26.988 33.9473 26.988 34.19C26.988 34.6407 26.6413 35.2647 25.948 36.062C24.6653 37.4833 23.608 38.4193 22.776 38.87C22.568 38.974 22.308 39.182 21.996 39.494C20.5053 41.0887 19.2053 41.886 18.096 41.886C17.7493 41.886 17.4373 41.782 17.16 41.574C16.6747 41.1927 16.432 40.7593 16.432 40.274C16.432 39.7887 16.6573 39.1127 17.108 38.246C17.42 37.6567 17.6627 37.1193 17.836 36.634L18.2 35.49C18.4427 34.9353 18.72 34.0513 19.032 32.838C19.344 31.6247 19.5 30.81 19.5 30.394C19.5 30.0473 19.0147 30.3073 18.044 31.174C17.5933 31.6247 17.2293 32.0407 16.952 32.422L15.912 33.878C15.392 34.5367 15.132 35.3167 15.132 36.218C15.132 37.05 15.3053 37.9167 15.652 38.818C15.964 39.65 16.12 40.2567 16.12 40.638C16.12 40.9847 16.016 41.366 15.808 41.782C15.4613 42.4753 14.9413 42.822 14.248 42.822C13.728 42.822 13.2427 42.5967 12.792 42.146C12.376 41.73 12.1333 41.158 12.064 40.43C12.0293 39.91 11.9427 39.5633 11.804 39.39C11.7 39.2513 11.648 38.9393 11.648 38.454C11.648 37.8993 11.5787 37.414 11.44 36.998C11.3013 36.478 11.232 35.9407 11.232 35.386C11.232 34.8313 11.18 34.2767 11.076 33.722C10.9027 32.9247 10.816 31.9713 10.816 30.862C10.816 30.0647 10.92 29.4927 11.128 29.146C11.336 28.7647 11.6653 28.574 12.116 28.574C12.428 28.574 12.688 28.6087 12.896 28.678C13.208 28.7127 13.5027 28.9553 13.78 29.406C13.988 29.7873 14.1613 29.978 14.3 29.978C14.4387 29.978 14.664 29.77 14.976 29.354C15.6 28.522 16.4667 27.6207 17.576 26.65C18.72 25.6447 19.708 24.882 20.54 24.362Z" fill="#222222"/>
</svg>
