<svg width="152" height="40" viewBox="0 0 152 40" fill="none" xmlns="http://www.w3.org/2000/svg">
<g clip-path="url(#clip0_635_2079)">
<path d="M3.68477 34.2228C3.49381 34.0684 3.26589 33.951 3.01332 33.8768C2.76076 33.8027 2.48972 33.7656 2.21251 33.7656H0.475371C0.36449 33.7656 0.290569 33.7903 0.247448 33.8336C0.204328 33.8768 0.179688 33.9572 0.179688 34.0622V39.8824H1.21458V37.4604H2.28644C2.55132 37.4604 2.80388 37.4233 3.05029 37.3492C3.29669 37.275 3.51229 37.1638 3.69709 37.0094C3.8819 36.8549 4.0359 36.6634 4.14062 36.4286C4.2515 36.2 4.30694 35.9281 4.30694 35.6192C4.30694 35.3103 4.2515 35.0446 4.14062 34.8098C4.02974 34.575 3.87574 34.3773 3.68477 34.2228ZM3.25357 35.6192C3.25357 35.9652 3.16117 36.2 2.97636 36.3359C2.7854 36.4718 2.50204 36.546 2.13243 36.546H1.20842V34.6801H2.13243C2.50204 34.6801 2.7854 34.7542 2.97636 34.8963C3.16117 35.0322 3.25357 35.2794 3.25357 35.6192Z" fill="#808080"/>
<path d="M14.486 34.5487C14.215 34.2892 13.8885 34.0915 13.5004 33.9555C13.1185 33.8258 12.6811 33.7578 12.1945 33.7578H10.8269C10.7161 33.7578 10.6483 33.7825 10.599 33.8258C10.5497 33.869 10.5312 33.9432 10.5312 34.0544V39.578C10.5312 39.6892 10.5559 39.7572 10.599 39.8066C10.6421 39.8561 10.7161 39.8746 10.8269 39.8746H12.1945C12.6811 39.8746 13.1185 39.8066 13.5004 39.6769C13.8885 39.5409 14.2211 39.3494 14.486 39.0899C14.7571 38.8304 14.9603 38.5091 15.102 38.1322C15.2437 37.7553 15.3115 37.3105 15.3115 36.8162C15.3115 36.3219 15.2376 35.8894 15.102 35.5063C14.9603 35.1295 14.7571 34.802 14.486 34.5425V34.5487ZM14.2458 36.8286C14.2458 37.5082 14.0979 38.0396 13.8023 38.4164C13.5127 38.781 13.0507 38.9663 12.4101 38.9663H11.5785V34.6784H12.022C12.3731 34.6661 12.6934 34.697 12.9706 34.7773C13.2478 34.8514 13.4758 34.975 13.6606 35.148C13.8454 35.3148 13.9932 35.5372 14.0918 35.8153C14.1903 36.0933 14.2458 36.4393 14.2458 36.8347V36.8286Z" fill="#808080"/>
<path d="M22.906 33.7383H21.8711V39.8736H22.906V33.7383Z" fill="#808080"/>
<path d="M34.2592 37.5646C34.327 37.2186 34.3578 36.8231 34.3454 36.3968V36.3165H33.3906V36.3968C33.3906 36.7181 33.366 37.0023 33.3229 37.2309C33.2921 37.3854 33.2613 37.509 33.2366 37.6016L32.1032 36.3598C32.1956 36.2856 32.288 36.2053 32.3804 36.125C32.4974 36.0199 32.6144 35.8964 32.713 35.7604C32.8177 35.6307 32.8978 35.4762 32.9656 35.3156C33.0333 35.1488 33.0641 34.9696 33.0641 34.778C33.0641 34.6112 33.0272 34.4506 32.9656 34.3023C32.8978 34.154 32.7993 34.0243 32.6637 33.913C32.5344 33.8018 32.3742 33.7153 32.1832 33.6535C31.9984 33.5918 31.7828 33.5547 31.5426 33.5547C31.3208 33.5547 31.1176 33.5918 30.9389 33.6659C30.7603 33.74 30.6124 33.8327 30.4892 33.9563C30.366 34.0737 30.2736 34.2158 30.2059 34.3826C30.1443 34.5433 30.1135 34.7163 30.1135 34.9016C30.1135 35.0561 30.1319 35.1982 30.1751 35.3279C30.212 35.4577 30.2613 35.5751 30.3229 35.6863C30.3845 35.7975 30.4523 35.9025 30.5323 36.0014C30.5939 36.0755 30.6555 36.1497 30.711 36.2238C30.5447 36.3536 30.3907 36.4833 30.249 36.6069C30.0888 36.7552 29.941 36.9158 29.8239 37.0765C29.7007 37.2371 29.6083 37.4101 29.5344 37.5893C29.4666 37.7685 29.4297 37.96 29.4297 38.1639C29.4297 38.479 29.4913 38.7509 29.6083 38.9795C29.7254 39.2081 29.8917 39.3996 30.095 39.5417C30.3229 39.7147 30.5631 39.8321 30.8095 39.8815C31.0498 39.931 31.3332 39.9557 31.6412 39.9557C32.0477 39.9557 32.4112 39.8754 32.7192 39.7209C32.9964 39.585 33.2243 39.4243 33.3968 39.239L33.9204 39.8321H35.251L33.9635 38.411C34.0867 38.1639 34.1853 37.8735 34.2469 37.5522L34.2592 37.5646ZM30.5755 37.7808C30.6186 37.6696 30.674 37.5646 30.7479 37.4719C30.828 37.373 30.9204 37.2742 31.0313 37.1815C31.1299 37.1012 31.2346 37.0147 31.3455 36.9282L32.7561 38.5161C32.6268 38.6705 32.4666 38.7941 32.288 38.8868C32.0847 38.9918 31.8444 39.0412 31.5734 39.0412C31.4379 39.0412 31.3085 39.0227 31.1792 38.9856C31.0559 38.9486 30.9389 38.893 30.8403 38.825C30.7418 38.7509 30.6617 38.6644 30.6063 38.547C30.5447 38.4357 30.52 38.2998 30.52 38.1515C30.52 38.0156 30.5385 37.892 30.5816 37.7808H30.5755ZM31.5672 35.6307C31.5672 35.6307 31.518 35.6678 31.4933 35.6863C31.4933 35.6863 31.4872 35.6801 31.481 35.6739C31.4625 35.6492 31.4379 35.6245 31.4256 35.6121C31.4071 35.5936 31.3948 35.5689 31.3701 35.5442C31.364 35.538 31.3516 35.5195 31.3332 35.4886C31.2531 35.3835 31.1915 35.2847 31.1607 35.192C31.1299 35.0931 31.1114 34.9881 31.1114 34.8645C31.1114 34.7163 31.1483 34.5989 31.2284 34.5185C31.3085 34.4382 31.4132 34.4011 31.5549 34.4011C31.7459 34.4011 31.8876 34.4382 31.9492 34.5062C32.0169 34.5741 32.0539 34.6792 32.0539 34.8089C32.0539 34.9758 32.0231 35.1117 31.9553 35.2167C31.8876 35.3279 31.7952 35.433 31.6843 35.5318C31.6473 35.5627 31.6104 35.5936 31.5672 35.6245V35.6307Z" fill="#808080"/>
<path d="M41.9518 33.7656H40.8984V39.5858C40.8984 39.697 40.9231 39.765 40.9662 39.8144C41.0093 39.8639 41.0832 39.8824 41.1941 39.8824H44.6684V38.968H41.9518V33.7656Z" fill="#808080"/>
<path d="M54.9785 34.5443C54.7506 34.2601 54.4611 34.0377 54.1223 33.8832C53.7835 33.7288 53.3954 33.6484 52.9765 33.6484C52.5576 33.6484 52.1634 33.7288 51.8246 33.8832C51.4919 34.0377 51.2086 34.2663 50.9806 34.5443C50.7527 34.8224 50.5802 35.1622 50.4694 35.5514C50.3523 35.9345 50.2969 36.3608 50.2969 36.8242C50.2969 37.2876 50.3523 37.7201 50.4694 38.1032C50.5864 38.4924 50.7589 38.8323 50.9806 39.1041C51.2086 39.3821 51.4919 39.6046 51.8246 39.759C52.1572 39.9135 52.5453 39.9938 52.9765 39.9938C53.4077 39.9938 53.7835 39.9135 54.1223 39.759C54.4611 39.6046 54.7445 39.3821 54.9785 39.1103C55.2065 38.8323 55.3851 38.4924 55.5083 38.1094C55.6253 37.7263 55.6869 37.2938 55.6869 36.8242C55.6869 36.3546 55.6253 35.9345 55.5083 35.5514C55.3851 35.1622 55.2065 34.8224 54.9785 34.5505V34.5443ZM52.9827 39.0794C52.6931 39.0794 52.4467 39.0176 52.2496 38.9002C52.0463 38.7766 51.88 38.616 51.7568 38.4121C51.6274 38.2082 51.5289 37.9673 51.4734 37.6954C51.4118 37.4235 51.3811 37.127 51.3811 36.8304C51.3811 36.5338 51.4118 36.2434 51.4734 35.9716C51.535 35.6997 51.6336 35.4588 51.7568 35.2487C51.8862 35.0448 52.0525 34.878 52.2496 34.7544C52.4467 34.6308 52.6931 34.5752 52.9827 34.5752C53.2722 34.5752 53.5063 34.637 53.7096 34.7544C53.9128 34.878 54.0792 35.0448 54.2085 35.2487C54.344 35.4526 54.4364 35.6997 54.4981 35.9716C54.5597 36.2434 54.5905 36.5338 54.5905 36.8304C54.5905 37.2938 54.5227 37.7139 54.381 38.0846C54.2455 38.443 54.0176 38.721 53.7034 38.9064C53.5063 39.0238 53.2599 39.0856 52.9765 39.0856L52.9827 39.0794Z" fill="#808080"/>
<path d="M63.3337 35.2172C63.4569 35.0194 63.6109 34.8588 63.8019 34.7414C63.9867 34.624 64.2269 34.5684 64.498 34.5684C64.6335 34.5684 64.7629 34.5869 64.8922 34.6178C65.0216 34.6487 65.1325 34.7043 65.2372 34.7847C65.3358 34.8588 65.4282 34.9577 65.4959 35.0874C65.5637 35.211 65.613 35.3716 65.6376 35.557L65.6499 35.6311H66.6971V35.5446C66.6787 35.2295 66.6047 34.9515 66.4754 34.7105C66.346 34.4757 66.1797 34.278 65.9764 34.1174C65.7731 33.9629 65.5452 33.8455 65.2926 33.7714C65.0401 33.6972 64.7752 33.6602 64.5103 33.6602C64.1099 33.6602 63.7403 33.7405 63.4138 33.9011C63.0935 34.0618 62.8163 34.2842 62.5884 34.5684C62.3666 34.8526 62.1941 35.1863 62.0771 35.5755C61.96 35.9586 61.8984 36.3849 61.8984 36.8359C61.8984 37.3055 61.96 37.7442 62.0771 38.1334C62.1941 38.5227 62.3728 38.8625 62.6007 39.1344C62.8348 39.4124 63.1243 39.6348 63.4631 39.7831C63.8019 39.9314 64.1961 40.0117 64.6335 40.0117C65.0031 40.0117 65.3481 39.9561 65.6561 39.8387C65.9641 39.7213 66.2475 39.573 66.5 39.3939C66.6232 39.3074 66.6848 39.19 66.6848 39.0293V36.8668C66.6848 36.7556 66.6602 36.6815 66.6171 36.6382C66.5739 36.5888 66.5 36.5703 66.3891 36.5703H64.3809V37.4785H65.6499V38.8193L65.6438 38.8254C65.5514 38.881 65.422 38.9428 65.268 39.0046C65.114 39.0664 64.9354 39.0911 64.7259 39.0911C64.4117 39.0911 64.1407 39.0355 63.9189 38.9181C63.6972 38.8069 63.5185 38.6463 63.383 38.4485C63.2475 38.2508 63.1428 38.0099 63.075 37.7318C63.0072 37.4538 62.9765 37.151 62.9765 36.8359C62.9765 36.5208 63.0011 36.2243 63.0627 35.9462C63.1181 35.6744 63.2105 35.4334 63.3337 35.2295V35.2172Z" fill="#808080"/>
<path d="M74.4763 33.7383H73.4414V39.8736H74.4763V33.7383Z" fill="#808080"/>
<path d="M84.6717 36.9789C84.5177 36.8554 84.3391 36.7503 84.1419 36.6638C83.9387 36.5773 83.7415 36.5032 83.5444 36.4291L82.9469 36.219C82.7806 36.1572 82.6266 36.0892 82.5095 36.0089C82.3925 35.9348 82.3001 35.8421 82.2385 35.7371C82.1769 35.632 82.1461 35.4961 82.1461 35.3293C82.1461 35.0945 82.2323 34.9153 82.411 34.7856C82.5896 34.6435 82.8298 34.5755 83.1132 34.5755C83.2302 34.5755 83.3473 34.5878 83.452 34.6126C83.5567 34.6373 83.6491 34.6805 83.7354 34.7361C83.8155 34.7917 83.8832 34.8782 83.9325 34.9771C83.9879 35.0821 84.0187 35.2119 84.0249 35.3787V35.459H85.1029V35.3725C85.0967 35.0142 85.0228 34.7114 84.875 34.4828C84.7333 34.2542 84.5423 34.0688 84.3144 33.9515C84.1296 33.8526 83.9387 33.7723 83.7415 33.729C83.3781 33.6425 82.8483 33.6178 82.3555 33.7723C82.1153 33.8464 81.8997 33.9638 81.7087 34.1121C81.5177 34.2666 81.3637 34.4519 81.2467 34.6682C81.1297 34.8906 81.0681 35.1439 81.0681 35.422C81.0681 35.7 81.1173 35.9348 81.2159 36.1263C81.3145 36.3178 81.4377 36.4785 81.5978 36.6144C81.7518 36.7442 81.9305 36.8554 82.1214 36.9419C82.3124 37.0284 82.5095 37.1025 82.7005 37.1643C82.953 37.257 83.1748 37.3435 83.3596 37.4114C83.5444 37.4794 83.6923 37.5536 83.8093 37.6277C83.9202 37.6957 84.0003 37.7822 84.0495 37.8687C84.0988 37.9613 84.1235 38.0787 84.1235 38.2208C84.1235 38.3629 84.0927 38.4989 84.0372 38.5977C83.9818 38.7028 83.8955 38.7954 83.797 38.8696C83.6984 38.9437 83.5814 38.9932 83.4582 39.0302C83.181 39.1044 82.873 39.092 82.6327 39.0426C82.5095 39.0179 82.3986 38.9684 82.3062 38.8943C82.2138 38.8202 82.1461 38.7151 82.0906 38.5854C82.0352 38.4556 82.0106 38.2764 82.0167 38.054V37.9675H80.9141V38.054C80.9141 38.6781 81.1112 39.1662 81.4808 39.4998C81.8504 39.8334 82.3555 40.0064 82.99 40.0064C83.3042 40.0064 83.5814 39.9817 83.8216 39.9323C84.0619 39.8829 84.3083 39.7655 84.5362 39.5925C84.7456 39.4504 84.912 39.2527 85.029 39.0055C85.1399 38.7646 85.2015 38.4803 85.2015 38.1714C85.2015 37.8872 85.1522 37.6524 85.0536 37.4671C84.9551 37.2817 84.8257 37.1211 84.6717 36.9913V36.9789Z" fill="#808080"/>
<path d="M90.8438 34.6801H92.5932V39.8824H93.6281V34.6801H95.3652V33.7656H90.8438V34.6801Z" fill="#808080"/>
<path d="M102.554 33.7383H101.52V39.8736H102.554V33.7383Z" fill="#808080"/>
<path d="M112.797 38.1162C112.717 38.4869 112.582 38.7402 112.397 38.8761C112.206 39.0121 111.966 39.08 111.682 39.08C111.399 39.08 111.146 39.0182 110.961 38.8947C110.77 38.7711 110.616 38.6043 110.493 38.3942C110.37 38.1841 110.284 37.937 110.235 37.6713C110.185 37.3995 110.161 37.1152 110.161 36.831C110.161 36.5468 110.185 36.2688 110.235 35.9908C110.284 35.7251 110.37 35.4779 110.493 35.2679C110.61 35.0578 110.77 34.891 110.961 34.7674C111.152 34.6438 111.399 34.582 111.682 34.582C111.966 34.582 112.212 34.6562 112.409 34.7921C112.6 34.928 112.723 35.1566 112.766 35.4779L112.779 35.5459H113.863L113.851 35.4532C113.82 35.1381 113.733 34.8601 113.598 34.6315C113.462 34.4029 113.296 34.2113 113.099 34.063C112.902 33.9148 112.674 33.8097 112.421 33.7418C112.175 33.6738 111.922 33.6367 111.664 33.6367C111.208 33.6367 110.814 33.7294 110.487 33.9148C110.161 34.0939 109.89 34.3349 109.68 34.6376C109.471 34.9342 109.317 35.274 109.218 35.6571C109.12 36.034 109.07 36.4294 109.07 36.831C109.07 37.2326 109.12 37.6404 109.218 38.0173C109.317 38.3942 109.471 38.7402 109.68 39.0306C109.89 39.3272 110.161 39.562 110.487 39.7411C110.814 39.9141 111.208 40.0068 111.658 40.0068C111.929 40.0068 112.193 39.9636 112.446 39.8894C112.699 39.8091 112.927 39.6917 113.124 39.5372C113.321 39.3828 113.493 39.1851 113.623 38.9503C113.758 38.7155 113.838 38.4498 113.875 38.1409V38.0482H112.809L112.797 38.1162Z" fill="#808080"/>
<path d="M123.991 37.4547C123.899 37.2693 123.769 37.1087 123.609 36.9789C123.455 36.8554 123.277 36.7503 123.079 36.6638C122.882 36.5835 122.679 36.5032 122.482 36.4291L121.884 36.219C121.712 36.1572 121.564 36.0892 121.441 36.0089C121.324 35.9348 121.231 35.8421 121.17 35.7371C121.108 35.6382 121.077 35.5023 121.077 35.3293C121.077 35.0945 121.164 34.9153 121.342 34.7856C121.527 34.6435 121.761 34.5755 122.045 34.5755C122.168 34.5755 122.279 34.5878 122.39 34.6126C122.494 34.6373 122.587 34.6805 122.667 34.7361C122.747 34.7917 122.815 34.8782 122.864 34.9771C122.919 35.0821 122.95 35.2181 122.956 35.3787V35.459H124.034V35.3725C124.028 35.0142 123.954 34.7114 123.806 34.4828C123.665 34.248 123.474 34.0688 123.246 33.9515C123.061 33.8526 122.864 33.7723 122.679 33.729C122.309 33.6425 121.78 33.6178 121.293 33.7723C121.059 33.8464 120.837 33.9638 120.646 34.1121C120.455 34.2666 120.295 34.4519 120.178 34.6682C120.061 34.8906 119.999 35.1439 119.999 35.422C119.999 35.7 120.049 35.9348 120.147 36.1263C120.246 36.3178 120.369 36.4785 120.529 36.6144C120.683 36.7442 120.862 36.8554 121.053 36.9419C121.244 37.0284 121.435 37.1025 121.632 37.1643C121.884 37.257 122.112 37.3435 122.291 37.4114C122.47 37.4794 122.624 37.5536 122.741 37.6277C122.852 37.6957 122.932 37.776 122.981 37.8687C123.03 37.9613 123.055 38.0787 123.055 38.2208C123.055 38.3629 123.024 38.4989 122.969 38.5977C122.907 38.7028 122.827 38.7954 122.728 38.8696C122.63 38.9437 122.513 38.9932 122.39 39.0302C122.106 39.1044 121.798 39.092 121.564 39.0426C121.435 39.0179 121.33 38.9684 121.238 38.8943C121.145 38.8202 121.077 38.7151 121.022 38.5854C120.967 38.4494 120.942 38.2703 120.948 38.054V37.9675H119.852V38.054C119.852 38.6781 120.049 39.1662 120.418 39.4998C120.782 39.8334 121.293 40.0064 121.928 40.0064C122.242 40.0064 122.519 39.9817 122.759 39.9323C122.999 39.8829 123.246 39.7655 123.474 39.5925C123.683 39.4504 123.849 39.2527 123.967 39.0055C124.084 38.7646 124.139 38.4803 124.139 38.1714C124.139 37.8934 124.09 37.6524 123.991 37.4671V37.4547Z" fill="#808080"/>
<path d="M10.1149 0.550781H0V28.8301H5.79664V18.8702H10.121C13.4043 18.8702 15.739 18.0238 17.1373 16.3308C18.5295 14.6379 19.2318 12.4569 19.2318 9.78155C19.2318 7.10623 18.5357 4.82635 17.1373 3.11488C15.739 1.4096 13.4043 0.55696 10.121 0.55696L10.1149 0.550781ZM12.3694 14.9654C11.6672 16.1825 10.5892 16.788 9.14772 16.788H5.79048V2.67621H9.14772C10.5892 2.67621 11.661 3.29406 12.3694 4.5236C13.0779 5.75313 13.429 7.50784 13.429 9.78155C13.429 12.0553 13.0779 13.7544 12.3694 14.9715V14.9654Z" fill="#171A57"/>
<path d="M27.7966 0.550781H22V28.8301H38.1887V25.9694H27.7966V0.550781Z" fill="#171A57"/>
<path d="M52.1127 12.4976L49.6733 11.855C48.2319 11.4843 47.1292 11.1074 46.3654 10.7243C45.5953 10.3413 45.0471 9.86553 44.7083 9.29092C44.3695 8.72249 44.2032 7.97489 44.2032 7.05428C44.2032 5.57761 44.6529 4.42221 45.5584 3.59429C46.4639 2.76636 47.7267 2.34622 49.353 2.34622C50.9793 2.34622 52.1558 2.94554 53.0798 4.14418C53.9053 5.21925 54.4043 6.70828 54.6137 8.57421H59.3816C58.9812 5.65175 57.9709 3.49543 56.3447 2.0929C54.7184 0.696543 52.4022 -0.0078125 49.4023 -0.0078125C46.1498 -0.0078125 43.698 0.696543 42.041 2.11143C40.3839 3.52632 39.5585 5.63321 39.5585 8.4321C39.5585 10.8912 40.119 12.7756 41.2402 14.0855C42.3551 15.3953 44.2524 16.353 46.9198 16.9709L49.082 17.5269C50.6466 17.8977 51.8232 18.2745 52.624 18.6576C53.4186 19.0407 53.9854 19.5103 54.3242 20.0663C54.663 20.6162 54.8293 21.3576 54.8293 22.2783C54.8293 23.8167 54.355 24.9906 53.4002 25.8062C52.4515 26.6218 51.084 27.0296 49.3099 27.0296C47.6528 27.0296 46.3346 26.4364 45.3551 25.2563C44.4804 24.1998 43.926 22.7046 43.6611 20.8016H38.9609C39.2997 23.724 40.31 25.8804 41.9979 27.2829C43.6857 28.6854 46.119 29.3836 49.3099 29.3836C52.5008 29.3836 55.1558 28.6607 56.9237 27.2149C58.6855 25.7691 59.5664 23.6931 59.5664 20.9869C59.5664 18.5897 58.9997 16.7423 57.8662 15.4509C56.7328 14.1596 54.817 13.1772 52.1189 12.4976H52.1127Z" fill="#171A57"/>
<path d="M85.408 25.0463C84.6688 26.3067 83.4121 26.9369 81.638 26.9369C80.1042 26.9369 78.9153 26.5106 78.0714 25.6703C77.2274 24.8238 76.6361 23.5263 76.3034 21.7716C75.9646 20.0169 75.7983 17.6691 75.7983 14.7157C75.7983 11.7623 75.9646 9.35889 76.3034 7.58564C76.6422 5.81857 77.2274 4.50872 78.0714 3.66225C78.9153 2.81579 80.1042 2.39565 81.638 2.39565C83.1719 2.39565 84.3608 2.93318 85.1123 4.00825C85.7653 4.94739 86.1903 6.26961 86.4183 7.92546H91.1615C90.8535 5.31193 90.0034 3.33479 88.6113 2.00022C87.2191 0.659472 84.8967 -0.0078125 81.6442 -0.0078125C78.6689 -0.0078125 76.3342 0.54208 74.6279 1.65422C72.9277 2.76018 71.7326 4.38514 71.0427 6.52293C70.3528 8.66071 70.0078 11.3916 70.0078 14.7095C70.0078 18.0274 70.3528 20.7522 71.0427 22.8714C71.7326 24.9968 72.9277 26.6094 74.6279 27.7154C76.3281 28.8214 78.6689 29.3774 81.6442 29.3774C84.0343 29.3774 85.9131 28.9882 87.2807 28.2035C88.6421 27.4188 89.6153 26.3376 90.2006 24.9536C90.7858 23.5696 91.1492 21.8149 91.3032 19.6956H86.6031C86.523 22.0311 86.1349 23.8229 85.4203 25.0463H85.408Z" fill="#262B90"/>
<path d="M112.221 9.31868C110.718 7.19943 108.081 6.13672 104.311 6.13672C100.541 6.13672 97.8493 7.20561 96.3339 9.34339C94.8185 11.4812 94.0547 14.2862 94.0547 17.7586C94.0547 25.5065 97.4735 29.3805 104.311 29.3805C108.081 29.3805 110.718 28.3116 112.221 26.1738C113.724 24.036 114.475 21.2309 114.475 17.7586C114.475 14.2862 113.724 11.4379 112.221 9.31868ZM107.742 24.0916C107.083 25.698 105.931 26.5013 104.287 26.5013C101.299 26.5013 99.8082 23.585 99.8082 17.7524C99.8082 15.1389 100.141 13.0258 100.806 11.4194C101.471 9.81296 102.63 9.00357 104.293 9.00357C105.956 9.00357 107.089 9.80061 107.749 11.4009C108.402 12.9949 108.734 15.1142 108.734 17.7524C108.734 20.3907 108.408 22.479 107.749 24.0854L107.742 24.0916Z" fill="#262B90"/>
<path d="M123.443 9.83024V6.69154H117.695V28.8293H123.443V16.0088C123.443 14.2232 123.942 12.8886 124.94 11.9927C125.938 11.103 127.613 10.652 129.972 10.652V6.5C128.346 6.5 126.923 6.90161 125.697 7.69864C124.816 8.27325 124.071 8.98378 123.443 9.82406V9.83024Z" fill="#262B90"/>
<path d="M149.973 9.34339C148.624 7.20561 146.265 6.13672 142.889 6.13672C141.325 6.13672 139.729 6.60011 138.103 7.50836V6.68661H132.355V39.7666H138.103V28.6946C139.575 29.158 141.14 29.3866 142.797 29.3866C146.228 29.3866 148.624 28.3178 149.973 26.18C151.322 24.0422 152 21.2371 152 17.7648C152 14.2924 151.322 11.4812 149.973 9.34957V9.34339ZM145.076 24.0978C144.294 25.7042 142.92 26.5074 140.961 26.5074C139.828 26.5074 138.879 26.2109 138.109 25.6177V9.84386C138.861 9.29396 139.803 9.00975 140.961 9.00975C142.92 9.00975 144.294 9.80678 145.076 11.407C145.858 13.0011 146.246 15.1203 146.246 17.7586C146.246 20.3783 145.858 22.4914 145.076 24.0978Z" fill="#262B90"/>
</g>
<defs>
<clipPath id="clip0_635_2079">
<rect width="152" height="40" fill="white"/>
</clipPath>
</defs>
</svg>
